<svg width="128" height="130" viewBox="0 0 128 130" fill="none" xmlns="http://www.w3.org/2000/svg">
<path d="M26.892 126.05L2.16873 17.1148L111.502 10.8155L123.148 102.401L26.892 126.05Z" fill="#1F2020" stroke="url(#paint0_linear_1064_19499)" stroke-width="3.184"/>
<path d="M34.5119 79.6085C34.9677 74.1898 36.6267 69.2016 39.4889 64.6439C42.3492 60.0862 46.1594 56.4653 50.9198 53.7813L45.2985 44.0581C44.9947 43.6024 44.9187 43.1213 45.0707 42.6149C45.2226 42.1084 45.5518 41.7286 46.0582 41.4754C46.4633 41.2222 46.9191 41.1716 47.4255 41.3235C47.9319 41.4754 48.337 41.7793 48.6409 42.235L54.2621 51.9582C58.6173 50.1351 63.175 49.2236 67.9353 49.2236C72.6956 49.2236 77.2533 50.1351 81.6085 51.9582L87.2297 42.235C87.5336 41.7793 87.9387 41.4754 88.4451 41.3235C88.9515 41.1716 89.4073 41.2222 89.8124 41.4754C90.3188 41.7286 90.648 42.1084 90.7999 42.6149C90.9519 43.1213 90.8759 43.6024 90.5721 44.0581L84.9508 53.7813C89.7111 56.4653 93.5224 60.0862 96.3847 64.6439C99.2449 69.2016 100.903 74.1898 101.359 79.6085H34.5119ZM52.7428 71.2526C53.8063 71.2526 54.7057 70.885 55.441 70.1497C56.1743 69.4164 56.541 68.518 56.541 67.4545C56.541 66.391 56.1743 65.4927 55.441 64.7594C54.7057 64.0241 53.8063 63.6564 52.7428 63.6564C51.6794 63.6564 50.781 64.0241 50.0477 64.7594C49.3124 65.4927 48.9447 66.391 48.9447 67.4545C48.9447 68.518 49.3124 69.4164 50.0477 70.1497C50.781 70.885 51.6794 71.2526 52.7428 71.2526ZM83.1278 71.2526C84.1912 71.2526 85.0906 70.885 85.8259 70.1497C86.5592 69.4164 86.9259 68.518 86.9259 67.4545C86.9259 66.391 86.5592 65.4927 85.8259 64.7594C85.0906 64.0241 84.1912 63.6564 83.1278 63.6564C82.0643 63.6564 81.1659 64.0241 80.4326 64.7594C79.6973 65.4927 79.3296 66.391 79.3296 67.4545C79.3296 68.518 79.6973 69.4164 80.4326 70.1497C81.1659 70.885 82.0643 71.2526 83.1278 71.2526Z" fill="url(#paint1_linear_1064_19499)"/>
<defs>
<linearGradient id="paint0_linear_1064_19499" x1="148.596" y1="1.4093" x2="161.207" y2="92.4812" gradientUnits="userSpaceOnUse">
<stop stop-color="#FF9323"/>
<stop offset="1" stop-color="#FFF02E"/>
</linearGradient>
<linearGradient id="paint1_linear_1064_19499" x1="67.9353" y1="41.238" x2="67.9353" y2="79.6085" gradientUnits="userSpaceOnUse">
<stop stop-color="#FF9323"/>
<stop offset="1" stop-color="#FFF02E"/>
</linearGradient>
</defs>
</svg>
