<svg width="89" height="98" viewBox="0 0 89 98" fill="none" xmlns="http://www.w3.org/2000/svg">
<path d="M10.1893 95.576L1.87661 2.07529L87.4563 8.57608L87.4563 87.9485L10.1893 95.576Z" fill="#1F2020" stroke="url(#paint0_linear_1064_19505)" stroke-width="3.04676"/>
<path d="M61.4105 32.7907H63.6993V35.0794C63.6993 35.6864 63.9404 36.2686 64.3696 36.6978C64.7988 37.127 65.381 37.3682 65.988 37.3682C66.595 37.3682 67.1771 37.127 67.6064 36.6978C68.0356 36.2686 68.2767 35.6864 68.2767 35.0794V32.7907H70.5654C71.1724 32.7907 71.7546 32.5496 72.1838 32.1204C72.613 31.6911 72.8541 31.109 72.8541 30.502C72.8541 29.895 72.613 29.3128 72.1838 28.8836C71.7546 28.4544 71.1724 28.2133 70.5654 28.2133H68.2767V25.9246C68.2767 25.3176 68.0356 24.7354 67.6064 24.3062C67.1771 23.877 66.595 23.6358 65.988 23.6358C65.381 23.6358 64.7988 23.877 64.3696 24.3062C63.9404 24.7354 63.6993 25.3176 63.6993 25.9246V28.2133H61.4105C60.8035 28.2133 60.2214 28.4544 59.7922 28.8836C59.363 29.3128 59.1218 29.895 59.1218 30.502C59.1218 31.109 59.363 31.6911 59.7922 32.1204C60.2214 32.5496 60.8035 32.7907 61.4105 32.7907ZM36.2346 37.3682V60.2554C36.2346 60.8624 36.4758 61.4445 36.905 61.8737C37.3342 62.303 37.9163 62.5441 38.5233 62.5441C39.1303 62.5441 39.7125 62.303 40.1417 61.8737C40.5709 61.4445 40.8121 60.8624 40.8121 60.2554V37.3682C40.8121 36.7612 40.5709 36.179 40.1417 35.7498C39.7125 35.3206 39.1303 35.0794 38.5233 35.0794C37.9163 35.0794 37.3342 35.3206 36.905 35.7498C36.4758 36.179 36.2346 36.7612 36.2346 37.3682ZM69.6499 41.9456C69.3554 42.0057 69.0755 42.1232 68.8263 42.2914C68.5772 42.4596 68.3636 42.6753 68.1978 42.9261C68.0321 43.1769 67.9173 43.4579 67.8602 43.7531C67.803 44.0482 67.8046 44.3517 67.8647 44.6463C68.7583 48.9862 68.2287 53.4985 66.3544 57.5135C64.4802 61.5285 61.3612 64.8322 57.4605 66.934C53.5598 69.0358 49.0854 69.8239 44.7013 69.1811C40.3172 68.5383 36.2573 66.499 33.1242 63.3658C29.991 60.2327 27.9517 56.1727 27.3089 51.7887C26.6661 47.4046 27.4541 42.9302 29.556 39.0295C31.6578 35.1288 34.9614 32.0098 38.9764 30.1355C42.9915 28.2613 47.5038 27.7316 51.8437 28.6252C52.4507 28.7466 53.0811 28.6219 53.5961 28.2786C54.1112 27.9352 54.4688 27.4013 54.5902 26.7943C54.7116 26.1873 54.5869 25.5569 54.2435 25.0418C53.9001 24.5268 53.3662 24.1692 52.7592 24.0478C51.0843 23.7357 49.3815 23.5977 47.6782 23.6358C42.6989 23.6358 37.8314 25.1124 33.6912 27.8787C29.5511 30.6451 26.3242 34.5771 24.4187 39.1774C22.5132 43.7776 22.0146 48.8397 22.986 53.7233C23.9575 58.607 26.3552 63.0929 29.8762 66.6138C33.3971 70.1347 37.883 72.5325 42.7666 73.5039C47.6503 74.4754 52.7123 73.9768 57.3126 72.0713C61.9129 70.1658 65.8449 66.9389 68.6112 62.7988C71.3776 58.6586 72.8541 53.7911 72.8541 48.8118C72.859 47.1206 72.6903 45.4333 72.3506 43.7766C72.2958 43.4779 72.1821 43.1931 72.0161 42.9388C71.8501 42.6845 71.6352 42.4658 71.3838 42.2953C71.1325 42.1249 70.8497 42.0062 70.552 41.9462C70.2544 41.8862 69.9477 41.886 69.6499 41.9456ZM45.3895 41.9456V44.2343C45.3996 45.9281 46.0354 47.5584 47.1747 48.8118C46.0354 50.0651 45.3996 51.6954 45.3895 53.3892V55.6779C45.3895 57.4989 46.1129 59.2454 47.4006 60.533C48.6882 61.8207 50.4346 62.5441 52.2557 62.5441H54.5444C56.3654 62.5441 58.1118 61.8207 59.3995 60.533C60.6871 59.2454 61.4105 57.4989 61.4105 55.6779V53.3892C61.4004 51.6954 60.7646 50.0651 59.6253 48.8118C60.7646 47.5584 61.4004 45.9281 61.4105 44.2343V41.9456C61.4105 40.1246 60.6871 38.3781 59.3995 37.0905C58.1118 35.8028 56.3654 35.0794 54.5444 35.0794H52.2557C50.4346 35.0794 48.6882 35.8028 47.4006 37.0905C46.1129 38.3781 45.3895 40.1246 45.3895 41.9456ZM56.8331 55.6779C56.8331 56.2849 56.592 56.8671 56.1628 57.2963C55.7335 57.7255 55.1514 57.9666 54.5444 57.9666H52.2557C51.6487 57.9666 51.0665 57.7255 50.6373 57.2963C50.2081 56.8671 49.9669 56.2849 49.9669 55.6779V53.3892C49.9669 52.7822 50.2081 52.2001 50.6373 51.7708C51.0665 51.3416 51.6487 51.1005 52.2557 51.1005H54.5444C55.1514 51.1005 55.7335 51.3416 56.1628 51.7708C56.592 52.2001 56.8331 52.7822 56.8331 53.3892V55.6779ZM56.8331 41.9456V44.2343C56.8331 44.8413 56.592 45.4235 56.1628 45.8527C55.7335 46.2819 55.1514 46.523 54.5444 46.523H52.2557C51.6487 46.523 51.0665 46.2819 50.6373 45.8527C50.2081 45.4235 49.9669 44.8413 49.9669 44.2343V41.9456C49.9669 41.3386 50.2081 40.7564 50.6373 40.3272C51.0665 39.898 51.6487 39.6569 52.2557 39.6569H54.5444C55.1514 39.6569 55.7335 39.898 56.1628 40.3272C56.592 40.7564 56.8331 41.3386 56.8331 41.9456Z" fill="url(#paint1_linear_1064_19505)"/>
<defs>
<linearGradient id="paint0_linear_1064_19505" x1="117.719" y1="5.08832" x2="117.735" y2="73.9884" gradientUnits="userSpaceOnUse">
<stop stop-color="#FF9323"/>
<stop offset="1" stop-color="#FFF02E"/>
</linearGradient>
<linearGradient id="paint1_linear_1064_19505" x1="47.6783" y1="23.6296" x2="47.6783" y2="73.9877" gradientUnits="userSpaceOnUse">
<stop stop-color="#FF9323"/>
<stop offset="1" stop-color="#FFF02E"/>
</linearGradient>
</defs>
</svg>
