<svg width="108" height="114" viewBox="0 0 108 114" fill="none" xmlns="http://www.w3.org/2000/svg">
<path d="M15.8373 111.61L2.21822 5.51287L101.969 9.21512L105.334 99.5732L15.8373 111.61Z" fill="#1F2020" stroke="url(#paint0_linear_1064_19502)" stroke-width="3.184"/>
<path d="M55.9707 86.4356L56.8454 84.1128C57.0091 84.1744 57.1375 84.1931 57.2427 84.1931C57.348 84.1931 57.4764 84.1744 57.6401 84.1128L58.5148 86.4356L57.6401 84.1128C57.8133 84.0476 57.9316 83.9759 58.0156 83.9092C65.6403 77.1402 71.2313 70.9448 74.8777 65.3263C78.527 59.7012 80.2022 54.6716 80.2022 50.189C80.2022 42.7862 77.8571 37.1261 73.3241 32.9288L73.3237 32.9285C68.6508 28.5998 63.3246 26.4841 57.2427 26.4841C51.1609 26.4841 45.8346 28.5998 41.1617 32.9285L41.1614 32.9288C36.6284 37.1261 34.2833 42.7862 34.2833 50.189C34.2833 54.6715 35.9585 59.701 39.6076 65.326L55.9707 86.4356ZM55.9707 86.4356L56.8454 84.1128C56.6722 84.0476 56.5539 83.9759 56.4699 83.9092C48.8452 77.1403 43.2542 70.9448 39.6078 65.3263L55.9707 86.4356ZM63.4966 43.2879L63.4937 43.2849C61.7862 41.5731 59.658 40.6811 57.2427 40.6811C54.8274 40.6811 52.6994 41.5733 50.9935 43.2864C49.2867 45.0003 48.4002 47.133 48.4002 49.5503C48.4002 51.9669 49.2863 54.0988 50.9935 55.811C52.6989 57.5257 54.8267 58.4194 57.2427 58.4194C59.6594 58.4194 61.788 57.5253 63.4951 55.811C65.2008 54.0982 66.0852 51.9663 66.0852 49.5503C66.0852 47.1344 65.2009 45.0022 63.4966 43.2879Z" stroke="url(#paint1_linear_1064_19502)" stroke-width="4.96421"/>
<defs>
<linearGradient id="paint0_linear_1064_19502" x1="136.702" y1="4.0829" x2="139.632" y2="82.3023" gradientUnits="userSpaceOnUse">
<stop stop-color="#FF9323"/>
<stop offset="1" stop-color="#FFF02E"/>
</linearGradient>
<linearGradient id="paint1_linear_1064_19502" x1="57.2427" y1="24.002" x2="57.2427" y2="86.6752" gradientUnits="userSpaceOnUse">
<stop stop-color="#FF9323"/>
<stop offset="1" stop-color="#FFF02E"/>
</linearGradient>
</defs>
</svg>
