<svg width="89" height="137" viewBox="0 0 89 137" fill="none" xmlns="http://www.w3.org/2000/svg">
<path fill-rule="evenodd" clip-rule="evenodd" d="M10.1705 136.363C16.5347 137.668 31.0327 136.521 29.0536 130.427C26.3299 132.948 27.2577 133.002 21.8218 134.051C19.4173 134.371 16.9817 134.561 14.5292 134.618C11.503 134.502 9.50415 134.451 6.77362 132.632C5.14293 131.544 1.49071 127.63 2.89617 125.997C4.30431 128.49 6.6055 137.416 24.1951 131.519C26.4742 130.758 31.6975 124.857 31.8992 120.929C32.2465 114.281 29.5805 111.418 27.2568 109.511C28.2693 109.268 36.2072 110.978 40.4743 113.178C41.8308 109.614 43.537 106.173 45.5752 102.888C48.2689 98.7941 52.0811 91.901 53.7267 88.5728C57.5317 80.8692 62.631 73.0366 66.228 63.9859C69.825 54.9351 77.3153 43.8717 80.532 37.4328C81.5548 35.3623 85.734 29.5657 88.1636 25.4478C87.0391 17.3448 87.5049 10.2354 83.0356 7.68051C76.6751 6.88144 76.2108 5.9671 70.3016 5.91282C67.3188 5.87737 64.5081 4.50706 61.041 4.41272C56.9198 4.30049 47.4652 1.99709 37.5326 0.566405C33.5424 5.2085 32.6022 20.548 31.2865 26.4364C30.1493 31.5424 25.5302 43.3313 23.8154 48.8041C20.9475 57.9741 18.8489 65.7547 16.7361 72.9055C14.4893 80.5344 6.52505 94.1702 6.62 100.12C7.96476 102.136 10.8422 105.775 11.6693 107.223C-0.761695 109.517 -5.54852 133.113 10.1181 136.327L10.1705 136.363ZM13.607 100.664C21.8866 101.669 23.4797 104.777 31.4571 105.215L31.9875 105.369C35.0118 105.99 33.9729 105.312 36.3142 105.792L36.848 105.901C38.0646 106.151 38.3738 106.538 38.1618 107.571L38.0703 108.018C37.688 109.881 37.0605 108.771 35.7628 108.48L31.494 107.746C29.8704 107.236 28.4563 107.628 25.6056 106.861L23.4703 106.484L17.1119 105.18L12.5743 104.649L13.607 100.664ZM14.2898 97.3354C16.4561 87.4754 19.419 78.1631 22.6571 68.2095C24.5996 62.1513 27.5326 52.9845 29.4118 48.9257C32.3481 42.5708 34.7901 36.9639 37.7426 30.1219C39.5394 25.94 41.0763 22.7918 43.2872 18.5735C47.08 11.3376 47.7601 10.8501 49.3064 7.59771C57.2691 9.06926 77.8156 8.55132 79.4133 11.4324C71.7559 25.03 64.0947 38.6268 56.4297 52.2228C57.3262 46.8905 66.4986 31.7379 62.8156 30.4516C61.8023 35.3908 55.9887 42.0707 55.0474 47.7376C53.7475 55.5607 50.8241 61.7363 48.1682 68.1234C45.9185 73.5219 42.461 79.3856 40.5607 84.5677C39.5273 87.3894 34.7632 97.2322 34.15 100.221L33.8743 101.565L31.2678 100.803L14.3158 97.3255L14.2898 97.3354ZM8.18225 127.107C5.11109 125.607 1.08831 120.671 5.88992 115.164C8.71508 111.916 15.0832 108.859 19.0037 112.019C22.5092 114.842 23.1101 120.658 20.7832 124.014C18.6113 127.138 13.9257 128.29 8.187 127.113L8.18225 127.107ZM28.8391 120.6L28.5634 121.944C28.2518 123.462 24.0904 128.56 21.6328 129.492C18.4922 130.663 12.7755 131.856 11.5508 129.663C16.9827 130.383 22.4555 127.522 24.7963 123.603C26.1598 121.329 25.3704 112.759 20.8003 111.483C21.8985 110.56 22.7687 110.021 23.2899 109.637C26.2134 112.148 29.8761 115.691 28.8678 120.606L28.8391 120.6ZM44.1115 11.1736C40.6262 18.2518 37.1454 25.3276 33.669 32.4009C31.9882 31.8488 35.3481 23.1084 35.8276 22.1702C35.8395 22.112 38.515 14.1716 38.8674 12.454C38.8803 12.391 38.5273 11.459 38.5236 11.4482L41.1774 9.18132L44.1115 11.1736ZM49.6618 78.7998C47.9898 83.0731 46.0588 85.1393 44.1625 89.8064C42.9387 92.857 39.6121 100.502 39.1701 102.656L37.5806 102.33C35.1818 101.838 38.0336 98.4895 38.7671 96.5468C39.469 94.5395 40.3166 92.579 41.3049 90.6764C43.3222 86.8481 45.3387 82.0035 46.6328 79.2808C49.5856 72.904 53.9088 64.715 58.444 55.9881C61.6977 49.7186 65.1754 42.7063 69.3313 35.9746C72.0884 31.484 74.0025 27.3717 76.3398 24.4029C78.8387 21.2295 81.1247 16.9659 83.9005 13.7837L84.4983 13.785C84.6511 15.4595 85.2195 22.7457 84.5713 23.6897C83.6151 25.0862 81.4895 27.0518 80.101 28.7187C77.1932 32.253 74.8151 35.0416 72.7234 38.2125C68.5526 44.5214 64.9805 51.4689 60.4794 59.1258C57.0985 64.8788 51.8981 73.1457 49.67 78.847L49.6618 78.7998ZM45.3168 96.8892C49.7746 82.1853 59.2634 67.7347 66.8252 53.4956L76.5512 38.851C76.1163 40.9713 69.3459 52.4605 68.722 53.4903C66.8964 56.5591 62.7445 64.9044 61.8815 67.6245C59.9729 73.634 46.4616 96.1482 45.3168 96.8892Z" fill="url(#paint0_linear_1179_16224)"/>
<defs>
<linearGradient id="paint0_linear_1179_16224" x1="70.2685" y1="5.06168" x2="41.9964" y2="142.891" gradientUnits="userSpaceOnUse">
<stop stop-color="#FF9323"/>
<stop offset="1" stop-color="#FFF02E"/>
</linearGradient>
</defs>
</svg>
