<svg width="451" height="175" viewBox="0 0 451 175" fill="none" xmlns="http://www.w3.org/2000/svg">
<path fill-rule="evenodd" clip-rule="evenodd" d="M153.044 171.64L155.814 171.498L196.375 167.376L199.128 167.168L208.391 166.522L209.384 166.57L247.982 161.747L250.744 161.446C273.761 158.935 298.028 153.4 321.308 147.958C337.75 144.117 372.637 133.437 386.086 127.972C485.33 87.6511 465.75 13.1902 353.812 2.24816C286.063 -4.37172 190.31 5.93099 126.55 26.5494C118.516 29.147 108.036 33.2126 99.8845 36.178C89.2342 40.0482 85.9382 42.1582 75.7757 46.335C71.711 48.0085 55.9856 55.7874 52.4157 57.9225C44.9974 62.3543 37.3221 66.605 28.7716 71.9772C13.4637 81.5924 5.39695 92.0322 1.34243 105.117C-1.77318 115.129 1.79858 123.696 6.06449 132.922C10.7805 143.106 19.8151 152.585 32.6068 160.015C52.1468 171.359 71.8857 174.112 102.513 174.273C107.958 174.296 115.459 173.882 120.509 174.002C128.313 174.191 145.447 172.527 153.099 171.692L153.044 171.64ZM25.1645 85.9034C16.8071 93.1364 14.6568 98.2336 8.04353 106.696C4.70986 106.831 10.3649 95.5604 11.7999 93.3227C15.4018 87.6781 19.3718 84.0504 26.1431 78.848C38.2278 69.5649 49.9115 62.854 64.7221 55.4715C81.5856 47.0774 90.6388 42.3311 108.231 36.177C118.306 32.6468 146.838 21.7545 157.004 20.2372C153.847 22.8962 129.906 29.5143 116.965 34.388C92.5967 43.5277 67.4864 56.5462 48.6065 68.7295C39.9947 74.1946 32.1551 79.9275 25.1613 85.8746L25.1645 85.9034ZM391.047 21.7854C397.528 19.6198 425.365 38.3973 428.397 41.1982C437.787 49.8605 439.952 59.0239 437.026 70.498C436.044 74.3542 418.935 93.7209 412.266 98.776C401.071 107.252 389.851 114.953 370.349 120.98C308.909 139.959 233.995 154.228 158.994 159.36C140.621 160.619 119.057 161.051 104.638 161.524C99.8357 161.684 84.9957 159.923 81.1442 159.385C71.1743 157.992 66.221 156.048 57.0382 153.631C42.0074 149.668 26.902 143.302 16.7423 136.095C13.1444 133.536 13.0937 130.809 17.7119 134.662C19.8801 136.429 23.5001 137.741 26.6087 139.527C32.4647 142.866 40.1408 145.053 47.4832 146.625C83.8004 154.398 106.777 155.232 152.604 152.665C165.789 151.927 169.352 151.811 178.981 151.169C187.701 150.607 197.71 149.277 203 149.337C210.911 149.418 236.753 144.197 248.652 142.899L249.628 142.793C268.867 140.694 304.702 131.549 324.589 124.789C358.686 113.212 364.329 111.43 391.348 97.2502C403.352 90.9469 410.029 84.5147 416.315 78.0328C429.646 64.4222 429.065 52.2074 415.227 36.5419C410.903 33.1233 408.127 31.4032 404.313 28.4931C402.643 27.2165 390.667 22.5514 391.097 21.7897L391.047 21.7854ZM369.202 8.05802C384.604 11.163 391.861 12.3117 406.525 18.2543C478.32 47.3798 448.391 109.04 355.595 135.13C330.044 142.293 298.374 151.68 272.639 155.168C253.882 157.7 247.717 159.495 221.888 162.308C201.614 164.519 173.286 166.874 158.483 168.528C111.047 173.818 70.0314 174.499 37.7456 159.586C33.1275 157.454 14.5567 143.949 16.4503 141.116C26.4298 146.49 36.1608 149.766 47.9129 154.096C53.7262 156.229 58.604 156.757 65.6078 158.847C72.6117 160.938 96.7739 164.945 106.765 164.084C113.165 163.536 121.34 164.322 128.124 163.582C132.546 163.1 148.161 162.369 149.918 162.363C161.398 162.205 176.762 160.801 190.809 159.269L193.571 158.968C203.645 157.869 218.077 155.979 231.046 154.175C237.468 153.28 238.011 153.552 249.361 151.842C257.776 150.574 260.067 149.755 271.065 148.074C280.683 146.602 302.974 141.151 309.667 139.755C324.473 136.681 330.85 134.741 343.596 131.61C374.821 123.945 392.689 117.6 411.887 103.359C459.604 67.9478 452.221 43.2825 397.158 19.767C390.631 16.9778 372.066 12.5791 358.879 10.2149C348.412 8.34166 341.709 6.73876 316.14 4.4217C335.227 0.74015 352.153 4.60275 369.241 8.04895L369.202 8.05802ZM201.589 147.084C150.655 152.639 91.1847 153.456 60.0289 146.91C39.1632 142.519 21.9862 137.989 13.3675 125.984C5.30968 114.775 13.8851 105.738 24.3541 92.6002C32.5199 82.344 54.1996 71.1975 69.1514 62.3019C82.7776 54.2025 112.338 44.9486 125.405 40.2314C129.662 38.6924 135.684 37.7584 140.408 36.2415C143.481 35.2595 154.661 32.3527 157.509 31.658C168.804 28.8992 178.988 25.7364 188.383 23.8462C202.321 21.0471 237.555 12.8277 254.764 10.9507L261.206 10.248C280.885 8.10172 315.619 8.97163 334.882 10.3474C358.046 11.9931 379.024 20.043 394.104 26.6307C424.765 43.3984 421.453 60.0301 411.655 77.2331C402.406 90.7827 371.306 104.216 349.909 113.066C338.398 117.827 322.042 122.539 308.503 126.821C282.938 134.856 244.89 142.366 208.042 146.385L201.589 147.084ZM159.513 34.6294C159.513 34.6294 157.742 34.3362 157.615 34.3501C154.453 34.695 146.114 38.5659 145.708 38.6491C142.229 39.3543 138.255 40.8576 133.814 41.8914C129.06 43.0513 124.43 44.3788 119.965 45.8625C118.285 46.4054 108.924 50.1398 107.139 49.9796L107.386 52.2478C114.499 51.1706 126.08 45.244 134.624 43.5196C142.703 41.8847 155.158 38.6249 159.513 34.6294ZM60.9054 79.248C68.0436 73.7867 75.8013 67.5771 87.3162 63.1215L86.0777 61.9097C77.0078 63.9687 56.1448 76.0814 56.418 80.3064L60.9054 79.248ZM157.364 25.1676C165.159 23.2817 221.123 12.0428 226.99 12.5845C226.149 13.2986 199.313 18.6472 194.425 19.5693C183.779 21.5765 174.978 24.0148 164.418 26.6254C155.262 28.8932 147.083 31.6962 136.066 34.3809C129.332 36.0296 126.499 37.2236 120.721 38.5784C115.759 39.7274 110.027 43.0513 106.357 42.7223C108.516 40.8772 126.834 34.9502 132.949 32.3334C140.12 29.256 147.857 27.4689 157.374 25.1665L157.364 25.1676ZM143.218 141.498C139.612 139.412 121.152 140.691 116.165 141.235C101.357 142.85 74.9693 138.726 60.7951 137.636C61.9502 141.707 96.7576 141.343 101.137 142.106C105.163 142.79 138.76 142.918 143.218 141.498ZM34.1805 108.976C34.7089 108.568 35.247 108.159 35.7857 107.755C36.3383 104.942 40.064 101.701 38.9664 99.7883L36.1872 99.9359C35.9815 101.762 32.209 105.48 31.2692 107.912L34.1805 108.976ZM43.2012 95.9615L48.9331 90.3764C48.3463 90.1584 47.7688 89.9344 47.1815 89.7116L44.8145 89.926C42.196 93.0855 41.113 92.2116 39.5186 96.3388L43.2012 95.9615ZM389.674 53.202L385.973 52.1468C387.695 60.9598 385.565 71.219 381.273 77.7848C377.885 82.9489 360.007 98.5192 349.386 101.112C352.88 105.253 373.602 89.7668 376.795 86.2626C380.526 82.1649 383.022 80.6867 386.143 76.1595C391.534 68.3506 390.049 61.0823 389.674 53.202ZM385.33 46.2505C386.282 45.0186 379.113 37.5194 378.135 36.3375C375.858 33.5758 374.107 31.8267 367.834 28.7471C360.197 25.0141 360.969 22.7611 351.081 21.1262C342.511 19.7122 330.06 14.8559 318.034 18.701C318.646 19.0574 324.369 18.7394 329.974 19.4994C337.702 20.5335 346.126 22.6927 349.24 23.0872C355.674 23.9319 355.284 24.8886 359.211 26.9353C364.45 29.6851 371.042 31.1641 374.516 36.1196C376.118 38.4053 382.536 47.168 385.29 46.2404L385.33 46.2505ZM166.179 34.1698C168.079 33.4763 184.84 28.6722 189.525 28.1612C199.286 27.0965 197.075 26.5645 202.901 24.8253C205.052 24.1773 215.111 23.2163 216.973 22.9889L231.562 20.3668C234.196 19.885 234.365 19.7158 236.191 19.6139L255.309 15.9436C252.557 14.3522 247.38 15.6997 242.331 16.4984L238.635 16.8431C234.484 17.4515 236.01 17.5914 232.233 18.0034C227.85 18.4814 204.848 23.1153 199.174 24.5267C195.094 25.5211 185.287 26.6151 181.442 27.8515C175.897 29.633 167.687 31.5156 161.999 33.7017L166.184 34.2178L166.179 34.1698ZM294.577 119.952C296.529 119.739 304.914 116.466 310.825 114.966C315.525 113.777 323.132 112.792 323.294 109.934C314.859 112.926 294.538 116.509 290.799 119.902C291.098 119.928 294.521 119.982 294.541 119.98L294.577 119.952Z" fill="url(#paint0_linear_1179_16063)"/>
<defs>
<linearGradient id="paint0_linear_1179_16063" x1="209.819" y1="7.33153" x2="229.575" y2="188.464" gradientUnits="userSpaceOnUse">
<stop stop-color="#FF9323"/>
<stop offset="1" stop-color="#FFF02E"/>
</linearGradient>
</defs>
</svg>
