<svg width="87" height="89" viewBox="0 0 87 89" fill="none" xmlns="http://www.w3.org/2000/svg">
<path fill-rule="evenodd" clip-rule="evenodd" d="M50.3472 43.1801C54.4266 42.9276 60.3365 39.6613 63.5284 38.3665C58.8007 31.3976 49.321 7.87823 43.4765 1.68817C39.2566 0.925327 37.4156 1.02723 34.6552 0.211806C23.1947 3.62714 12.346 10.3099 0.781082 13.3387C2.32006 15.5819 4.28413 18.4127 5.77894 20.2166C9.11415 24.2399 16.5427 33.2759 21.9293 37.6939C15.7541 38.7151 9.579 39.7338 3.40404 40.7498C3.30171 44.2603 15.4822 52.9703 18.2457 54.9874C23.1472 58.5622 30.5754 60.8687 34.7159 64.7926C33.0787 65.2986 29.2521 65.9177 25.2735 66.4564C30.8524 72.2713 49.3203 77.821 56.7363 81.3179C62.1718 83.8804 66.9229 85.6386 72.0438 86.8279C77.5976 88.1229 81.4333 88.3263 86.9847 88.6437C83.1629 85.0261 79.507 81.4684 75.3923 78.1622C72.5129 75.8397 68.8511 70.6007 64.8284 68.4526C66.1866 66.6039 73.6393 66.2819 76.3319 65.6847C74.8636 63.0888 72.4835 61.7076 70.3634 59.7396C68.9678 58.4432 65.5567 56.4692 63.8208 54.6364C62.4829 53.224 58.7631 50.1694 57.0986 48.9958C55.7155 48.0188 50.2731 44.7657 50.3424 43.1693L50.3472 43.1801ZM53.781 35.522C56.8977 35.6572 58.0628 35.7078 60.0232 36.0748C56.4407 28.2782 50.3302 15.8925 43.917 5.74392C43.1075 4.84455 38.6631 4.3987 37.7627 4.13828C41.9806 16.2363 49.536 24.9589 53.7916 35.5224L53.781 35.522ZM38.1696 41.0784C42.7467 39.5012 47.8628 37.4626 52.6396 36.5659C46.0242 26.0976 41.4748 16.902 33.5412 4.26332C25.3629 8.55362 14.2715 11.1155 6.73151 15.6943C10.9211 21.8284 14.9888 27.1877 19.9589 32.7022C20.8294 33.5304 25.1398 37.4274 26.9497 39.0131C21.0786 41.4459 13.1015 39.9482 6.1193 42.4829C9.60454 48.2096 25.7043 57.0791 32.4671 60.7532C34.8534 62.0504 38.9627 63.9652 39.8408 66.3773C37.9185 66.4098 33.3217 67.5303 31.3993 67.5655C33.202 70.7133 49.1978 75.5444 53.2866 77.0788C58.2675 78.9445 68.1748 83.751 73.5717 83.9853C72.0107 82.3709 69.9637 81.2676 68.1383 79.7971C63.8115 76.2762 55.9807 71.4702 53.359 67.0352C56.5295 66.1716 60.2899 65.1965 63.4526 64.3326L63.4945 63.8522C59.3221 62.5434 53.7562 57.5195 51.2573 54.871C49.2416 52.7441 47.8264 51.7763 45.5772 49.3231C43.6398 47.2127 40.5206 44.4056 38.1619 41.0755L38.1696 41.0784ZM71.7359 63.3905C70.8311 63.3512 69.1669 63.993 67.8735 64.0449C67.7894 65.9805 72.0551 64.8377 73.0538 64.5332C72.7611 64.0542 72.507 63.4134 71.7363 63.38L71.7359 63.3905ZM70.701 61.9781C64.7335 64.1431 66.543 62.2192 62.2117 60.0787C60.4059 59.1861 57.5997 57.0592 55.2638 55.145C52.9279 53.2308 42.3896 43.4776 42.3041 41.3185L59.3928 37.4835C59.8634 38.7845 49.4748 42.4545 47.9205 43.1142C48.1121 45.9234 69.791 60.4815 70.701 61.9781ZM61.4332 66.9641C60.0816 67.1426 59.1203 67.7991 56.843 67.7529C60.2566 71.063 64.258 74.4907 68.2075 77.1099C69.1758 77.7501 79.232 84.1625 80.1361 84.2781L71.6083 76.8307C70.6789 75.963 63.3846 70.6322 61.4332 66.9641Z" fill="#E8B324"/>
<path fill-rule="evenodd" clip-rule="evenodd" d="M50.3472 43.1801C54.4266 42.9276 60.3365 39.6613 63.5284 38.3665C58.8007 31.3976 49.321 7.87823 43.4765 1.68817C39.2566 0.925327 37.4156 1.02723 34.6552 0.211806C23.1947 3.62714 12.346 10.3099 0.781082 13.3387C2.32006 15.5819 4.28413 18.4127 5.77894 20.2166C9.11415 24.2399 16.5427 33.2759 21.9293 37.6939C15.7541 38.7151 9.579 39.7338 3.40404 40.7498C3.30171 44.2603 15.4822 52.9703 18.2457 54.9874C23.1472 58.5622 30.5754 60.8687 34.7159 64.7926C33.0787 65.2986 29.2521 65.9177 25.2735 66.4564C30.8524 72.2713 49.3203 77.821 56.7363 81.3179C62.1718 83.8804 66.9229 85.6386 72.0438 86.8279C77.5976 88.1229 81.4333 88.3263 86.9847 88.6437C83.1629 85.0261 79.507 81.4684 75.3923 78.1622C72.5129 75.8397 68.8511 70.6007 64.8284 68.4526C66.1866 66.6039 73.6393 66.2819 76.3319 65.6847C74.8636 63.0888 72.4835 61.7076 70.3634 59.7396C68.9678 58.4432 65.5567 56.4692 63.8208 54.6364C62.4829 53.224 58.7631 50.1694 57.0986 48.9958C55.7155 48.0188 50.2731 44.7657 50.3424 43.1693L50.3472 43.1801ZM53.781 35.522C56.8977 35.6572 58.0628 35.7078 60.0232 36.0748C56.4407 28.2782 50.3302 15.8925 43.917 5.74392C43.1075 4.84455 38.6631 4.3987 37.7627 4.13828C41.9806 16.2363 49.536 24.9589 53.7916 35.5224L53.781 35.522ZM38.1696 41.0784C42.7467 39.5012 47.8628 37.4626 52.6396 36.5659C46.0242 26.0976 41.4748 16.902 33.5412 4.26332C25.3629 8.55362 14.2715 11.1155 6.73151 15.6943C10.9211 21.8284 14.9888 27.1877 19.9589 32.7022C20.8294 33.5304 25.1398 37.4274 26.9497 39.0131C21.0786 41.4459 13.1015 39.9482 6.1193 42.4829C9.60454 48.2096 25.7043 57.0791 32.4671 60.7532C34.8534 62.0504 38.9627 63.9652 39.8408 66.3773C37.9185 66.4098 33.3217 67.5303 31.3993 67.5655C33.202 70.7133 49.1978 75.5444 53.2866 77.0788C58.2675 78.9445 68.1748 83.751 73.5717 83.9853C72.0107 82.3709 69.9637 81.2676 68.1383 79.7971C63.8115 76.2762 55.9807 71.4702 53.359 67.0352C56.5295 66.1716 60.2899 65.1965 63.4526 64.3326L63.4945 63.8522C59.3221 62.5434 53.7562 57.5195 51.2573 54.871C49.2416 52.7441 47.8264 51.7763 45.5772 49.3231C43.6398 47.2127 40.5206 44.4056 38.1619 41.0755L38.1696 41.0784ZM71.7359 63.3905C70.8311 63.3512 69.1669 63.993 67.8735 64.0449C67.7894 65.9805 72.0551 64.8377 73.0538 64.5332C72.7611 64.0542 72.507 63.4134 71.7363 63.38L71.7359 63.3905ZM70.701 61.9781C64.7335 64.1431 66.543 62.2192 62.2117 60.0787C60.4059 59.1861 57.5997 57.0592 55.2638 55.145C52.9279 53.2308 42.3896 43.4776 42.3041 41.3185L59.3928 37.4835C59.8634 38.7845 49.4748 42.4545 47.9205 43.1142C48.1121 45.9234 69.791 60.4815 70.701 61.9781ZM61.4332 66.9641C60.0816 67.1426 59.1203 67.7991 56.843 67.7529C60.2566 71.063 64.258 74.4907 68.2075 77.1099C69.1758 77.7501 79.232 84.1625 80.1361 84.2781L71.6083 76.8307C70.6789 75.963 63.3846 70.6322 61.4332 66.9641Z" fill="url(#paint0_linear_1179_16225)"/>
<defs>
<linearGradient id="paint0_linear_1179_16225" x1="-0.453079" y1="41.7681" x2="88.8514" y2="45.6449" gradientUnits="userSpaceOnUse">
<stop stop-color="#FF9323"/>
<stop offset="1" stop-color="#FFF02E"/>
</linearGradient>
</defs>
</svg>
