<svg width="36" height="40" viewBox="0 0 36 40" fill="none" xmlns="http://www.w3.org/2000/svg">
<path fill-rule="evenodd" clip-rule="evenodd" d="M32.8119 5.95062C33.6195 8.34462 33.3424 8.56366 31.6141 10.9918C30.7394 12.2175 29.1636 14.1145 28.085 15.5378C28.5678 16.969 31.316 20.9626 31.991 21.9135C32.892 23.1715 36.7818 26.9121 35.2283 28.035C35.2055 28.1297 23.5941 29.309 22.4892 26.0814L15.1706 39.7663L14.9102 39.8058C14.5407 35.6238 14.1725 31.4425 13.8056 27.2618L0.122261 22.4804C0.236775 20.5096 2.4222 19.8948 4.14915 18.9806C6.29701 17.844 8.29487 16.3199 10.4416 15.1514C11.529 14.556 11.3454 10.1932 11.5571 8.42472C11.822 6.11661 11.9874 3.80019 12.2136 1.49222C12.707 -3.5272 20.1369 7.33735 20.4258 7.98378C21.2925 9.91343 24.2316 8.22004 26.1181 7.67388C28.2505 7.06411 30.6558 6.94838 32.8051 5.94968L32.8119 5.95062ZM9.6239 23.9159C9.58958 24.0338 9.55914 24.1536 9.52482 24.2714L13.7192 25.7549L13.7296 24.6307L10.8028 24.1076C10.7911 24.0729 10.7997 24.0314 10.7995 23.9928L9.62584 23.9217L9.6239 23.9159ZM13.9284 13.6018L14.1722 12.9592C13.9183 9.60988 13.6611 6.25411 13.4007 2.89193C12.9345 3.65783 12.0569 13.2283 12.6088 13.757C13.3015 13.9678 13.4488 13.6025 13.9284 13.6018ZM14.6524 2.38278C14.2205 4.92114 16.0291 13.0317 14.908 14.9974C13.787 16.9631 5.33929 20.4083 4.91725 21.6585C6.42889 22.1421 7.99836 22.4218 9.58403 22.4899C12.5086 22.682 11.4668 23.0496 14.366 22.3454C14.9167 26.1099 15.469 29.8727 16.0229 33.634L16.2918 33.5432C18.2537 29.8125 19.9068 23.8867 23.0893 22.2755C24.2009 23.604 31.0001 26.2603 32.6529 25.9089L32.823 25.7162C30.4747 23.0003 28.1271 20.2864 25.7802 17.5743L25.4208 17.4637L30.6592 8.96314C30.6714 8.88494 30.6808 8.80769 30.6892 8.72757L21.3668 11.5275L14.6562 2.37504L14.6524 2.38278Z" fill="url(#paint0_linear_1179_16227)"/>
<defs>
<linearGradient id="paint0_linear_1179_16227" x1="16.3845" y1="5.23599" x2="38.994" y2="9.95501" gradientUnits="userSpaceOnUse">
<stop stop-color="#FF8200"/>
<stop offset="1" stop-color="#FFF02E"/>
</linearGradient>
</defs>
</svg>
