<svg width="36" height="41" viewBox="0 0 36 41" fill="none" xmlns="http://www.w3.org/2000/svg">
<path fill-rule="evenodd" clip-rule="evenodd" d="M2.92017 6.55792C2.11256 8.95192 2.3897 9.17096 4.11798 11.5991C4.99269 12.8248 6.56845 14.7218 7.64703 16.1451C7.16423 17.5763 4.41609 21.5699 3.74104 22.5208C2.84005 23.7788 -1.04976 27.5194 0.503712 28.6423C0.526533 28.737 12.1379 29.9163 13.2428 26.6887L20.5615 40.3736L20.8219 40.4131C21.1913 36.2311 21.5595 32.0498 21.9264 27.8691L35.6098 23.0877C35.4953 21.1169 33.3099 20.5021 31.5829 19.5879C29.4351 18.4513 27.4372 16.9272 25.2904 15.7587C24.2031 15.1633 24.3866 10.8005 24.1749 9.03202C23.9101 6.72391 23.7447 4.40749 23.5185 2.09952C23.025 -2.9199 15.5952 7.94465 15.3063 8.59108C14.4395 10.5207 11.5005 8.82734 9.61393 8.28118C7.48156 7.67141 5.07624 7.55568 2.92693 6.55698L2.92017 6.55792ZM26.1082 24.5232C26.1425 24.6411 26.1729 24.7609 26.2072 24.8787L22.0129 26.3622L22.0025 25.238L24.9292 24.7149C24.9409 24.6802 24.9324 24.6387 24.9325 24.6001L26.1062 24.529L26.1082 24.5232ZM21.8037 14.2091L21.5599 13.5665C21.8138 10.2172 22.071 6.86141 22.3314 3.49923C22.7976 4.26513 23.6752 13.8356 23.1232 14.3643C22.4306 14.5751 22.2833 14.2098 21.8037 14.2091ZM21.0797 2.99008C21.5116 5.52844 19.703 13.639 20.824 15.6047C21.945 17.5704 30.3928 21.0156 30.8148 22.2658C29.3032 22.7494 27.7337 23.0291 26.148 23.0972C23.2234 23.2893 24.2652 23.6569 21.366 22.9527C20.8153 26.7172 20.2631 30.48 19.7092 34.2413L19.4403 34.1505C17.4783 30.4198 15.8253 24.494 12.6428 22.8828C11.5311 24.2113 4.73193 26.8676 3.0792 26.5162L2.90908 26.3235C5.25732 23.6076 7.60491 20.8937 9.95185 18.1816L10.3112 18.071L5.07288 9.57044C5.06061 9.49224 5.05124 9.41499 5.04284 9.33487L14.3652 12.1348L21.0758 2.98234L21.0797 2.99008Z" fill="url(#paint0_linear_1179_16226)"/>
<defs>
<linearGradient id="paint0_linear_1179_16226" x1="19.3475" y1="5.84329" x2="-3.26193" y2="10.5623" gradientUnits="userSpaceOnUse">
<stop stop-color="#FF8200"/>
<stop offset="1" stop-color="#FFF02E"/>
</linearGradient>
</defs>
</svg>
