<svg width="87" height="95" viewBox="0 0 87 95" fill="none" xmlns="http://www.w3.org/2000/svg">
<path d="M9.45584 92.9048L1.75164 1.8395L85.1921 12.1144L80.3109 80.8522L9.45584 92.9048Z" fill="#1F2020" stroke="url(#paint0_linear_1195_21891)" stroke-width="3.184"/>
<path fill-rule="evenodd" clip-rule="evenodd" d="M32.3135 34.5065C32.3135 28.1641 37.4775 23 43.8199 23C50.1624 23 55.3377 28.1641 55.3377 34.5065C55.3377 40.849 50.1624 46.0242 43.8199 46.0242C37.4775 46.0242 32.3135 40.849 32.3135 34.5065ZM22 66.2075C22 57.1148 27.6544 49.335 35.6262 46.1576C37.8283 47.8867 40.5921 48.9295 43.5904 48.9295C46.5882 48.9295 49.3534 47.886 51.5575 46.1576C59.528 49.3356 65.1809 57.1158 65.1809 66.2075C65.1823 66.5893 65.0321 66.9559 64.7632 67.2269C64.4944 67.4979 64.1289 67.651 63.7471 67.6525H23.445C23.255 67.6532 23.0668 67.6163 22.8912 67.544C22.7155 67.4716 22.5559 67.3652 22.4216 67.2309C22.2873 67.0966 22.1809 66.937 22.1085 66.7613C22.0362 66.5857 21.9993 66.3975 22 66.2075Z" fill="url(#paint1_linear_1195_21891)"/>
<defs>
<linearGradient id="paint0_linear_1195_21891" x1="191.618" y1="7.42665" x2="191.643" y2="116.722" gradientUnits="userSpaceOnUse">
<stop stop-color="#FF9323"/>
<stop offset="1" stop-color="#FFF02E"/>
</linearGradient>
<linearGradient id="paint1_linear_1195_21891" x1="54.5" y1="23" x2="32" y2="68" gradientUnits="userSpaceOnUse">
<stop stop-color="#FF9323"/>
<stop offset="1" stop-color="#FFF02E"/>
</linearGradient>
</defs>
</svg>
