<svg width="37" height="39" viewBox="0 0 37 39" fill="none" xmlns="http://www.w3.org/2000/svg">
<path d="M1.80302 37.7545L0.712714 0.699817L36.3362 5.90354L35.6537 33.8432L1.80302 37.7545Z" fill="#1F2020" stroke="url(#paint0_linear_1175_6839)" stroke-width="1.19037"/>
<path d="M29.8943 20.0399V28.2291H25.1684V20.5393C25.1684 18.6418 24.4792 17.3436 22.8054 17.3436C21.5255 17.3436 20.7378 18.2423 20.4424 19.0413C20.344 19.3409 20.2455 19.7404 20.2455 20.2397V28.2291H15.5196C15.5196 28.2291 15.618 15.2464 15.5196 13.9481H20.2455V15.9454C20.8363 14.9467 22.0178 13.5486 24.4792 13.5486C27.5313 13.5486 29.8943 15.6458 29.8943 20.0399ZM10.5967 7.05725C9.02138 7.05725 7.93835 8.15579 7.93835 9.55393C7.93835 10.9521 8.92292 12.0506 10.4982 12.0506C12.172 12.0506 13.1566 10.9521 13.1566 9.55393C13.255 8.05592 12.2705 7.05725 10.5967 7.05725ZM8.23373 28.2291H12.9597V13.9481H8.23373V28.2291Z" fill="url(#paint1_linear_1175_6839)"/>
<defs>
<linearGradient id="paint0_linear_1175_6839" x1="26.9805" y1="3.02278" x2="26.9905" y2="47.333" gradientUnits="userSpaceOnUse">
<stop stop-color="#FF9323"/>
<stop offset="1" stop-color="#FFF02E"/>
</linearGradient>
<linearGradient id="paint1_linear_1175_6839" x1="27.5419" y1="7.05725" x2="10.4563" y2="21.7161" gradientUnits="userSpaceOnUse">
<stop stop-color="#FF9323"/>
<stop offset="1" stop-color="#FFF02E"/>
</linearGradient>
</defs>
</svg>
