<svg width="37" height="39" viewBox="0 0 37 39" fill="none" xmlns="http://www.w3.org/2000/svg">
<path d="M1.8516 37.7545L0.761298 0.699817L36.3848 5.90354L35.7023 33.8432L1.8516 37.7545Z" fill="#1F2020" stroke="url(#paint0_linear_1175_6836)" stroke-width="1.19037"/>
<path d="M15.0448 19.2115C15.0448 17.2627 16.6241 15.6825 18.5728 15.6825C20.5216 15.6825 22.1018 17.2627 22.1018 19.2115C22.1018 21.1602 20.5216 22.7404 18.5728 22.7404C16.6241 22.7404 15.0448 21.1602 15.0448 19.2115ZM13.1371 19.2115C13.1371 22.2136 15.5707 24.6472 18.5728 24.6472C21.575 24.6472 24.0086 22.2136 24.0086 19.2115C24.0086 16.2093 21.575 13.7757 18.5728 13.7757C15.5707 13.7757 13.1371 16.2093 13.1371 19.2115ZM22.9535 13.5602C22.9534 13.8114 23.0278 14.0571 23.1672 14.266C23.3068 14.475 23.5051 14.6379 23.7372 14.7341C23.9692 14.8303 24.2246 14.8556 24.4711 14.8067C24.7175 14.7578 24.9439 14.6369 25.1217 14.4593C25.2994 14.2817 25.4205 14.0554 25.4696 13.809C25.5187 13.5626 25.4936 13.3072 25.3976 13.075C25.3015 12.8429 25.1388 12.6444 24.9299 12.5048C24.7211 12.3651 24.4755 12.2905 24.2243 12.2904H24.2238C23.887 12.2905 23.564 12.4244 23.3259 12.6624C23.0877 12.9006 22.9537 13.2234 22.9535 13.5602ZM14.2961 27.8281C13.264 27.7811 12.7031 27.6092 12.3303 27.464C11.8361 27.2716 11.4834 27.0424 11.1127 26.6721C10.7419 26.3019 10.5124 25.9496 10.3208 25.4553C10.1755 25.0827 10.0036 24.5216 9.95668 23.4895C9.90536 22.3737 9.89511 22.0385 9.89511 19.2115C9.89511 16.3846 9.9062 16.0503 9.95668 14.9335C10.0037 13.9015 10.1769 13.3414 10.3208 12.9677C10.5132 12.4735 10.7424 12.1208 11.1127 11.7501C11.4829 11.3793 11.8352 11.1498 12.3303 10.9583C12.7029 10.8129 13.264 10.641 14.2961 10.5941C15.412 10.5428 15.7472 10.5325 18.5728 10.5325C21.3985 10.5325 21.734 10.5436 22.8508 10.5941C23.8829 10.6411 24.443 10.8143 24.8167 10.9583C25.3109 11.1498 25.6635 11.3798 26.0343 11.7501C26.405 12.1203 26.6337 12.4735 26.8261 12.9677C26.9714 13.3403 27.1434 13.9015 27.1903 14.9335C27.2416 16.0503 27.2518 16.3846 27.2518 19.2115C27.2518 22.0385 27.2416 22.3727 27.1903 23.4895C27.1433 24.5216 26.9705 25.0826 26.8261 25.4553C26.6337 25.9496 26.4045 26.3022 26.0343 26.6721C25.664 27.0421 25.3109 27.2716 24.8167 27.464C24.444 27.6093 23.8829 27.7812 22.8508 27.8281C21.735 27.8794 21.3998 27.8897 18.5728 27.8897C15.7459 27.8897 15.4116 27.8794 14.2961 27.8281ZM14.2085 8.68966C13.0815 8.74098 12.3115 8.91967 11.639 9.18135C10.9425 9.45159 10.3529 9.81413 9.76376 10.4024C9.17459 10.9906 8.81298 11.5811 8.54274 12.2776C8.28106 12.9505 8.10237 13.7201 8.05105 14.8471C7.99888 15.9758 7.98694 16.3367 7.98694 19.2115C7.98694 22.0863 7.99888 22.4471 8.05105 23.5758C8.10237 24.7028 8.28106 25.4724 8.54274 26.1453C8.81298 26.8414 9.17468 27.4325 9.76376 28.0205C10.3528 28.6085 10.9425 28.9706 11.639 29.2416C12.3128 29.5032 13.0815 29.6819 14.2085 29.7333C15.3378 29.7846 15.698 29.7974 18.5728 29.7974C21.4476 29.7974 21.8085 29.7854 22.9372 29.7333C24.0642 29.6819 24.8338 29.5032 25.5067 29.2416C26.2027 28.9706 26.7927 28.6088 27.3819 28.0205C27.9711 27.4323 28.3319 26.8414 28.6029 26.1453C28.8646 25.4724 29.0442 24.7028 29.0946 23.5758C29.146 22.4463 29.1579 22.0863 29.1579 19.2115C29.1579 16.3367 29.146 15.9758 29.0946 14.8471C29.0433 13.7201 28.8646 12.9501 28.6029 12.2776C28.3319 11.5816 27.9701 10.9915 27.3819 10.4024C26.7937 9.8132 26.2027 9.45159 25.5075 9.18135C24.8338 8.91967 24.0641 8.74013 22.9381 8.68966C21.8093 8.63834 21.4485 8.62555 18.5737 8.62555C15.6989 8.62555 15.3378 8.63749 14.2085 8.68966Z" fill="url(#paint1_linear_1175_6836)"/>
<defs>
<linearGradient id="paint0_linear_1175_6836" x1="27.0291" y1="3.02278" x2="27.0391" y2="47.333" gradientUnits="userSpaceOnUse">
<stop stop-color="#FF9323"/>
<stop offset="1" stop-color="#FFF02E"/>
</linearGradient>
<linearGradient id="paint1_linear_1175_6836" x1="26.8896" y1="8.62555" x2="9.90927" y2="22.6732" gradientUnits="userSpaceOnUse">
<stop stop-color="#FF9323"/>
<stop offset="1" stop-color="#FFF02E"/>
</linearGradient>
</defs>
</svg>
