<svg width="37" height="39" viewBox="0 0 37 39" fill="none" xmlns="http://www.w3.org/2000/svg">
<path d="M1.70609 37.7545L0.61579 0.699817L36.2392 5.90354L35.5568 33.8432L1.70609 37.7545Z" fill="#1F2020" stroke="url(#paint0_linear_1175_6845)" stroke-width="1.19037"/>
<path fill-rule="evenodd" clip-rule="evenodd" d="M16.4105 8.90262C16.7318 9.03502 17.041 9.1934 17.3349 9.37581C17.6888 9.33844 18.0451 9.31989 18.4023 9.32048C19.7163 9.318 21.0179 9.5744 22.2328 10.075C23.4477 10.5757 24.5521 11.3107 25.4829 12.2382C26.4137 13.1657 27.1527 14.2675 27.6576 15.4806C28.1625 16.6938 28.4235 17.9945 28.4257 19.3085C28.4248 19.7766 28.3911 20.2413 28.3259 20.6995C28.8519 21.634 29.1363 22.6958 29.1383 23.7872C29.143 25.0403 28.7756 26.2667 28.0827 27.311C27.3898 28.3552 26.4026 29.1703 25.2461 29.653C24.0896 30.1357 22.8158 30.2643 21.5862 30.0225C20.8599 29.8797 20.1683 29.6114 19.5408 29.2335C19.1647 29.2759 18.7846 29.2972 18.4023 29.2965C15.7491 29.3003 13.203 28.2502 11.3239 26.3773C9.44467 24.5043 8.38623 21.9617 8.38123 19.3085C8.38204 18.8164 8.41915 18.3262 8.49177 17.8418C7.95744 16.9017 7.66844 15.8314 7.66638 14.7311C7.66951 13.0562 8.33768 11.4512 9.52396 10.2689C10.7102 9.08658 12.3175 8.42381 13.9924 8.42631C14.8219 8.42476 15.6435 8.58661 16.4105 8.90262ZM14.5985 17.9187C14.8423 18.3379 15.1799 18.6949 15.5848 18.9616L15.5919 18.971C16.1295 19.321 16.7001 19.6174 17.2955 19.8559C17.9609 20.1343 18.4777 20.3703 18.8458 20.5637C19.1567 20.7156 19.4386 20.9209 19.6787 21.1701C19.859 21.3619 19.9602 21.6148 19.9618 21.878C19.9696 22.0655 19.9326 22.2521 19.8538 22.4225C19.775 22.5928 19.6567 22.7418 19.5088 22.8572C19.1148 23.1235 18.6429 23.2498 18.1686 23.2159C17.6824 23.22 17.2006 23.1244 16.7528 22.9351C16.5782 22.8596 16.3375 22.7463 16.0332 22.593C15.7882 22.4625 15.5155 22.3929 15.238 22.39C14.9896 22.3789 14.7464 22.4634 14.5584 22.626C14.4694 22.7115 14.3999 22.8152 14.3547 22.93C14.3095 23.0449 14.2897 23.1682 14.2965 23.2914C14.2898 23.5254 14.3603 23.755 14.4971 23.945C14.6615 24.1495 14.8727 24.3114 15.1129 24.4169C16.0572 24.8264 17.081 25.0198 18.1096 24.9832C18.8584 24.9992 19.6038 24.8776 20.3087 24.6245C20.8939 24.4171 21.4034 24.0391 21.7716 23.5392C22.1332 23.0118 22.3167 22.3826 22.2954 21.7435C22.3096 21.2211 22.179 20.705 21.9179 20.2523C21.6524 19.8213 21.2946 19.4546 20.8703 19.1787C20.3346 18.8316 19.7654 18.5391 19.1714 18.3056C19.1082 18.2741 19.0427 18.2472 18.9755 18.2254C18.3668 17.9753 17.909 17.7724 17.6023 17.6214C17.329 17.4921 17.0812 17.3146 16.8708 17.0975C16.6941 16.912 16.5967 16.6648 16.5994 16.4086C16.5915 16.2134 16.6359 16.0198 16.728 15.8476C16.8201 15.6754 16.9566 15.531 17.1233 15.4293C17.5183 15.1936 17.9731 15.0772 18.4328 15.0943C18.7855 15.0912 19.137 15.1348 19.4781 15.2241C19.8494 15.3319 20.2128 15.4652 20.5659 15.6228C20.7084 15.6895 20.8639 15.7241 21.0213 15.7243C21.1357 15.7272 21.2494 15.706 21.3551 15.6621C21.4608 15.6182 21.5561 15.5526 21.6348 15.4695C21.7983 15.2847 21.883 15.0433 21.8707 14.797C21.8735 14.5599 21.7896 14.33 21.6348 14.1504C21.425 13.9355 21.1669 13.7737 20.8821 13.6785C20.5714 13.5654 20.2506 13.4824 19.9241 13.4308C19.4663 13.3554 19.0029 13.3199 18.539 13.3246C17.8302 13.3207 17.1261 13.4396 16.4579 13.6762C15.8437 13.883 15.2957 14.2494 14.8699 14.738C14.4597 15.224 14.2423 15.8436 14.2588 16.4793C14.2451 16.9805 14.3622 17.4766 14.5985 17.9187Z" fill="url(#paint1_linear_1175_6845)"/>
<defs>
<linearGradient id="paint0_linear_1175_6845" x1="26.8835" y1="3.02278" x2="26.8936" y2="47.333" gradientUnits="userSpaceOnUse">
<stop stop-color="#FF9323"/>
<stop offset="1" stop-color="#FFF02E"/>
</linearGradient>
<linearGradient id="paint1_linear_1175_6845" x1="10.1378" y1="10.3566" x2="10.1197" y2="23.392" gradientUnits="userSpaceOnUse">
<stop stop-color="#FF9323"/>
<stop offset="1" stop-color="#FFF02E"/>
</linearGradient>
</defs>
</svg>
