<svg width="37" height="41" viewBox="0 0 37 41" fill="none" xmlns="http://www.w3.org/2000/svg">
<path d="M1.98403 40.056L0.70423 0.742169L36.2662 5.91761L35.4633 35.5795L1.98403 40.056Z" fill="#1F2020" stroke="url(#paint0_linear_1175_6842)" stroke-width="1.26334"/>
<path d="M12.5977 21.9738L7.31237 20.2412C7.31237 20.2412 6.67055 19.9836 6.88235 19.4006C6.92407 19.2815 7.01072 19.1784 7.26103 19.0013C8.43234 18.1833 28.9416 10.7859 28.9416 10.7859C29.2371 10.6814 29.5551 10.6581 29.8626 10.7183C29.9471 10.7454 30.0232 10.7941 30.0834 10.8596C30.1436 10.9251 30.1858 11.0051 30.206 11.0918C30.2419 11.2447 30.257 11.4018 30.2509 11.5588C30.2509 11.6973 30.2316 11.8229 30.2188 12.0225C30.0936 14.045 26.3679 29.1394 26.3679 29.1394C26.3679 29.1394 26.1433 30.0218 25.341 30.0507C25.1444 30.0578 24.9484 30.025 24.7648 29.9542C24.5811 29.8833 24.4136 29.776 24.2724 29.6386C22.6999 28.2795 17.2637 24.6146 16.0635 23.8095C16.0365 23.7905 16.0137 23.7662 15.9966 23.7379C15.9794 23.7096 15.9684 23.678 15.9641 23.6452C15.948 23.5615 16.0411 23.4552 16.0411 23.4552C16.0411 23.4552 25.5047 15.0143 25.755 14.1158C25.7742 14.0482 25.7004 14.0128 25.6009 14.0418C24.9591 14.2736 14.0771 21.1784 12.8737 21.9416C12.7858 21.9751 12.691 21.9862 12.5977 21.9738Z" fill="url(#paint1_linear_1175_6842)"/>
<defs>
<linearGradient id="paint0_linear_1175_6842" x1="31.6375" y1="3.20688" x2="31.6481" y2="50.2331" gradientUnits="userSpaceOnUse">
<stop stop-color="#FF9323"/>
<stop offset="1" stop-color="#FFF02E"/>
</linearGradient>
<linearGradient id="paint1_linear_1175_6842" x1="9.53433" y1="12.4071" x2="9.52107" y2="24.0324" gradientUnits="userSpaceOnUse">
<stop stop-color="#FF9323"/>
<stop offset="1" stop-color="#FFF02E"/>
</linearGradient>
</defs>
</svg>
