<svg width="172" height="166" viewBox="0 0 172 166" fill="none" xmlns="http://www.w3.org/2000/svg">
<path fill-rule="evenodd" clip-rule="evenodd" d="M110.978 104.866C111.627 105.29 112.755 106.683 113.102 106.925C113.812 107.42 114.572 107.868 115.403 108.493C120.593 112.383 127.975 113.497 132.617 115.412C129.979 117.326 119.285 117.724 115.923 117.833C113.203 117.922 109.648 118.037 106.575 117.25C104.834 116.806 97.6591 116.088 94.5561 114.235C84.2362 120.179 71.7903 126.703 60.6791 130.838C52.0505 134.061 48.2949 131.328 43.0711 123.6C40.0241 119.094 34.4139 110.217 30.6074 104.545C29.0494 102.228 19.6635 87.977 17.9519 82.7887C16.9423 79.7322 16.0524 76.3728 14.7257 73.4513C12.8922 69.4294 13.9965 65.6839 17.2417 63.7325C21.2521 61.3063 32.2001 57.0001 35.8931 55.9723C41.7728 54.3312 49.5998 51.1856 56.2923 49.2772C60.9283 47.9693 69.5211 44.9891 75.2898 43.011C78.2027 42.0121 81.6339 40.9332 83.9185 40.4222C85.4875 40.0717 91.774 38.3101 93.6366 37.4288C99.1001 34.842 107.191 32.8211 113.249 32.0507C117.189 31.55 121.267 29.8346 124.586 33.6255C126.009 35.2492 128.559 40.6545 130.022 42.3981C133.872 46.9931 138.412 56.8318 140.545 61.6699C141.408 63.6323 143.268 68.0004 144.008 71.4536C144.815 75.2106 147.369 81.9066 146.38 86.005C145.929 87.8672 144.111 88.6381 142.179 89.3307C139.587 90.261 136.612 92.4559 131.449 94.9838C129.156 96.1048 111.645 103.971 110.984 104.847L110.978 104.866ZM122.373 38.2544C122.434 38.8852 132.66 60.1112 133.27 61.1492C134.651 63.4961 137.015 69.5144 137.82 72.6702C138.598 75.7202 138.385 75.6755 139.469 78.6868C139.888 79.8737 140.177 80.0548 140.563 81.0191C140.884 81.8184 141.327 83.3735 141.609 83.2783C142.558 82.9586 143.255 78.7678 142.749 77.3317C141.997 75.2119 141.149 73.1171 140.34 71.1343C138.132 65.731 137.554 61.5392 135.192 57.1395C134.302 55.4804 125.838 37.5532 122.371 38.2522L122.373 38.2544ZM111.179 110.342C110.629 109.478 106.631 106.696 106.156 106.397C103.382 104.641 101.747 104.274 103.829 102.913C109.227 99.414 111.713 99.0924 116.984 96.2568C118.653 95.3579 121.843 94.1526 123.34 93.609C125.585 92.7747 127.73 91.3301 128.63 90.9535C132.938 89.1526 134.852 86.9795 137.355 83.226C139.727 79.6683 130.094 61.574 128.829 59.2499C126.942 55.7841 120.664 39.7072 119.271 38.2811C109.357 38.6865 93.5554 43.579 83.529 46.9056C78.2091 48.6691 71.5948 50.1021 65.1565 52.4554C51.6921 57.3799 47.2197 58.517 34.2932 62.254C32.764 62.7001 28.792 64.4415 27.3249 65.0447C23.9667 66.4327 23.3579 66.5465 22.6656 69.8183C21.6763 74.4972 24.8111 80.3034 27.95 85.2689C30.3056 88.9989 34.4017 95.6456 37.1077 100.119C40.2739 105.352 42.8764 110.343 45.963 115.445C50.8169 123.468 51.3697 124.382 60.3026 123.986C63.865 123.827 65.4449 124.491 68.5256 123.259C71.4644 122.08 72.8574 121.399 76.253 119.889C82.0833 117.299 90.2624 114.255 93.2545 108.634C98.4977 112.473 99.2942 113.829 106.358 115.762C103.327 113.576 100.295 111.388 97.2623 109.197C99.2269 108.152 101.453 110.553 103.236 111.899C104.885 113.154 106.779 114.047 108.796 114.523C113.14 115.616 117.182 115.497 121.707 115.666C124.757 115.782 125.832 115.596 125.779 115.245C123.76 114.43 120.062 112.893 117.96 111.961C115.339 110.801 110.224 107.391 106.973 102.93L104.598 104.104C105.565 105.434 112.863 109.126 111.182 110.353L111.179 110.342ZM95.5709 39.9916C94.375 40.2452 74.1286 46.7071 74.0301 47.9073C75.3546 47.2467 84.0314 44.8863 85.504 44.6241C88.6614 44.064 92.1526 42.5985 95.8904 41.5556C98.35 40.873 105.403 39.3664 106.994 38.7152C110.5 37.2796 115.849 37.5968 118.164 36.4476C111.893 33.5152 102.084 38.6141 95.5723 39.9938L95.5709 39.9916ZM144.681 85.4222C144.323 84.8305 144.505 83.0946 143.986 82.7322C143.906 82.6938 143.824 82.6533 143.742 82.6163L142.212 85.817C142.36 86.4132 142.511 87.0102 142.66 87.6086L145.094 86.1059L144.681 85.4222ZM139.463 81.7534C138.001 84.7152 138.243 87.7122 135.232 89.8928C135.389 89.2202 135.542 88.5502 135.696 87.8789C131.935 91.0792 128.554 93.0532 123.982 94.9088L109.35 101.63C109.399 101.765 109.45 101.899 109.5 102.036L116.94 99.6541L117.04 99.9679C117.392 99.4139 116.795 99.7062 117.592 99.3344L119.314 98.5714L135.111 91.2385L135.331 91.1057C137.423 89.8402 140.91 85.5239 141.018 85.4944L139.464 81.7798L139.463 81.7534ZM48.6186 128.929C49.8493 128.981 52.3699 130.198 54.6991 130.361C57.6138 130.564 57.508 130.191 60.1236 129.474C61.1273 129.205 72.1759 125.035 71.8488 123.578C67.4947 126.08 62.8122 126.865 57.7453 127.287C54.9941 127.518 51.7562 127.3 50.0054 125.982C48.0017 124.479 44.7879 122.78 43.5642 121.09L43.178 121.368C44.9895 123.887 46.8017 126.405 48.6146 128.922L48.6186 128.929ZM16.6977 73.5935C15.5261 71.0721 20.9871 65.4033 22.0587 64.4436L29.5728 59.8738C28.3635 59.7731 29.9978 59.3173 28.7554 60.0689C27.2737 60.9653 22.9752 62.1917 21.4655 62.9525C19.365 64.0106 18.2162 64.5799 17.1516 65.5413C15.7704 66.7871 15.2572 68.759 14.7592 68.8477C15.1538 69.6388 15.136 73.4605 16.6937 73.5869L16.6977 73.5935ZM25.822 84.5566C25.1285 83.4104 22.7147 78.7068 21.9719 76.7702C20.04 71.7331 21.7081 71.8735 21.9295 67.3179C16.3189 70.7122 20.9589 78.9368 22.7528 82.0606L22.5022 82.2511C21.8456 81.397 21.1889 80.5429 20.5322 79.6888C20.4312 79.4326 20.3302 79.1764 20.2314 78.9189C18.411 75.9099 19.0307 76.0918 18.0652 72.7661C14.5085 76.4626 26.2865 88.9277 26.9813 90.0761L28.7725 93.0368L29.9463 95.1258C32.3718 98.8524 34.7137 105.851 37.4275 111.457C39.1939 115.1 46.4382 122.683 50.2407 123.903C49.4167 122.606 47.7718 120.957 46.616 119.295C45.8602 118.204 45.0249 116.665 44.0491 115.052C42.6066 112.667 39.994 108.284 37.2367 103.444C33.5771 97.0186 31.7 94.2924 28.4304 88.888L25.8132 84.5619L25.822 84.5566ZM28.4483 95.098C27.5759 93.656 26.7035 92.214 25.8311 90.7719C23.5532 87.8032 21.274 84.8353 18.9932 81.8683C18.7733 82.6001 19.4103 83.2565 19.9172 84.0844L19.6977 84.2172C21.5476 87.2453 23.399 90.2725 25.2518 93.2988C25.4875 93.5693 25.7244 93.8421 25.9592 94.1162L29.2645 99.5797C30.0601 100.895 31.2121 103.79 32.5303 103.828C31.1683 100.916 29.8072 98.005 28.447 95.0958L28.4483 95.098Z" fill="url(#paint0_linear_1064_19423)"/>
<path d="M65.2851 85.9681L73.3189 99.9203L79.2257 96.5191L79.5442 96.3825C85.7644 94.5037 89.9291 93.3335 92.069 92.8618C94.9113 92.235 95.9147 91.9039 97.6093 91.0735C98.8779 90.4546 99.9934 89.1867 100.255 88.1797C100.399 87.624 100.241 86.7445 99.693 85.5543C99.5778 85.3049 99.5319 85.0291 99.56 84.7558C99.588 84.4825 99.689 84.2218 99.8525 84.001C100.217 83.511 100.423 82.9355 100.473 82.2422C100.522 81.6065 100.235 80.6398 99.5638 79.3883C99.4401 79.1584 99.3771 78.9008 99.3808 78.6397C99.3845 78.3787 99.4547 78.1229 99.5849 77.8966C100.341 76.5863 100.476 75.5223 100.092 74.5855C99.6677 73.5503 98.7327 72.648 97.2065 71.8862C96.8485 71.7076 96.5742 71.3964 96.4421 71.0188C96.31 70.6411 96.3304 70.2268 96.4989 69.864C96.9641 68.8641 96.953 67.853 96.4361 66.7073C95.6131 64.8813 93.7764 64.2387 91.136 65.419C88.7889 66.478 86.6544 67.956 84.8372 69.7804C84.6297 69.985 84.3681 70.1259 84.0831 70.1868C83.7982 70.2477 83.5018 70.2259 83.2288 70.124C82.9558 70.0222 82.7176 69.8445 82.5422 69.6118C82.3667 69.3791 82.2614 69.1012 82.2386 68.8108C82.0257 66.187 81.5877 64.173 80.9556 62.7823C80.1144 60.9382 78.9813 59.9034 77.4361 59.4018C76.2649 59.0223 74.8601 59.2289 74.4851 59.5694C73.9894 60.0158 73.8095 60.5555 73.99 61.9779C74.0979 62.8191 74.2937 63.4747 74.8355 64.9565C75.3476 66.3644 75.5571 67.0121 75.7372 67.9156C76.2873 70.6515 75.7666 74.1156 74.1744 77.2155C73.0577 79.3867 71.6487 81.3945 69.9867 83.183C69.8828 83.2947 69.7627 83.3901 69.6304 83.466L65.2851 85.9681ZM74.767 102.625C74.1474 103.005 73.5012 103.19 72.8367 103.131C71.9888 103.056 71.3203 102.553 70.8722 101.789L62.6579 87.5094C62.1538 86.7873 61.9762 85.9603 62.2078 85.1364C62.4243 84.3628 62.941 83.759 63.6362 83.3795L67.8958 80.9268C69.3027 79.3856 70.4993 77.6649 71.4543 75.8095C72.7363 73.3114 73.1502 70.55 72.7419 68.5111C72.5998 67.809 72.4245 67.261 71.9633 66.0002C71.3467 64.3072 71.1024 63.4952 70.9585 62.3528C70.6555 59.9782 71.1655 58.4386 72.4313 57.2918C73.677 56.1644 76.2219 55.7919 78.367 56.488C80.7443 57.258 82.543 58.8986 83.7352 61.5192C84.249 62.6459 84.6408 64.0115 84.9201 65.6236C86.4448 64.4227 88.1117 63.4141 89.8829 62.6206C94.0256 60.7674 97.6897 62.0502 99.2244 65.4548C99.8833 66.9237 100.059 68.3927 99.7368 69.8115C101.254 70.7833 102.33 71.9888 102.921 73.4294C103.601 75.0884 103.482 76.8651 102.628 78.6829C103.295 80.0979 103.606 81.3544 103.521 82.478C103.463 83.3795 103.217 84.2588 102.798 85.0591C103.355 86.5138 103.513 87.8115 103.212 88.961C102.716 90.8717 100.992 92.8325 98.9585 93.8269C97.0288 94.7719 95.7991 95.1788 92.7349 95.853C90.7143 96.2974 86.6577 97.4392 80.6036 99.2638L74.767 102.625ZM68.1701 83.4996C68.0692 83.3255 68.0036 83.1331 67.9771 82.9336C67.9507 82.7341 67.9638 82.5313 68.0158 82.3369C68.0679 82.1425 68.1578 81.9603 68.2803 81.8006C68.4029 81.641 68.5558 81.5072 68.7302 81.4067C68.9046 81.307 69.0969 81.2426 69.2962 81.2172C69.4955 81.1918 69.6978 81.2059 69.8916 81.2587C70.0854 81.3115 70.2669 81.4019 70.4258 81.5249C70.5847 81.6478 70.7178 81.8008 70.8175 81.9752L79.4361 96.9431C79.5366 97.1171 79.6019 97.3091 79.6281 97.5082C79.6544 97.7074 79.6412 97.9098 79.5893 98.1038C79.5373 98.2979 79.4477 98.4798 79.3255 98.6392C79.2032 98.7986 79.0508 98.9324 78.8768 99.0329C78.7026 99.1329 78.5104 99.1975 78.3112 99.2232C78.1119 99.2489 77.9096 99.2351 77.7157 99.1826C77.5218 99.1301 77.3401 99.04 77.1811 98.9172C77.022 98.7945 76.8887 98.6417 76.7887 98.4675L68.1701 83.4996Z" fill="url(#paint1_linear_1064_19423)"/>
<defs>
<linearGradient id="paint0_linear_1064_19423" x1="41.3495" y1="49.1477" x2="95.1566" y2="138.087" gradientUnits="userSpaceOnUse">
<stop stop-color="#FF9323"/>
<stop offset="1" stop-color="#FFF02E"/>
</linearGradient>
<linearGradient id="paint1_linear_1064_19423" x1="70.4964" y1="58.3203" x2="92.9464" y2="97.3093" gradientUnits="userSpaceOnUse">
<stop stop-color="#FF9323"/>
<stop offset="1" stop-color="#FFF02E"/>
</linearGradient>
</defs>
</svg>
