<svg width="231" height="253" viewBox="0 0 231 253" fill="none" xmlns="http://www.w3.org/2000/svg">
<path fill-rule="evenodd" clip-rule="evenodd" d="M36.4508 94.0945C33.5709 92.4908 21.8638 86.7439 17.5278 88.0216C21.7514 90.4646 27.4042 90.871 32.1309 94.8216C35.7763 97.8687 39.593 101.033 42.3338 106.048C47.5423 115.622 49.5818 129.372 49.5818 135.37V137.246C49.5818 167.905 30.6749 177.404 16.7516 199.199C26.6547 193.533 42.9815 185.3 53.8589 183.012C68.7778 179.879 78.258 178.821 91.9296 186.711C119.765 202.776 124.84 222.331 127.554 253C132.784 243.939 131.039 222.283 131.638 215.579C131.965 211.917 135.701 200.215 140.899 194.81C134.16 209.533 128.587 238.016 138.373 247.157C136.007 218.605 143.313 193.511 152.713 185.926C161.508 178.832 182.626 178.115 194.521 178.121C199.199 178.121 218.636 186.941 220.215 185.792C215.162 182.183 212.496 176.704 209.836 172.737C209.884 173.496 217.56 176.768 222.303 175.009C220.783 174.085 212.132 168.878 211.334 165.665C211.334 165.692 220.36 170.161 226.858 169.781C221.628 168.316 211.634 161.639 208.08 157.555C201.233 149.686 200.537 145.794 198.915 135.792C196.919 123.539 209.033 81.4195 216.58 75.1434C219.375 72.818 222.249 70.1451 224.332 69.1027C226.061 68.2259 229.968 63.5215 230.6 62.4417C222.485 63.6231 223.106 65.9058 198.814 65.9058H197.026C187.471 65.9058 174.163 61.6291 168.467 50.1676C165.347 43.9076 163.623 38.1127 163.387 32.2109C163.184 26.988 164.784 15.0026 164.196 11.4636C159.972 12.6451 157.975 37.6583 147.874 44.7255C147.339 35.5948 154.298 31.2273 157.172 20.2416C144.828 26.571 131.173 36.6159 123.186 40.4863C118.165 42.924 107.721 44.3192 104.07 43.3356C101.522 42.6513 96.9454 42.6567 93.937 40.0961C91.7584 38.2464 87.4224 32.7027 87.1976 28.9927C86.6194 19.6 85.8218 7.47031 79.4464 0.199951C79.4464 1.0339 79.4464 1.86783 79.4464 2.70713C79.8033 7.1228 80.1494 11.5385 80.4849 15.9542L76.7966 9.63004C71.0528 11.8806 77.7388 33.9323 70.2285 53.0918C66.7222 62.0461 58.4518 74.4111 50.9575 74.3576C44.0842 74.3095 33.8599 73.4114 27.4042 71.1501C23.0736 69.6479 1.59183 61.6933 0.200043 64.2753C7.48017 68.5841 34.9252 87.8933 36.4936 94.0464L36.4508 94.0945ZM47.1943 77.8271C39.5341 79.6981 24.7116 79.9654 19.7386 72.1925C25.0917 73.0799 29.8773 75.2183 36.4776 75.8758C41.2632 76.3516 46.7554 76.4425 47.1836 77.8271H47.1943ZM56.1446 167.311C56.332 164.997 60.3146 158.309 61.6208 154.636C62.9269 150.964 64.9075 147.227 65.3304 143.463C66.5509 132.617 67.0755 125.17 63.0393 117.531C54.9295 102.172 48.554 93.2926 34.3631 83.7663C42.3927 85.4877 51.1449 87.9307 66.8186 78.9818C83.4451 69.4929 84.3979 62.8854 88.3752 45.3029C90.9233 47.0884 96.1853 55.3799 101.485 59.1433C104.477 61.2817 112.892 65.4033 116.265 65.6492C132.147 66.7932 137.96 60.3034 145.674 57.1921C154.089 69.4875 171.615 79.944 180.651 80.7138C176.267 90.2348 171.326 104.556 169.41 115.777C166.578 132.152 173.692 148.184 176.133 159.17C156.862 163.446 152.949 160.046 137.987 177.998C125.472 193.014 127.142 201.739 126.002 216.114C123.668 207.913 117.11 198.045 114.552 193.698C111.104 187.818 105.205 179.601 99.9271 175.726C89.0818 167.755 69.2863 166.162 56.166 167.306L56.1446 167.311ZM57.3383 139.149C57.3383 125.389 49.3088 106.176 41.8145 95.3454C52.0281 102.514 58.864 113.03 61.9955 124.619C63.6763 130.842 61.2032 146.869 56.1393 157.924L55.4166 157.822C56.1089 152.248 56.812 146.659 57.5257 141.052L57.3651 139.149H57.3383ZM68.6814 176.725H65.6944C63.2481 176.725 58.3233 179.639 56.7442 177.351C61.6368 175.212 71.1171 170.802 77.7334 173.529C82.5511 175.507 93.4499 180.344 96.7313 185.482C96.1264 185.434 85.2544 180.548 83.5307 179.944C79.1091 178.388 73.0495 176.736 70.4693 176.736L68.6814 176.725ZM69.752 62.6716C71.3312 60.5332 72.193 55.3157 74.6768 51.5736C74.6768 57.4113 71.6631 77.2337 61.5458 72.8448C63.216 70.2253 67.2307 66.125 69.752 62.6876V62.6716ZM76.4647 63.4628C77.8922 54.1075 79.3197 44.7523 80.7472 35.397L80.0673 35.3008C89.1086 40.3152 81.4591 63.4628 76.4862 63.4628H76.4647ZM94.9059 179.917C93.0324 178.313 84.7352 173.042 84.2266 172.342C90.5432 172.876 95.1254 176.175 98.5781 178.661C100.586 179.548 108.62 189.759 108.214 192.464C104.531 187.652 98.2088 182.675 94.9274 179.917H94.9059ZM144.507 52.8245C132.286 61.3779 125.108 63.6071 117.003 63.2382C108.669 61.9124 98.6209 55.0805 92.7005 46.3507C86.052 36.541 100.698 51.5789 100.848 51.6965C103.738 54.3053 109.065 56.2138 113.005 57.577C116.704 58.8546 123.636 58.6141 127.859 55.3852C132.447 51.8783 137.452 45.228 139.133 44.0519L144.486 52.8138L144.507 52.8245ZM99.7451 45.939C104.606 46.3614 105.569 46.8746 109.145 46.8853C119.316 46.8853 133.549 39.0536 141.89 33.1999C138.646 41.4272 131.478 47.5642 129.133 49.8522C121.163 57.6305 105.767 55.3745 99.7451 45.939ZM153.457 172.967C153.259 175.523 148.404 183.787 146.777 185.354C144.636 187.428 142.029 187.882 140.476 189.379C139.62 190.208 136.408 192.587 134.957 193.618C135.236 190.127 139.893 181.857 141.964 179.692C146.964 174.512 149.041 176.068 153.457 172.967ZM160.229 57.2562C158.173 56.9889 153.029 52.445 152.414 50.7878L150.925 49.2268C151.926 46.9013 156.685 37.5407 158.832 37.1772C158.773 38.4281 158.709 39.679 158.65 40.9193C158.687 41.7532 158.719 42.5926 158.757 43.4319C159.249 48.0329 159.74 52.6374 160.229 57.2455V57.2562ZM188.643 175.656C184.714 175.378 184.109 173.566 180.886 173.566C173.521 173.566 170.255 175.464 167.327 175.742C163.746 176.078 158.607 179.532 155.224 179.826C159.249 173.523 155.936 171.658 165.288 170.369C171.77 169.476 173.189 169.188 177.905 169.188H179.693L183.873 169.396C186.122 169.188 192.438 172.026 194.617 175.442L188.643 175.656ZM182.08 65.9379C175.148 65.3338 173.96 64.1149 168.253 61.9605C164.228 60.437 161.503 50.3922 162.98 47.1633C165.052 48.767 168.74 56.1924 170.871 58.9241C173.547 62.3081 179.495 63.5857 182.08 65.9432V65.9379ZM183.274 165.435C183.274 165.675 183.306 165.921 183.317 166.162L176.684 166.354L164.18 167.365C164.18 166.932 164.18 166.493 164.18 166.06C168.617 165.67 170.325 163.339 175.523 162.928L177.915 163.008C180.142 162.751 180.11 165.146 183.269 165.435H183.274ZM183.857 76.5762C181.015 75.1435 174.597 73.7909 174.307 70.3161L177.883 70.5086L182.069 70.8775L189.821 70.808L183.857 76.5762ZM191.02 157.924C189.141 158.737 180.56 158.924 178.916 156.908C176.62 154.086 174.634 142.293 173.853 138.374C172.214 129.869 171.321 111.907 175.501 105.358C180.983 109.207 179.409 112.137 177.932 118.685C177.246 121.722 177.257 129.334 177.841 132.403C178.965 138.326 180.678 141.015 182.54 145.891C184.799 151.814 188.332 153.717 191.02 157.924ZM180.276 105.358C179.179 104.594 176.695 102.733 176.695 100.98C176.695 100.232 180.11 93.7043 180.276 91.5926L184.178 94.5329L180.276 105.358ZM185.629 118.498C185.629 119.712 182.364 124.117 181.454 124.758C181.454 117.076 183.493 118.466 183.841 114.12C184.767 114.772 185.629 114.949 185.629 116.622V118.498ZM199.954 168.562C194.869 166.36 188.215 169.466 184.43 163.553L193.359 164.419C195.259 164.419 197.283 166.071 198.755 165.435C199.158 166.476 199.556 167.518 199.949 168.562H199.954ZM195.179 148.537C189.264 144.388 187.096 138.305 183.242 132.269C184.266 130.291 185.285 128.313 186.298 126.335L186.834 126.635C187.968 129.516 188.584 133.103 190.324 137.369C191.619 140.534 195.045 146.671 195.19 148.537H195.179ZM198.182 95.7464L188.236 102.199L188.589 97.2218C188.589 96.5964 188.589 95.9709 188.616 95.3454L192.192 95.5379L193.985 95.3454L198.182 95.7464ZM195.179 141.026C191.314 135.199 189.291 125.64 189.826 119.108L190.988 119.787L192.519 116.985C193.007 119.366 193.491 121.743 193.969 124.117C194.073 125.774 194.171 127.431 194.264 129.088L195.195 141.004L195.179 141.026ZM188.675 108.453L194.885 102.429L195.42 102.899L194.028 109.218L188.675 108.453ZM190.458 91.5926C195.522 80.5321 201.067 79.5163 210.751 75.3252C198.145 86.1078 199.868 91.8973 196.576 91.8973C194.783 91.8973 192.069 92.2822 190.458 91.5819V91.5926ZM207.748 176.725C206.083 177.442 195.522 173.753 193.423 170.465C198.707 170.925 204.231 171.219 207.748 176.725Z" fill="url(#paint0_linear_1067_19942)"/>
<defs>
<linearGradient id="paint0_linear_1067_19942" x1="115.4" y1="0.199951" x2="115.4" y2="253" gradientUnits="userSpaceOnUse">
<stop stop-color="#FF9323"/>
<stop offset="1" stop-color="#FFF02E"/>
</linearGradient>
</defs>
</svg>
