<svg width="88" height="96" viewBox="0 0 88 96" fill="none" xmlns="http://www.w3.org/2000/svg">
<path d="M10.2559 93.5049L2.55167 2.43959L85.9921 12.7145L81.1109 81.4523L10.2559 93.5049Z" fill="#1F2020" stroke="url(#paint0_linear_1064_19495)" stroke-width="3.184"/>
<path d="M58.1638 24.8345C58.0354 24.1008 57.9712 23.3542 57.9841 22.6206H49.2951V57.8444C49.1522 61.8108 45.9441 64.9603 42.0217 64.9735C40.8668 64.9604 39.6641 64.7031 38.6333 64.1632C38.6286 64.1566 38.6238 64.15 38.6191 64.1434C35.6578 62.562 34.1381 59.1359 34.9304 55.8415C35.7227 52.5471 38.6321 50.2146 41.97 50.2014C42.6974 50.2146 43.4247 50.32 44.1261 50.5441V45.1681C44.1347 45.1679 44.1433 45.1678 44.1519 45.1676V41.5437C43.4375 41.4251 42.7232 41.3724 41.9958 41.3592C35.0212 41.346 28.8518 45.9319 26.7606 52.6788C24.7086 59.2996 27.1243 66.6691 32.6278 70.7652C32.6975 70.8426 32.768 70.9194 32.8393 70.9957C35.5409 72.8406 38.736 73.8025 41.996 73.7367C50.815 73.7367 57.9585 66.5021 57.9715 57.5677V39.6594C61.4913 42.2158 65.6994 43.5863 70.0375 43.5731V36.7603C70.0286 36.7584 70.0197 36.7564 70.0108 36.7545V34.8496C67.6729 34.8496 65.387 34.1511 63.4388 32.8334C63.4383 32.8344 63.4378 32.8355 63.4373 32.8366C60.679 31.0175 58.7626 28.1229 58.1663 24.8345H58.1638Z" fill="white"/>
<path d="M58.1638 24.8345C58.0354 24.1008 57.9712 23.3542 57.9841 22.6206H49.2951V57.8444C49.1522 61.8108 45.9441 64.9603 42.0217 64.9735C40.8668 64.9604 39.6641 64.7031 38.6333 64.1632C38.6286 64.1566 38.6238 64.15 38.6191 64.1434C35.6578 62.562 34.1381 59.1359 34.9304 55.8415C35.7227 52.5471 38.6321 50.2146 41.97 50.2014C42.6974 50.2146 43.4247 50.32 44.1261 50.5441V45.1681C44.1347 45.1679 44.1433 45.1678 44.1519 45.1676V41.5437C43.4375 41.4251 42.7232 41.3724 41.9958 41.3592C35.0212 41.346 28.8518 45.9319 26.7606 52.6788C24.7086 59.2996 27.1243 66.6691 32.6278 70.7652C32.6975 70.8426 32.768 70.9194 32.8393 70.9957C35.5409 72.8406 38.736 73.8025 41.996 73.7367C50.815 73.7367 57.9585 66.5021 57.9715 57.5677V39.6594C61.4913 42.2158 65.6994 43.5863 70.0375 43.5731V36.7603C70.0286 36.7584 70.0197 36.7564 70.0108 36.7545V34.8496C67.6729 34.8496 65.387 34.1511 63.4388 32.8334C63.4383 32.8344 63.4378 32.8355 63.4373 32.8366C60.679 31.0175 58.7626 28.1229 58.1663 24.8345H58.1638Z" fill="url(#paint1_linear_1064_19495)"/>
<defs>
<linearGradient id="paint0_linear_1064_19495" x1="192.418" y1="8.02675" x2="192.443" y2="117.322" gradientUnits="userSpaceOnUse">
<stop stop-color="#FF9323"/>
<stop offset="1" stop-color="#FFF02E"/>
</linearGradient>
<linearGradient id="paint1_linear_1064_19495" x1="55.7899" y1="22.6206" x2="55.7899" y2="73.7398" gradientUnits="userSpaceOnUse">
<stop stop-color="#FF9323"/>
<stop offset="1" stop-color="#FFF02E"/>
</linearGradient>
</defs>
</svg>
