<svg width="110" height="114" viewBox="0 0 110 114" fill="none" xmlns="http://www.w3.org/2000/svg">
<path d="M11.3901 111.61L1.7577 2.43275L107.434 14.7686L101.333 97.1309L11.3901 111.61Z" fill="#1F2020" stroke="url(#paint0_linear_1064_19492)" stroke-width="3.184"/>
<path d="M47.5636 81.1705C70.2616 81.1705 82.6859 62.3273 82.6859 45.9945C82.6859 45.4521 82.6704 44.9253 82.6549 44.3984C85.0686 42.6474 87.1574 40.4779 88.8129 37.9985C86.6004 38.9903 84.2176 39.6411 81.7266 39.951C84.2795 38.4169 86.229 35.9996 87.1574 33.1173C84.7746 34.5274 82.1289 35.5657 79.3129 36.1235C77.0539 33.7216 73.8512 32.2185 70.308 32.2185C63.4847 32.2185 57.9611 37.7506 57.9611 44.5844C57.9611 45.5606 58.0694 46.4904 58.286 47.4046C48.0278 46.8933 38.9301 41.9655 32.8494 34.4964C31.7973 36.325 31.1784 38.4479 31.1784 40.7104C31.1784 45.0028 33.36 48.7838 36.6711 50.9997C34.6442 50.9377 32.7411 50.3799 31.0856 49.4501C31.0856 49.4966 31.0856 49.5586 31.0856 49.6051C31.0856 55.5865 35.3405 60.5918 40.9879 61.723C39.9512 62.0019 38.8527 62.1569 37.7387 62.1569C36.9496 62.1569 36.176 62.0794 35.4178 61.9399C36.996 66.8522 41.5449 70.4318 46.9447 70.5247C42.7208 73.8409 37.3983 75.8089 31.6116 75.8089C30.6214 75.8089 29.6312 75.7469 28.6719 75.6384C34.1027 79.125 40.5856 81.1705 47.5636 81.1705Z" fill="url(#paint1_linear_1064_19492)"/>
<defs>
<linearGradient id="paint0_linear_1064_19492" x1="237.999" y1="9.44313" x2="238.029" y2="139.599" gradientUnits="userSpaceOnUse">
<stop stop-color="#FF9323"/>
<stop offset="1" stop-color="#FFF02E"/>
</linearGradient>
<linearGradient id="paint1_linear_1064_19492" x1="58.7424" y1="32.2185" x2="58.7424" y2="81.1705" gradientUnits="userSpaceOnUse">
<stop stop-color="#FF9323"/>
<stop offset="1" stop-color="#FFF02E"/>
</linearGradient>
</defs>
</svg>
