<svg width="719" height="513" xmlns="http://www.w3.org/2000/svg">

 <g>
  <title>background</title>
  <rect fill="none" id="canvas_background" height="515" width="721" y="-1" x="-1"/>
 </g>
 <g>
  <title>Layer 1</title>
  <path id="svg_1" fill="#181415" d="m10.288419,367.408132c0.696,-10.792 4.949,-21.276 12.338,-30.415c0.406,-0.506 0.828,-1.013 1.268,-1.52c-7.185,-6.511 -12.593,-14.126 -15.892,-22.374c-3.299,-8.249 -4.42,-16.958 -3.292,-25.591c1.101,-8.594 4.414,-16.933 9.735,-24.507c5.321,-7.573 12.537,-14.22 21.207,-19.533c-5.144,-13.378 -4.014,-27.809 3.183,-40.665c7.197,-12.856 19.982,-23.28 36.025,-29.374c7.571,-2.893 15.708,-4.731 24.051,-5.435l0.229,-0.012c-0.276,-7.909 0.962,-15.816 3.673,-23.454c5.153,-14.575 15.409,-27.737 29.583,-37.966c14.173,-10.229 31.688,-17.109 50.523,-19.846c2.378,-0.348 4.814,-0.618 7.254,-0.829c10.595,-0.891 21.289,-0.464 31.688,1.268c0.222,-1.486 0.497,-2.934 0.851,-4.366c2.752,-11.279 9.449,-21.748 19.332,-30.217c9.882,-8.468 22.552,-14.598 36.57,-17.69c4.064,-0.888 8.209,-1.52 12.394,-1.889c7.104,-0.603 14.272,-0.426 21.298,0.526c15.88,-15.26 38.701,-24.997 63.493,-27.09c2.114,-0.112 4.28,-0.227 6.37,-0.338c13.664,-0.453 27.266,1.442 39.864,5.553c12.599,4.112 23.895,10.341 33.106,18.259c6.736,-2.181 13.823,-3.597 21.047,-4.205l1.351,-0.072c14.476,-1.04 28.999,1.13 41.934,6.265c12.934,5.136 23.766,13.034 31.275,22.804c2.071,2.674 3.871,5.475 5.383,8.376l3.224,-0.332c20.9,-1.746 41.785,2.902 58.349,12.985c16.564,10.084 27.544,24.834 30.677,41.209c7.23,2.489 13.976,5.767 20.041,9.739c12.887,8.415 22.375,19.621 27.313,32.261c4.939,12.639 5.117,26.169 0.512,38.949c-1.803,5.017 -4.344,9.854 -7.571,14.413c9.548,8.023 16.817,17.568 21.327,28.004c3.274,7.573 5.064,15.504 5.312,23.522c0.299,8.675 -1.233,17.34 -4.534,25.64c-6.364,16.082 -19.029,30.189 -36.16,40.279c-7.334,4.34 -15.388,7.859 -23.931,10.455c-3.545,1.062 -7.157,1.975 -10.822,2.734c0.245,0.997 0.473,1.994 0.684,2.993c2.617,13.08 1.141,26.494 -4.298,39.073c-6.462,15.037 -18.256,28.32 -33.973,38.263c-15.718,9.942 -34.692,16.122 -54.654,17.801c-1.656,0.088 -3.312,0.175 -4.892,0.259c-14.032,0.684 -28.072,-0.879 -41.273,-4.595c-3.359,7.064 -8.146,13.66 -14.173,19.528c-10.657,10.47 -24.857,18.34 -40.927,22.683c-6.1,1.62 -12.401,2.705 -18.791,3.238c-10.407,0.892 -20.917,0.336 -31.051,-1.645c-5.652,-1.123 -11.143,-2.692 -16.389,-4.683c-7.155,9.399 -16.952,17.381 -28.625,23.323c-12.086,6.166 -25.827,9.995 -40.097,11.172c-3.958,0.352 -7.94,0.482 -11.917,0.389c-9.469,-0.159 -18.834,-1.502 -27.746,-3.98c-8.257,-2.28 -16.044,-5.492 -23.121,-9.535c-11.88,-6.77 -21.435,-15.765 -27.817,-26.186c-2.069,-3.341 -3.775,-6.817 -5.099,-10.39c-6.578,1.674 -13.351,2.811 -20.212,3.393c-1.631,0.087 -3.287,0.175 -4.918,0.261c-15.369,0.737 -30.715,-1.367 -44.817,-6.144c-13.989,-4.742 -26.392,-11.958 -36.262,-21.094c-1.348,-1.261 -2.751,-2.58 -3.944,-3.829c-1.315,0.211 -2.529,0.397 -3.899,0.55l-3.249,0.334c-12.495,1.046 -25.102,-0.257 -36.789,-3.803c-15.875,-4.797 -29.385,-13.443 -38.6,-24.706c-9.215,-11.262 -13.665,-24.565 -12.715,-38.01l-0.014,-0.181z"/>
  <path id="svg_2" fill="#181415" d="m23.036419,367.862132c0.609,-9.043 4.165,-17.828 10.325,-25.502c2.244,-2.789 4.825,-5.401 7.707,-7.798c-1.433,-0.92 -2.892,-1.954 -4.376,-3.1c-6.318,-4.955 -11.301,-10.87 -14.652,-17.394c-4.22,-8.113 -5.835,-16.938 -4.704,-25.696c1.131,-8.757 4.974,-17.178 11.19,-24.518c4.982,-5.875 11.39,-10.916 18.847,-14.829c1.28,-0.674 2.464,-1.262 3.755,-1.795c-4.304,-7.034 -6.358,-14.807 -5.984,-22.642c0.373,-7.834 3.164,-15.494 8.129,-22.314c6.24,-8.594 15.627,-15.507 26.916,-19.82c9.016,-3.432 18.949,-5.054 28.913,-4.723c1.412,0.066 2.749,0.157 4.062,0.269c-0.001,0.148 0.01,0.296 0.033,0.442l0.431,1.653c-0.042,-0.563 -0.312,-1.094 -0.456,-1.651c-2.48,-10.397 -1.88,-21.125 1.754,-31.348c3.133,-8.91 8.467,-17.255 15.693,-24.554c7.227,-7.298 16.202,-13.405 26.408,-17.966c10.206,-4.561 21.439,-7.486 33.05,-8.606c11.61,-1.121 23.367,-0.414 34.592,2.08c3.394,0.789 6.728,1.731 9.983,2.822c-0.954,-5.426 -0.778,-10.945 0.52,-16.341c3.211,-13.284 12.95,-25.064 27.083,-32.758c14.133,-7.695 31.507,-10.675 48.313,-8.289c2.304,0.35 4.583,0.795 6.827,1.334c0.149,-0.205 0.314,-0.402 0.493,-0.591c6.456,-7.44 14.817,-13.731 24.537,-18.463c12.119,-5.897 25.938,-9.231 40.114,-9.678c14.176,-0.448 28.227,2.007 40.789,7.124c10.058,4.098 18.902,9.819 25.965,16.795c0.773,0.766 1.523,1.555 2.218,2.305c9.403,-4.338 20.012,-6.755 30.86,-7.03c10.847,-0.275 21.587,1.6 31.237,5.454c10.789,4.309 19.834,10.901 26.133,19.046c3.558,4.63 6.147,9.687 7.667,14.979l2.513,-0.598c10.865,-2.341 22.27,-2.544 33.212,-0.59c10.332,1.862 19.967,5.57 28.169,10.839c8.201,5.27 14.752,11.961 19.149,19.562c2.772,4.798 4.635,9.896 5.529,15.132c0.303,1.66 0.449,3.268 0.542,4.858c8.693,2.229 16.765,5.732 23.794,10.327c11.01,7.182 19.116,16.751 23.332,27.545c4.216,10.795 4.361,22.349 0.417,33.261c-2.451,6.768 -6.44,13.138 -11.772,18.795c0.484,0.318 0.967,0.615 1.452,0.953c11.114,7.731 19.469,17.627 24.246,28.717c2.846,6.619 4.406,13.547 4.629,20.55c0.253,7.584 -1.083,15.159 -3.955,22.419c-2.882,7.233 -7.228,14.057 -12.869,20.207c-9.976,10.854 -23.72,19.202 -39.548,24.023c-6.413,1.96 -13.101,3.291 -19.913,3.963l-2.421,0.129c1.866,4.114 3.236,8.361 4.093,12.684c2.274,11.458 0.973,23.204 -3.79,34.222c-5.954,13.767 -16.95,25.856 -31.586,34.726c-14.645,8.788 -32.247,13.94 -50.545,14.794c-14.683,0.727 -29.338,-1.386 -42.695,-6.155c-2.208,-0.792 -4.215,-1.634 -6.145,-2.481c-0.189,0.899 -0.424,1.86 -0.685,2.823c-2.913,10.077 -9.074,19.409 -17.884,27.087c-8.809,7.678 -19.968,13.44 -32.389,16.726c-13.795,3.652 -28.592,4.122 -42.646,1.353c-9.699,-1.913 -18.795,-5.352 -26.745,-10.111l1.82,1.075c-1.279,2.595 -2.801,5.112 -4.555,7.53c-6.208,8.727 -15.03,16.129 -25.687,21.552c-9.273,4.735 -19.692,7.877 -30.575,9.222c-10.883,1.344 -21.983,0.86 -32.575,-1.42c-10.591,-2.281 -20.434,-6.306 -28.885,-11.813c-8.451,-5.508 -15.318,-12.372 -20.152,-20.144c-3.611,-5.858 -5.933,-12.166 -6.867,-18.655c-0.034,-0.463 -0.067,-0.905 -0.099,-1.327c-1.289,0.553 -2.656,1.089 -4.1,1.61c-11.043,3.955 -22.988,6.061 -35.076,6.184c-12.088,0.123 -24.056,-1.739 -35.144,-5.469c-16.662,-5.616 -30.636,-15.226 -39.962,-27.48c-3.67,0.989 -7.444,1.71 -11.275,2.153c-11.356,1.328 -22.93,0.322 -33.602,-2.923c-10.117,-3.068 -19.141,-8.007 -26.319,-14.404c-7.179,-6.397 -12.304,-14.068 -14.951,-22.375c-1.612,-5.216 -2.238,-10.599 -1.857,-15.973zm212.314,-264.826c-0.015,-0.039 -0.018,-0.081 -0.009,-0.121l0.009,0.121zm387.698,229.801c0.298,0.57 0.574,1.181 0.877,1.811c-0.41,-0.685 -0.685,-1.296 -0.984,-1.866l0.107,0.055z"/>
  <path id="svg_3" fill="#EF0A26" d="m43.956419,334.187132c-7.494,-5.842 -13.224,-12.944 -16.77,-20.787c-3.545,-7.843 -4.815,-16.228 -3.719,-24.54c1.097,-8.311 4.534,-16.339 10.059,-23.494c5.524,-7.155 12.997,-13.257 21.869,-17.857c-3.729,-6.934 -5.334,-14.477 -4.686,-22.02c0.648,-7.543 3.531,-14.874 8.416,-21.403c4.886,-6.529 11.637,-12.073 19.708,-16.183c8.072,-4.111 17.239,-6.674 26.761,-7.482c3.72,-0.315 7.467,-0.365 11.193,-0.15c-0.085,-1.146 -0.4,-2.28 -0.538,-3.444c-1.524,-12.054 0.927,-24.241 7.114,-35.377c6.188,-11.136 15.903,-20.844 28.202,-28.182c12.299,-7.337 26.765,-12.056 41.994,-13.698c15.23,-1.641 30.705,-0.15 44.926,4.33c-0.036,-0.483 -0.072,-0.966 -0.236,-1.442c-1.041,-8.249 0.455,-16.592 4.361,-24.32c3.906,-7.729 10.107,-14.615 18.078,-20.074c7.97,-5.459 17.474,-9.331 27.705,-11.287c10.232,-1.956 20.89,-1.938 31.071,0.052c7.801,-7.949 17.767,-14.413 29.149,-18.909c11.381,-4.495 23.884,-6.904 36.568,-7.046c12.684,-0.142 25.221,1.986 36.668,6.226c11.448,4.239 21.509,10.479 29.428,18.251c7.228,-2.927 15.071,-4.774 23.129,-5.446c15.584,-1.327 31.213,1.748 44.11,8.679c12.897,6.932 22.225,17.27 26.327,29.178c3.721,-0.827 7.519,-1.414 11.355,-1.753c9.043,-0.769 18.174,-0.124 26.871,1.896c8.698,2.021 16.792,5.378 23.82,9.88c7.028,4.503 12.852,10.061 17.14,16.36c4.288,6.298 6.956,13.211 7.851,20.346c0.031,0.422 0.063,0.845 0.096,1.287c10.722,2.951 20.421,7.816 28.346,14.218c7.925,6.403 13.863,14.171 17.356,22.704c3.493,8.533 4.447,17.603 2.788,26.507c-1.659,8.905 -5.887,17.405 -12.356,24.845c12.363,8.657 21.283,19.958 25.7,32.558c4.416,12.6 4.141,25.967 -0.792,38.507c-4.934,12.541 -14.317,23.727 -27.033,32.226c-12.716,8.499 -28.227,13.951 -44.687,15.709c5.442,13.618 5.632,28.238 0.548,42.01c-5.084,13.773 -15.214,26.079 -29.109,35.361c-13.896,9.283 -30.931,15.126 -48.952,16.789c-18.021,1.663 -36.218,-0.928 -52.289,-7.446c-2.575,9.648 -8.097,18.67 -16.084,26.279c-7.987,7.61 -18.197,13.574 -29.736,17.373c-11.539,3.798 -24.057,5.315 -36.461,4.418c-12.403,-0.896 -24.316,-4.18 -34.695,-9.563c-6.701,12.317 -18.272,22.614 -32.971,29.337c-14.698,6.724 -31.726,9.511 -48.518,7.94c-16.791,-1.57 -32.437,-7.413 -44.577,-16.646c-12.141,-9.234 -20.119,-21.358 -22.732,-34.546c-19.483,6.649 -41.231,7.769 -61.526,3.166c-20.295,-4.602 -37.878,-14.641 -49.743,-28.4c-3.949,0.93 -7.994,1.577 -12.084,1.933c-13.347,1.138 -26.788,-0.889 -38.605,-5.824c-11.816,-4.935 -21.471,-12.552 -27.731,-21.879c-6.26,-9.326 -8.84,-19.938 -7.411,-30.479c1.43,-10.54 6.804,-20.531 15.436,-28.694l-0.102,0.006z" clip-rule="evenodd" fill-rule="evenodd"/>
  <path stroke="null" id="svg_4" fill="white" d="m43.956419,334.187132c-7.494,-5.842 -13.224,-12.944 -16.77,-20.787c-3.545,-7.843 -4.815,-16.228 -3.719,-24.54c1.097,-8.311 4.534,-16.339 10.059,-23.494c5.524,-7.155 12.997,-13.257 21.869,-17.857c-3.729,-6.934 -5.334,-14.477 -4.686,-22.02c0.648,-7.543 3.531,-14.874 8.416,-21.403c4.886,-6.529 11.637,-12.073 19.708,-16.183c8.072,-4.111 17.239,-6.674 26.761,-7.482c3.72,-0.315 7.467,-0.365 11.193,-0.15c-0.085,-1.146 -0.4,-2.28 -0.538,-3.444c-1.524,-12.054 0.927,-24.241 7.114,-35.377c6.188,-11.136 15.903,-20.844 28.202,-28.182c12.299,-7.337 26.765,-12.056 41.994,-13.698c15.23,-1.641 30.705,-0.15 44.926,4.33c-0.036,-0.483 -0.072,-0.966 -0.236,-1.442c-1.041,-8.249 0.455,-16.592 4.361,-24.32c3.906,-7.729 10.107,-14.615 18.078,-20.074c7.97,-5.459 17.474,-9.331 27.705,-11.287c10.232,-1.956 20.89,-1.938 31.071,0.052c7.801,-7.949 17.767,-14.413 29.149,-18.909c11.381,-4.495 23.884,-6.904 36.568,-7.046c12.684,-0.142 25.221,1.986 36.668,6.226c11.448,4.239 21.509,10.479 29.428,18.251c7.228,-2.927 15.071,-4.774 23.129,-5.446c15.584,-1.327 31.213,1.748 44.11,8.679c12.897,6.932 22.225,17.27 26.327,29.178c3.721,-0.827 7.519,-1.414 11.355,-1.753c9.043,-0.769 18.174,-0.124 26.871,1.896c8.698,2.021 16.792,5.378 23.82,9.88c7.028,4.503 12.852,10.061 17.14,16.36c4.288,6.298 6.956,13.211 7.851,20.346c0.031,0.422 0.063,0.845 0.096,1.287c10.722,2.951 20.421,7.816 28.346,14.218c7.925,6.403 13.863,14.171 17.356,22.704c3.493,8.533 4.447,17.603 2.788,26.507c-1.659,8.905 -5.887,17.405 -12.356,24.845c12.363,8.657 21.283,19.958 25.7,32.558c4.416,12.6 4.141,25.967 -0.792,38.507c-4.934,12.541 -14.317,23.727 -27.033,32.226c-12.716,8.499 -28.227,13.951 -44.687,15.709c5.442,13.618 5.632,28.238 0.548,42.01c-5.084,13.773 -15.214,26.079 -29.109,35.361c-13.896,9.283 -30.931,15.126 -48.952,16.789c-18.021,1.663 -36.218,-0.928 -52.289,-7.446c-2.575,9.648 -8.097,18.67 -16.084,26.279c-7.987,7.61 -18.197,13.574 -29.736,17.373c-11.539,3.798 -24.057,5.315 -36.461,4.418c-12.403,-0.896 -24.316,-4.18 -34.695,-9.563c-6.701,12.317 -18.272,22.614 -32.971,29.337c-14.698,6.724 -31.726,9.511 -48.518,7.94c-16.791,-1.57 -32.437,-7.413 -44.577,-16.646c-12.141,-9.234 -20.119,-21.358 -22.732,-34.546c-19.483,6.649 -41.231,7.769 -61.526,3.166c-20.295,-4.602 -37.878,-14.641 -49.743,-28.4c-3.949,0.93 -7.994,1.577 -12.084,1.933c-13.347,1.138 -26.788,-0.889 -38.605,-5.824c-11.816,-4.935 -21.471,-12.552 -27.731,-21.879c-6.26,-9.326 -8.84,-19.938 -7.411,-30.479c1.43,-10.54 6.804,-20.531 15.436,-28.694l-0.102,0.006z" clip-rule="evenodd" fill-rule="evenodd"/>
  <path id="svg_5" fill="#BC0044" d="m623.502419,350.237132l1.826,-0.217c0.15,2.011 0.309,4.142 0.182,6.208c-0.663,-2.024 -1.299,-4.029 -2.008,-5.991z" clip-rule="evenodd" fill-rule="evenodd"/>
  <path id="svg_6" fill="black" d="m151.062419,448.983132c11.088,3.729 23.056,5.591 35.144,5.468c12.088,-0.123 24.033,-2.228 35.076,-6.183c6.498,-2.337 12.587,-5.335 18.111,-8.916c2,-1.278 3.905,-2.646 5.706,-4.098c0,0 -2.346,1.134 -6.719,2.86c-6.12,2.391 -12.527,4.287 -19.122,5.658c-9.526,1.982 -19.361,2.83 -29.18,2.516c-11.785,-0.363 -23.367,-2.432 -34.172,-6.103c-19.985,-6.726 -36.497,-18.549 -46.916,-33.592c-3.253,-4.688 -5.893,-9.628 -7.88,-14.745c-1.427,-3.7 -1.943,-5.813 -1.994,-5.81c-0.051,0.003 -0.172,2.149 0.144,6.049c0.484,5.597 1.885,11.115 4.167,16.416c3.492,8.029 8.853,15.461 15.808,21.916c8.658,8.035 19.544,14.385 31.827,18.564z"/>
  <path id="svg_7" fill="black" d="m317.580419,44.889132c0.189,-0.212 0.328,-0.401 0.519,-0.592c6.455,-7.44 14.816,-13.731 24.536,-18.463c12.119,-5.897 25.938,-9.231 40.114,-9.678c14.176,-0.448 28.227,2.007 40.789,7.124c10.058,4.098 18.902,9.819 25.965,16.795c4.654,4.6 8.423,9.719 11.187,15.195c1.012,1.971 1.871,3.988 2.575,6.042c0,0 -1.374,-1.946 -4.235,-5.328c-4.007,-4.636 -8.694,-8.881 -13.965,-12.645c-7.61,-5.411 -16.363,-9.729 -25.869,-12.762c-11.427,-3.626 -23.715,-5.3 -36.06,-4.913c-12.345,0.387 -24.469,2.825 -35.58,7.157c-8.892,3.511 -16.992,8.164 -23.966,13.769c-1.96,-0.657 -3.967,-1.224 -6.01,-1.701z"/>
  <path id="svg_8" fill="black" d="m115.135419,147.166132c3.133,-8.91 8.467,-17.255 15.694,-24.554c7.226,-7.298 16.202,-13.405 26.408,-17.966c10.206,-4.561 21.439,-7.486 33.049,-8.606c11.611,-1.121 23.368,-0.414 34.593,2.08c3.394,0.789 6.727,1.731 9.982,2.822c0.228,1.341 0.504,2.638 0.827,3.873c-3.979,-0.881 -8.029,-1.557 -12.123,-2.022c-12.08,-1.32 -24.391,-0.735 -36.223,1.719c-20.224,4.25 -38.026,13.875 -50.393,27.246c-12.367,13.37 -18.54,29.666 -17.475,46.13c0.391,6.653 1.914,13.228 4.529,19.546c1.898,4.523 3.384,6.948 3.333,6.95c-1.856,-2.033 -3.552,-4.155 -5.079,-6.353c-4.217,-6.093 -7.187,-12.681 -8.799,-19.521c-2.504,-10.391 -1.93,-21.118 1.677,-31.344z"/>
  <path id="svg_9" fill="black" d="m53.406419,202.349132c6.24,-8.595 15.628,-15.508 26.917,-19.821c9.016,-3.431 18.949,-5.054 28.913,-4.723c1.412,0.066 2.749,0.157 4.062,0.269c-0.002,0.148 0.009,0.296 0.033,0.443c0.298,1.256 0.645,2.469 1.013,3.641c-1.579,0.083 -3.236,0.171 -4.931,0.423c-9.434,1.062 -18.451,3.82 -26.354,8.062c-7.903,4.242 -14.48,9.854 -19.223,16.402c-5.153,7.102 -7.978,15.096 -8.216,23.251c-0.189,6.843 1.415,13.632 4.711,19.94c2.308,4.43 5.399,8.575 9.182,12.314c2.759,2.7 4.549,4.059 4.525,4.081c-2.034,-0.886 -3.982,-1.889 -5.826,-3.003c-5.195,-3.069 -9.672,-6.827 -13.236,-11.109c-5.444,-6.555 -8.731,-14.089 -9.566,-21.924c-1.034,-9.815 1.756,-19.67 7.996,-28.246z"/>
  <path id="svg_10" fill="black" d="m17.420419,288.490132c1.159,-8.754 5.02,-17.167 11.244,-24.501c4.982,-5.875 11.39,-10.916 18.847,-14.83c1.28,-0.673 2.464,-1.261 3.755,-1.794c0.785,1.271 1.619,2.499 2.47,3.625c-0.8,0.587 -1.598,1.215 -2.419,1.864c-5.583,4.484 -10.265,9.615 -13.881,15.213c-4.316,6.669 -7.021,13.907 -7.975,21.34c-0.953,7.421 -0.186,14.906 2.262,22.089c2.093,6.019 5.359,11.737 9.681,16.951c3.009,3.642 6.494,7.023 10.397,10.089c2.724,2.218 4.572,3.331 4.548,3.353c-1.943,-0.633 -3.841,-1.348 -5.685,-2.142c-5.106,-2.233 -9.796,-5.007 -13.943,-8.245c-6.319,-4.955 -11.301,-10.87 -14.652,-17.395c-4.154,-8.099 -5.749,-16.889 -4.649,-25.617z"/>
  <path id="svg_11" fill="black" d="m23.036419,367.863132c0.609,-9.044 4.165,-17.828 10.325,-25.503c2.244,-2.789 4.825,-5.4 7.707,-7.798c1.049,0.691 2.067,1.304 3.055,1.857c-2.09,2.593 -3.906,5.316 -5.43,8.142c-4.396,8.077 -6.221,16.867 -5.312,25.597c0.908,8.73 4.521,17.132 10.521,24.467c6,7.335 14.203,13.379 23.887,17.6c9.684,4.221 20.553,6.489 31.651,6.605c3.176,0.046 6.355,-0.075 9.515,-0.363c0.686,0.973 1.398,1.945 2.14,2.975c-3.669,0.989 -7.443,1.71 -11.274,2.153c-11.356,1.328 -22.931,0.322 -33.602,-2.923c-10.118,-3.068 -19.141,-8.007 -26.32,-14.404c-7.178,-6.397 -12.304,-14.068 -14.95,-22.375c-1.638,-5.233 -2.283,-10.635 -1.913,-16.03z"/>
  <path id="svg_12" fill="black" d="m225.079419,440.879132c0,0 0.594,2.472 2.316,6.701c2.391,5.894 5.849,11.477 10.268,16.577c6.393,7.355 14.702,13.542 24.377,18.151c11.602,5.497 24.829,8.524 38.402,8.788c13.572,0.264 27.029,-2.245 39.069,-7.283c10.023,-4.238 18.811,-10.099 25.783,-17.196c2.202,-2.246 4.223,-4.598 6.048,-7.044c1.102,0.709 2.28,1.413 3.51,2.115c-1.279,2.595 -2.801,5.112 -4.555,7.531c-6.208,8.726 -15.03,16.128 -25.687,21.552c-9.274,4.734 -19.693,7.877 -30.575,9.221c-10.883,1.345 -21.983,0.861 -32.575,-1.42c-10.591,-2.28 -20.434,-6.306 -28.885,-11.813c-8.451,-5.507 -15.318,-12.371 -20.152,-20.143c-3.612,-5.859 -5.933,-12.166 -6.867,-18.655c-0.35,-2.349 -0.509,-4.715 -0.477,-7.082z"/>
  <path id="svg_13" fill="black" d="m592.631419,416.483132c14.609,-8.844 25.596,-20.896 31.568,-34.624c4.763,-11.017 6.064,-22.763 3.79,-34.221c-1.494,-7.55 -4.553,-14.843 -9.055,-21.588c-1.619,-2.432 -3.452,-4.77 -5.485,-6.998c1.417,2.476 2.665,5.012 3.739,7.595c2.898,6.929 4.506,14.162 4.774,21.472c0.754,18.152 -7.109,35.928 -22.048,49.841c-14.938,13.914 -35.875,22.961 -58.703,25.369c-13.32,1.39 -26.84,0.503 -39.641,-2.603c-12.121,-3.006 -23.368,-7.847 -33.117,-14.255c2.186,2.131 4.55,4.144 7.075,6.026c7.03,5.256 15.131,9.542 23.97,12.68c21.534,7.626 46.043,8.339 68.374,1.988c8.891,-2.536 17.242,-6.139 24.759,-10.682z"/>
  <path id="svg_14" fill="black" d="m356.267419,443.694132c4.927,4.141 10.529,7.748 16.661,10.726c9.696,4.734 20.611,7.717 31.969,8.737c11.358,1.021 22.883,0.053 33.755,-2.833c11.847,-3.138 22.585,-8.479 31.301,-15.571c7.298,-5.912 13.046,-12.902 16.91,-20.562c0.648,-1.266 1.196,-2.486 1.694,-3.704c1.49,0.769 3.131,1.51 4.798,2.249c-0.189,0.899 -0.424,1.86 -0.685,2.823c-2.912,10.077 -9.073,19.409 -17.883,27.087c-8.81,7.678 -19.969,13.441 -32.39,16.726c-13.794,3.653 -28.591,4.122 -42.646,1.353c-11.265,-2.224 -21.689,-6.513 -30.429,-12.52c-5.755,-3.923 -10.677,-8.549 -14.581,-13.703c-1.4,-1.856 -2.654,-3.778 -3.755,-5.757c0,0 1.757,1.946 5.281,4.949z"/>
  <path id="svg_15" fill="black" d="m623.973419,334.949132c-0.678,-1.539 -1.396,-2.934 -2.132,-4.228c1.136,-0.201 2.298,-0.404 3.482,-0.649c14.432,-2.9 27.704,-8.684 38.535,-16.793c10.831,-8.108 18.854,-18.268 23.296,-29.497c4.441,-11.23 5.15,-23.15 2.059,-34.61c-3.092,-11.46 -9.879,-22.072 -19.707,-30.813c-6.146,-5.498 -13.34,-10.204 -21.327,-13.951c-2.976,-1.408 -6.052,-2.681 -9.213,-3.812c3.423,0.642 6.783,1.469 10.059,2.475c9.093,2.777 17.481,6.802 24.781,11.89c11.114,7.731 19.468,17.627 24.245,28.717c2.846,6.619 4.406,13.547 4.629,20.551c0.253,7.583 -1.083,15.159 -3.955,22.419c-2.881,7.232 -7.228,14.056 -12.869,20.206c-9.976,10.854 -23.719,19.203 -39.547,24.023c-6.414,1.96 -13.102,3.291 -19.914,3.964l-2.422,0.108z"/>
  <path id="svg_16" fill="black" d="m636.558419,124.101132c8.693,2.229 16.765,5.733 23.794,10.328c11.01,7.181 19.116,16.75 23.332,27.545c4.216,10.794 4.361,22.349 0.417,33.261c-2.451,6.768 -6.44,13.137 -11.772,18.795c-1.938,-1.29 -3.867,-2.46 -5.736,-3.512c4.682,-6.969 7.582,-14.589 8.534,-22.421c0.952,-7.833 -0.063,-15.724 -2.987,-23.22c-5.762,-14.732 -18.548,-27.08 -35.673,-34.451c0.191,-2.106 0.222,-4.218 0.091,-6.325z"/>
  <path id="svg_17" fill="black" d="m478.742419,35.616132c12.115,-0.869 24.267,0.955 35.082,5.267c10.789,4.31 19.834,10.902 26.133,19.047c3.558,4.63 6.147,9.687 7.667,14.979c-2.385,0.585 -4.725,1.282 -7.008,2.087c-6.196,-11.988 -17.669,-21.779 -32.321,-27.582c-9.048,-3.625 -19.031,-5.587 -29.207,-5.74c-8.112,-0.127 -16.201,0.862 -23.905,2.923c-1.021,-1.339 -2.173,-2.711 -3.456,-4.137c8.27,-3.827 17.497,-6.164 27.015,-6.844z"/>
  <path id="svg_18" fill="black" d="m618.611419,89.982132c-9.437,-8.139 -21.791,-13.818 -35.444,-16.291c-10.942,-1.954 -22.347,-1.752 -33.212,0.59c-7.106,1.517 -13.844,3.977 -19.922,7.275c-2.186,1.182 -4.268,2.48 -6.234,3.884c0,0 2.476,-1.101 7.099,-2.578c6.466,-2.042 13.258,-3.354 20.174,-3.896c10.856,-0.892 21.804,0.224 31.977,3.259c10.173,3.036 19.291,7.907 26.631,14.227c7.971,6.873 13.586,15.245 16.321,24.332c2.272,7.607 2.496,15.519 0.658,23.225c-1.241,5.367 -3.436,10.574 -6.52,15.468c-2.296,3.514 -3.873,5.354 -3.846,5.373c1.927,-1.43 3.735,-2.956 5.415,-4.568c4.671,-4.493 8.357,-9.568 10.903,-15.014c6.172,-13.438 5.456,-28.206 -1.996,-41.143c-3.028,-5.19 -7.079,-9.963 -12.004,-14.143z"/>
  <path id="svg_19" fill="black" d="m251.534419,59.375132c-8.207,7.079 -13.758,15.815 -16.025,25.219c-1.834,7.533 -1.466,15.283 1.077,22.657c1.637,4.877 4.254,9.51 7.752,13.722c1.232,1.516 2.596,2.962 4.083,4.326c0,0 -1.124,-1.696 -2.643,-4.907c-2.132,-4.472 -3.513,-9.15 -4.108,-13.915c-0.859,-6.819 -0.054,-13.715 2.372,-20.316c2.938,-7.91 8.161,-15.187 15.256,-21.254c7.095,-6.067 15.868,-10.759 25.625,-13.703c8.138,-2.456 16.784,-3.662 25.47,-3.551c6.041,0.088 12.035,0.795 17.833,2.103c4.163,0.93 6.419,1.679 6.419,1.679c-1.847,-1.055 -3.782,-2.011 -5.791,-2.863c-5.581,-2.394 -11.611,-4.077 -17.87,-4.988c-10.722,-1.528 -21.782,-0.878 -32.144,1.889c-10.362,2.767 -19.686,7.561 -27.099,13.931l-0.207,-0.029z"/>
  <path id="svg_20" fill="#181415" d="m127.227419,205.446132c-3.585,6.215 -4.912,13.083 -3.83,19.83c0.865,5.419 3.29,10.599 7.09,15.144c2.449,2.962 5.478,5.596 8.977,7.805c1.269,0.8 2.599,1.537 3.984,2.207c0,0 -1.247,-0.961 -3.173,-2.863c-6.606,-6.439 -10.394,-14.403 -10.803,-22.714c-0.247,-5.847 1.234,-11.67 4.325,-17.009c3.091,-5.338 7.708,-10.045 13.484,-13.748c4.837,-3.075 10.36,-5.402 16.277,-6.859c4.11,-1.002 8.363,-1.578 12.652,-1.715c3.094,-0.164 4.829,0.026 4.828,0.009c-1.55,-0.385 -3.129,-0.694 -4.728,-0.925c-4.456,-0.628 -9.014,-0.7 -13.51,-0.211c-7.7,0.842 -15.017,3.217 -21.263,6.901c-6.245,3.684 -11.213,8.555 -14.436,14.155l0.126,-0.007z"/>
  <path id="svg_21" fill="#181415" d="m237.592419,436.768132c9.522,0.423 19.368,-0.91 28.425,-3.848c7.243,-2.355 13.757,-5.686 19.048,-9.741c3.482,-2.662 6.356,-5.612 8.516,-8.742c0.781,-1.12 1.453,-2.264 2.009,-3.423c0,0 -1.004,1.15 -3.121,3.087c-2.952,2.683 -6.377,5.154 -10.194,7.352c-5.513,3.154 -11.789,5.665 -18.487,7.397c-8.019,2.06 -16.444,2.94 -24.613,2.571c-8.169,-0.369 -15.858,-1.977 -22.464,-4.697c-5.503,-2.29 -10.138,-5.301 -13.651,-8.87c-2.455,-2.468 -4.352,-5.176 -5.642,-8.054c-0.929,-2.078 -1.208,-3.295 -1.232,-3.292c-0.131,1.183 -0.147,2.361 -0.047,3.527c0.276,3.239 1.351,6.366 3.185,9.268c3.148,4.964 8.311,9.171 15.004,12.226c6.694,3.055 14.699,4.858 23.264,5.239z"/>
  <path id="svg_22" fill="#181415" d="m637.830419,190.178132c-3.181,-6.223 -8.499,-11.611 -15.359,-15.56c-5.51,-3.135 -11.859,-5.235 -18.57,-6.143c-4.402,-0.607 -8.904,-0.661 -13.34,-0.161c-1.602,0.185 -3.189,0.451 -4.749,0.797c1.591,-0.035 3.182,0.002 4.766,0.111c4.233,0.247 8.403,0.929 12.405,2.028c5.766,1.598 11.082,4.058 15.659,7.245c5.455,3.812 9.708,8.578 12.424,13.923c2.715,5.345 3.82,11.125 3.229,16.886c-0.528,4.809 -2.209,9.503 -4.954,13.83c-1.892,3.001 -4.262,5.8 -7.053,8.329c-2.04,1.804 -3.329,2.7 -3.328,2.72c5.339,-2.377 9.966,-5.64 13.561,-9.562c4.508,-4.927 7.368,-10.666 8.31,-16.681c0.943,-6.014 -0.061,-12.107 -2.92,-17.706l-0.081,-0.056z"/>
  <path id="svg_23" fill="#181415" d="m408.723419,414.403132c-8.727,1.097 -17.648,0.108 -25.614,-2.841c-3.535,-1.211 -6.916,-2.681 -10.1,-4.391c2.359,2.538 5.209,4.764 8.448,6.599c3.567,2.09 7.54,3.713 11.768,4.807c5.362,1.365 11.078,1.658 16.641,0.854c5.509,-0.826 10.719,-2.628 15.237,-5.27c3.585,-2.114 6.712,-4.673 9.258,-7.578c2.365,-2.566 4.167,-5.426 5.329,-8.459c-2.294,2.46 -4.892,4.735 -7.756,6.791c-6.47,4.817 -14.515,8.106 -23.211,9.488z"/>
  <path id="svg_24" fill="#181415" d="m590.977419,377.520132c3.641,-4.203 5.899,-9.05 6.569,-14.099c0.495,-3.997 0.194,-8.026 -0.891,-11.94c-0.869,-3.553 -2.388,-6.983 -4.507,-10.184c0.94,3.439 1.467,6.944 1.574,10.467c0.153,3.712 -0.253,7.428 -1.21,11.071c-1.122,4.316 -3.328,8.417 -6.487,12.061c-6.734,7.78 -16.618,12.471 -23.982,15.193c-4.049,1.525 -8.254,2.771 -12.569,3.724c4.577,-0.016 9.134,-0.531 13.543,-1.529c4.934,-1.014 9.67,-2.567 14.07,-4.614c5.505,-2.548 10.246,-6.012 13.89,-10.15z"/>
  <path id="svg_25" fill="#181415" d="m442.009419,53.818132c-9.099,-0.302 -18.168,1.199 -26.381,4.367c-6.507,2.516 -12.484,5.817 -17.714,9.783c-4.794,3.512 -8.93,7.546 -12.281,11.977c4.574,-3.494 9.556,-6.638 14.879,-9.389c5.571,-2.942 11.556,-5.36 17.83,-7.205c7.432,-2.195 15.338,-3.184 23.241,-2.908c16.849,0.56 31.177,6.423 40.863,11.442c5.312,2.708 10.309,5.78 14.934,9.182c-3.383,-4.362 -7.519,-8.329 -12.289,-11.786c-5.163,-3.913 -10.999,-7.232 -17.338,-9.862c-7.946,-3.33 -16.733,-5.241 -25.744,-5.601z"/>
  <path id="svg_26" fill="#181415" d="m634.545419,258.251132c2.306,4.673 3.675,9.607 4.059,14.625c0.498,6.315 -0.887,12.647 -4.044,18.486c-3.341,5.824 -8.399,10.939 -14.748,14.916c-4.92,3.13 -10.309,5.769 -16.042,7.856c-2.813,1.038 -5.338,1.818 -7.494,2.417c-0.054,-0.724 -0.105,-1.408 -0.379,-1.999c1.722,-0.92 3.688,-1.993 5.797,-3.215c4.78,-2.764 9.274,-5.824 13.438,-9.152c4.925,-3.842 8.923,-8.358 11.797,-13.325c4.803,-9.403 6.071,-19.679 3.65,-29.591c-0.889,-4.328 -2.312,-8.573 -4.246,-12.676c3.468,3.532 6.237,7.463 8.212,11.658z"/>
  <path id="svg_27" fill="#181415" d="m106.903419,375.551132c2.375,4.792 6.47,8.924 11.785,11.893c8.047,4.342 17.693,6.475 27.468,6.074c-4.315,-0.815 -8.502,-1.994 -12.491,-3.517c-4.193,-1.535 -8.082,-3.538 -11.546,-5.95c-4.065,-2.837 -7.214,-6.399 -9.192,-10.395c-2.055,-4.071 -3.241,-8.388 -3.512,-12.776c-0.16,-3.624 0.434,-7.25 1.758,-10.733c1.276,-3.355 3.263,-6.519 5.876,-9.357c-1.001,0.57 -1.937,1.208 -2.8,1.905c-2.387,1.89 -4.424,4.038 -6.047,6.378c-2.42,3.61 -3.867,7.571 -4.248,11.633c-0.439,5.069 0.569,10.142 2.949,14.845z"/>
  <path id="svg_28" fill="#181415" d="m79.167419,318.913132c0.377,-4.056 1.825,-8.012 4.25,-11.613c1.615,-2.372 3.649,-4.554 6.04,-6.478c0.857,-0.696 1.795,-1.327 2.801,-1.885c-2.614,2.83 -4.602,5.988 -5.878,9.337c-1.337,3.487 -1.931,7.122 -1.755,10.753c0.221,4.378 1.355,8.69 3.357,12.764c1.977,3.996 5.127,7.558 9.192,10.395c3.464,2.412 7.352,4.415 11.546,5.95l0.342,0.123c-0.209,0.294 -0.418,0.568 -0.625,0.881c-0.207,0.314 -0.597,0.92 -0.893,1.401c-4.949,-0.98 -9.625,-2.661 -13.801,-4.962c-5.315,-2.973 -9.417,-7.103 -11.811,-11.892c-2.289,-4.695 -3.233,-9.74 -2.765,-14.774z"/>
  <path id="svg_29" fill="#181415" d="m254.784419,127.078132c0.288,-2.501 1.061,-4.955 2.291,-7.277c1.571,-2.922 3.975,-5.521 7.025,-7.594c3.122,-2.014 6.803,-3.411 10.735,-4.076c3.079,-0.548 6.23,-0.79 9.378,-0.719c1.528,0.036 2.877,0.122 4.029,0.231c-0.141,0.334 -0.265,0.668 -0.391,0.989c-1.04,0.055 -2.219,0.248 -3.498,0.434c-2.906,0.399 -5.767,0.988 -8.554,1.762c-3.27,0.862 -6.317,2.19 -8.99,3.917c-4.793,3.379 -8.254,7.775 -9.963,12.656c-0.818,2.099 -1.384,4.254 -1.691,6.434c-0.547,-2.222 -0.673,-4.5 -0.371,-6.757z"/>
 </g>
</svg>