<svg width="367" height="135" viewBox="0 0 367 135" fill="none" xmlns="http://www.w3.org/2000/svg">
<path fill-rule="evenodd" clip-rule="evenodd" d="M126.56 129.917L128.813 129.684L161.759 124.827L163.997 124.548L171.527 123.648L172.336 123.634L203.671 118.376L205.914 118.03C224.607 115.153 244.259 110.077 263.109 105.113C276.422 101.61 304.623 92.3854 315.469 87.8769C395.499 54.6075 378.123 2.87834 286.77 0.496636C231.479 -0.942959 153.714 10.9271 102.195 28.5623C95.7039 30.7841 87.2484 34.1613 80.6686 36.6489C72.0714 39.896 69.4283 41.5462 61.2341 44.9868C57.9568 46.3651 45.3025 52.6198 42.4369 54.3008C36.482 57.7904 30.3143 61.1643 23.4558 65.3733C11.1768 72.9069 4.80957 80.6771 1.76017 90.1262C-0.583922 97.3566 2.48922 103.245 6.14024 109.567C10.1762 116.544 17.7149 122.816 28.2733 127.459C44.4015 134.547 60.5265 135.55 85.467 134.198C89.9009 133.954 96.0005 133.302 100.115 133.145C106.473 132.905 120.391 130.908 126.606 129.951L126.56 129.917ZM20.7868 75.396C14.1213 80.9119 12.4685 84.6201 7.24677 90.9222C4.53501 91.1773 8.92251 82.9348 10.0479 81.2833C12.872 77.1185 16.0346 74.3626 21.4479 70.3588C31.1088 63.2145 40.4928 57.9087 52.4099 51.9782C65.979 45.2339 73.259 41.4435 87.4642 36.2487C95.5996 33.2696 118.622 24.1998 126.87 22.64C124.351 24.6718 104.984 30.4988 94.5412 34.5653C74.8762 42.1962 54.6813 52.606 39.5434 62.1268C32.6366 66.4045 26.3637 70.8347 20.7837 75.3758L20.7868 75.396ZM317.464 12.5332C322.699 10.6913 345.726 22.6403 348.249 24.4763C356.061 30.1536 358 36.5313 355.838 44.787C355.113 47.5615 341.556 62.0785 336.223 65.9732C327.271 72.5041 318.284 78.4879 302.521 83.6842C252.86 100.049 192.138 113.727 131.168 120.946C116.233 122.717 98.6832 124.054 86.9524 125.079C83.0449 125.421 70.9279 124.886 67.7815 124.69C59.6369 124.182 55.5664 123.044 48.043 121.774C35.7282 119.691 23.3065 115.911 14.8955 111.3C11.9167 109.662 11.8229 107.735 15.6573 110.24C17.4567 111.386 20.4295 112.14 22.995 113.255C27.8274 115.336 34.1196 116.516 40.1282 117.276C69.8482 121.036 88.5725 120.526 125.837 116.517C136.558 115.364 139.457 115.111 147.285 114.197C154.374 113.382 162.498 111.962 166.807 111.751C173.249 111.43 194.19 106.5 203.854 105.013L204.646 104.891C220.271 102.485 249.272 94.3016 265.334 88.5689C292.875 78.7484 297.435 77.2176 319.161 65.8951C328.814 60.8622 334.127 55.9932 339.12 51.1077C349.713 40.8428 349.004 32.2311 337.435 21.8132C333.849 19.6022 331.556 18.5184 328.394 16.6427C327.01 15.8196 317.169 13.0932 317.505 12.5338L317.464 12.5332ZM299.413 3.86935C312.013 5.32836 317.944 5.79349 329.998 9.29481C389.016 26.4591 365.834 71.5037 290.78 94.3987C270.113 100.688 244.508 108.843 223.62 112.542C208.397 115.231 203.411 116.796 182.435 120.021C165.97 122.556 142.95 125.577 130.929 127.455C92.4067 133.468 59.0241 135.912 32.4491 126.91C28.6479 125.623 13.2671 116.959 14.7544 114.865C22.9834 118.189 30.9697 120.04 40.6219 122.54C45.3964 123.77 49.3781 123.91 55.121 125.054C60.864 126.197 80.6147 127.875 88.7329 126.787C93.9334 126.094 100.605 126.259 106.115 125.411C109.706 124.858 122.406 123.594 123.837 123.505C133.181 122.843 145.664 121.115 157.071 119.359L159.315 119.014C167.495 117.755 179.21 115.727 189.735 113.831C194.947 112.89 195.394 113.056 204.603 111.304C211.43 110.004 213.28 109.315 222.202 107.6C230.005 106.099 248.05 101.176 253.473 99.8684C265.469 96.9857 270.624 95.3081 280.942 92.4835C306.219 85.5672 320.645 80.2244 336.003 69.2329C374.173 41.9027 367.687 24.8102 322.401 10.8131C317.033 9.15268 301.832 6.93007 291.049 5.889C282.491 5.06504 277.001 4.25216 256.138 3.83706C271.608 0.319576 285.464 2.24147 299.444 3.86108L299.413 3.86935ZM165.614 110.225C124.25 116.592 75.8426 120.016 50.3487 116.877C33.2748 114.77 19.2016 112.388 11.953 104.31C5.1763 96.767 11.9847 89.965 20.2559 80.1714C26.7073 72.5264 44.1449 63.6048 56.1478 56.5973C67.0867 50.2164 90.9777 42.2562 101.526 38.2943C104.963 37.0021 109.848 36.0532 113.665 34.7542C116.149 33.9126 125.196 31.3215 127.501 30.6938C136.645 28.2019 144.876 25.4774 152.489 23.6908C163.784 21.0439 192.314 13.5439 206.29 11.3927L211.522 10.5873C227.503 8.12736 255.802 7.08017 271.512 7.13133C290.405 7.18663 307.641 11.8762 320.046 15.8139C345.334 26.2063 342.957 38.1284 335.31 50.7651C328.041 60.7914 302.977 71.7814 285.725 79.0649C276.444 82.9837 263.217 87.0989 252.276 90.7758C231.615 97.6827 200.78 104.816 170.855 109.422L165.614 110.225ZM129.19 32.6996C129.19 32.6996 127.742 32.577 127.639 32.5928C125.071 32.9882 118.356 36.1252 118.027 36.2034C115.208 36.8688 112.001 38.1223 108.405 39.0661C104.556 40.114 100.812 41.2745 97.2047 42.5376C95.848 43.002 88.2976 46.0914 86.8407 46.0636L87.0858 47.6561C92.8564 46.5537 102.172 41.8075 109.095 40.1789C115.642 38.6358 125.721 35.7341 129.19 32.6996ZM49.7599 68.978C55.4669 64.7736 61.6639 60.0102 70.9538 56.3076L69.9221 55.5097C62.5768 57.4002 45.8228 66.9661 46.1265 69.9414L49.7599 68.978ZM127.258 26.1101C133.569 24.4031 178.919 13.7752 183.707 13.8776C183.036 14.4229 161.288 19.4904 157.327 20.3765C148.697 22.3058 141.578 24.4516 133.029 26.8036C125.618 28.8458 119.013 31.2199 110.094 33.646C104.643 35.1345 102.359 36.1146 97.6802 37.3494C93.6625 38.3996 89.0596 41.0249 86.0645 40.9679C87.7872 39.5595 102.588 34.4906 107.517 32.347C113.296 29.8272 119.561 28.1929 127.266 26.1089L127.258 26.1101ZM117.979 109.068C115.003 107.765 99.9975 109.553 95.9466 110.176C83.9209 112.028 62.356 110.374 50.794 110.281C51.813 113.105 80.1471 111.182 83.7279 111.512C87.0187 111.803 114.377 110.286 117.979 109.068ZM28.572 91.2835C28.9944 90.9698 29.4247 90.6549 29.8556 90.3433C30.2513 88.3276 33.2225 85.8567 32.292 84.5562L30.032 84.7936C29.8996 86.0953 26.8995 88.9056 26.1811 90.6706L28.572 91.2835ZM35.6664 81.6468L40.226 77.4221C39.744 77.296 39.2694 77.1653 38.787 77.0358L36.8638 77.3007C34.7926 79.6607 33.894 79.0945 32.6752 82.09L35.6664 81.6468ZM316.95 34.8199L313.917 34.2507C315.489 40.4017 313.951 47.76 310.584 52.6095C307.925 56.4242 293.667 68.2928 285.069 70.6352C287.994 73.397 304.568 61.4515 307.101 58.8202C310.06 55.7433 312.063 54.5783 314.518 51.2268C318.756 45.4455 317.408 40.3757 316.95 34.8199ZM313.28 30.1111C314.031 29.1941 308.05 24.2331 307.23 23.4439C305.324 21.5996 303.864 20.4462 298.697 18.5682C292.407 16.2934 292.992 14.6629 284.91 13.9798C277.905 13.3899 267.673 10.551 257.955 13.8462C258.46 14.069 263.114 13.5701 267.692 13.8394C274.005 14.2009 280.905 15.325 283.449 15.455C288.703 15.7445 288.404 16.4398 291.642 17.6995C295.96 19.3937 301.355 20.1243 304.279 23.463C305.628 25.003 311.023 30.8937 313.247 30.1058L313.28 30.1111ZM134.609 32.0554C136.142 31.474 149.697 27.2738 153.502 26.6881C161.429 25.4679 159.619 25.1975 164.329 23.6885C166.068 23.1272 174.24 21.966 175.751 21.7161L187.58 19.1632C189.715 18.6963 189.85 18.5686 191.334 18.4091L206.829 14.8981C204.558 13.9041 200.369 15.105 196.274 15.9116L193.271 16.3324C189.902 16.9614 191.148 16.9872 188.08 17.4594C184.521 18.0073 165.881 22.3858 161.288 23.6557C157.986 24.5543 150.022 25.7974 146.914 26.856C142.434 28.3814 135.786 30.1059 131.196 31.9244L134.614 32.0892L134.609 32.0554ZM240.805 86.5837C242.391 86.3397 249.154 83.6235 253.938 82.2793C257.743 81.2136 263.917 80.1526 263.994 78.1237C257.184 80.6433 240.707 84.1502 237.728 86.7293C237.972 86.7332 240.76 86.6079 240.776 86.6055L240.805 86.5837Z" fill="url(#paint0_linear_1065_19926)"/>
<defs>
<linearGradient id="paint0_linear_1065_19926" x1="169.625" y1="10.984" x2="189.2" y2="138.153" gradientUnits="userSpaceOnUse">
<stop stop-color="#FF9323"/>
<stop offset="1" stop-color="#FFF02E"/>
</linearGradient>
</defs>
</svg>
