<svg width="920" height="810" viewBox="0 0 920 810" fill="none" xmlns="http://www.w3.org/2000/svg">
<path d="M111.717 514.551C112.413 503.759 116.666 493.275 124.055 484.136C124.461 483.63 124.883 483.123 125.323 482.616C118.138 476.105 112.73 468.49 109.431 460.242C106.132 451.993 105.011 443.284 106.139 434.651C107.24 426.057 110.553 417.718 115.874 410.144C121.195 402.571 128.411 395.924 137.081 390.611C131.937 377.233 133.067 362.802 140.264 349.946C147.461 337.09 160.246 326.666 176.289 320.572C183.86 317.679 191.997 315.841 200.34 315.137L200.569 315.125C200.293 307.216 201.531 299.309 204.242 291.671C209.395 277.096 219.651 263.934 233.825 253.705C247.998 243.476 265.513 236.596 284.348 233.859C286.726 233.511 289.162 233.241 291.602 233.03C302.197 232.139 312.891 232.566 323.29 234.298C323.512 232.812 323.787 231.364 324.141 229.932C326.893 218.653 333.59 208.184 343.473 199.715C353.355 191.247 366.025 185.117 380.043 182.025C384.107 181.137 388.252 180.505 392.437 180.136C399.541 179.533 406.709 179.71 413.735 180.662C429.615 165.402 452.436 155.665 477.228 153.572C479.342 153.46 481.508 153.345 483.598 153.234C497.262 152.781 510.864 154.676 523.462 158.787C536.061 162.899 547.357 169.128 556.568 177.046C563.304 174.865 570.391 173.449 577.615 172.841L578.966 172.769C593.442 171.729 607.965 173.899 620.9 179.034C633.834 184.17 644.666 192.068 652.175 201.838C654.246 204.512 656.046 207.313 657.558 210.214L660.782 209.882C681.682 208.136 702.567 212.784 719.131 222.867C735.695 232.951 746.675 247.701 749.808 264.076C757.038 266.565 763.784 269.843 769.849 273.815C782.736 282.23 792.224 293.436 797.162 306.076C802.101 318.715 802.279 332.245 797.674 345.025C795.871 350.042 793.33 354.879 790.103 359.438C799.651 367.461 806.92 377.006 811.43 387.442C814.704 395.015 816.494 402.946 816.742 410.964C817.041 419.639 815.509 428.304 812.208 436.604C805.844 452.686 793.179 466.793 776.048 476.883C768.714 481.223 760.66 484.742 752.117 487.338C748.572 488.4 744.96 489.313 741.295 490.072C741.54 491.069 741.768 492.066 741.979 493.065C744.596 506.145 743.12 519.559 737.681 532.138C731.219 547.175 719.425 560.458 703.708 570.401C687.99 580.343 669.016 586.523 649.054 588.202C647.398 588.29 645.742 588.377 644.162 588.461C630.13 589.145 616.09 587.582 602.889 583.866C599.53 590.93 594.743 597.526 588.716 603.394C578.059 613.864 563.859 621.734 547.789 626.077C541.689 627.697 535.388 628.782 528.998 629.315C518.591 630.207 508.081 629.651 497.947 627.67C492.295 626.547 486.804 624.978 481.558 622.987C474.403 632.386 464.606 640.368 452.933 646.31C440.847 652.476 427.106 656.305 412.836 657.482C408.878 657.834 404.896 657.964 400.919 657.871C391.45 657.712 382.085 656.369 373.173 653.891C364.916 651.611 357.129 648.399 350.052 644.356C338.172 637.586 328.617 628.591 322.235 618.17C320.166 614.829 318.46 611.353 317.136 607.78C310.558 609.454 303.785 610.591 296.924 611.173C295.293 611.26 293.637 611.348 292.006 611.434C276.637 612.171 261.291 610.067 247.189 605.29C233.2 600.548 220.797 593.332 210.927 584.196C209.579 582.935 208.176 581.616 206.983 580.367C205.668 580.578 204.454 580.764 203.084 580.917L199.835 581.251C187.34 582.297 174.733 580.994 163.046 577.448C147.171 572.651 133.661 564.005 124.446 552.742C115.231 541.48 110.781 528.177 111.731 514.732L111.717 514.551Z" fill="#181415"/>
<path d="M124.465 515.005C125.074 505.962 128.63 497.177 134.79 489.503C137.034 486.714 139.615 484.102 142.497 481.705C141.064 480.785 139.605 479.751 138.121 478.605C131.803 473.65 126.82 467.735 123.469 461.211C119.249 453.098 117.634 444.273 118.765 435.515C119.896 426.758 123.739 418.337 129.955 410.997C134.937 405.122 141.345 400.081 148.802 396.168C150.082 395.494 151.266 394.906 152.557 394.373C148.253 387.339 146.199 379.566 146.573 371.731C146.946 363.897 149.737 356.237 154.702 349.417C160.942 340.823 170.329 333.91 181.618 329.597C190.634 326.165 200.567 324.543 210.531 324.874C211.943 324.94 213.28 325.031 214.593 325.143C214.592 325.291 214.603 325.439 214.626 325.585L215.057 327.238C215.015 326.675 214.745 326.144 214.601 325.587C212.121 315.19 212.721 304.462 216.355 294.239C219.488 285.329 224.822 276.984 232.048 269.685C239.275 262.387 248.25 256.28 258.456 251.719C268.662 247.158 279.895 244.233 291.506 243.113C303.116 241.992 314.873 242.699 326.098 245.193C329.492 245.982 332.826 246.924 336.081 248.015C335.127 242.589 335.303 237.07 336.601 231.674C339.812 218.39 349.551 206.61 363.684 198.916C377.817 191.221 395.191 188.241 411.997 190.627C414.301 190.977 416.58 191.422 418.824 191.961C418.973 191.756 419.138 191.559 419.317 191.37C425.773 183.93 434.134 177.639 443.854 172.907C455.973 167.01 469.792 163.676 483.968 163.229C498.144 162.781 512.195 165.236 524.757 170.353C534.815 174.451 543.659 180.172 550.722 187.148C551.495 187.914 552.245 188.703 552.94 189.453C562.343 185.115 572.952 182.698 583.8 182.423C594.647 182.148 605.387 184.023 615.037 187.877C625.826 192.186 634.871 198.778 641.17 206.923C644.728 211.553 647.317 216.61 648.837 221.902L651.35 221.304C662.215 218.963 673.62 218.76 684.562 220.714C694.894 222.576 704.529 226.284 712.731 231.553C720.932 236.823 727.483 243.514 731.88 251.115C734.652 255.913 736.515 261.011 737.409 266.247C737.712 267.907 737.858 269.515 737.951 271.105C746.644 273.334 754.716 276.837 761.745 281.432C772.755 288.614 780.861 298.183 785.077 308.977C789.293 319.772 789.438 331.326 785.494 342.238C783.043 349.006 779.054 355.376 773.722 361.033C774.206 361.351 774.689 361.648 775.174 361.986C786.288 369.717 794.643 379.613 799.42 390.703C802.266 397.322 803.826 404.25 804.049 411.253C804.302 418.837 802.966 426.412 800.094 433.672C797.212 440.905 792.866 447.729 787.225 453.879C777.249 464.733 763.505 473.081 747.677 477.902C741.264 479.862 734.576 481.193 727.764 481.865L725.343 481.994C727.209 486.108 728.579 490.355 729.436 494.678C731.71 506.136 730.409 517.882 725.646 528.9C719.692 542.667 708.696 554.756 694.06 563.626C679.415 572.414 661.813 577.566 643.515 578.42C628.832 579.147 614.177 577.034 600.82 572.265C598.612 571.473 596.605 570.631 594.675 569.784C594.486 570.683 594.251 571.644 593.99 572.607C591.077 582.684 584.916 592.016 576.106 599.694C567.297 607.372 556.138 613.134 543.717 616.42C529.922 620.072 515.125 620.542 501.071 617.773C491.372 615.86 482.276 612.421 474.326 607.662L476.146 608.737C474.867 611.332 473.345 613.849 471.591 616.267C465.383 624.994 456.561 632.396 445.904 637.819C436.631 642.554 426.212 645.696 415.329 647.041C404.446 648.385 393.346 647.901 382.754 645.621C372.163 643.34 362.32 639.315 353.869 633.808C345.418 628.3 338.551 621.436 333.717 613.664C330.106 607.806 327.784 601.498 326.85 595.009C326.816 594.546 326.783 594.104 326.751 593.682C325.462 594.235 324.095 594.771 322.651 595.292C311.608 599.247 299.663 601.353 287.575 601.476C275.487 601.599 263.519 599.737 252.431 596.007C235.769 590.391 221.795 580.781 212.469 568.527C208.799 569.516 205.025 570.237 201.194 570.68C189.838 572.008 178.264 571.002 167.592 567.757C157.475 564.689 148.451 559.75 141.273 553.353C134.094 546.956 128.969 539.285 126.322 530.978C124.71 525.762 124.084 520.379 124.465 515.005ZM336.779 250.179C336.764 250.14 336.761 250.098 336.77 250.058L336.779 250.179ZM724.477 479.98C724.775 480.55 725.051 481.161 725.354 481.791C724.944 481.106 724.669 480.495 724.37 479.925L724.477 479.98Z" fill="#181415"/>
<path fill-rule="evenodd" clip-rule="evenodd" d="M145.385 481.33C137.891 475.488 132.161 468.386 128.615 460.543C125.07 452.7 123.8 444.315 124.896 436.003C125.993 427.692 129.43 419.664 134.955 412.509C140.479 405.354 147.952 399.252 156.824 394.652C153.095 387.718 151.49 380.175 152.138 372.632C152.786 365.089 155.669 357.758 160.554 351.229C165.44 344.7 172.191 339.156 180.262 335.046C188.334 330.935 197.501 328.372 207.023 327.564C210.743 327.249 214.49 327.199 218.216 327.414C218.131 326.268 217.816 325.134 217.678 323.97C216.154 311.916 218.605 299.729 224.792 288.593C230.98 277.457 240.695 267.749 252.994 260.411C265.293 253.074 279.759 248.355 294.988 246.713C310.218 245.072 325.693 246.563 339.914 251.043C339.878 250.56 339.842 250.077 339.678 249.601C338.637 241.352 340.133 233.009 344.039 225.281C347.945 217.552 354.146 210.666 362.117 205.207C370.087 199.748 379.591 195.876 389.822 193.92C400.054 191.964 410.712 191.982 420.893 193.972C428.694 186.023 438.66 179.559 450.042 175.063C461.423 170.568 473.926 168.159 486.61 168.017C499.294 167.875 511.831 170.003 523.278 174.243C534.726 178.482 544.787 184.722 552.706 192.494C559.934 189.567 567.777 187.72 575.835 187.048C591.419 185.721 607.048 188.796 619.945 195.727C632.842 202.659 642.17 212.997 646.272 224.905C649.993 224.078 653.791 223.491 657.627 223.152C666.67 222.383 675.801 223.028 684.498 225.048C693.196 227.069 701.29 230.426 708.318 234.928C715.346 239.431 721.17 244.989 725.458 251.288C729.746 257.586 732.414 264.499 733.309 271.634C733.34 272.056 733.372 272.479 733.405 272.921C744.127 275.872 753.826 280.737 761.751 287.139C769.676 293.542 775.614 301.31 779.107 309.843C782.6 318.376 783.554 327.446 781.895 336.35C780.236 345.255 776.008 353.755 769.539 361.195C781.902 369.852 790.822 381.153 795.239 393.753C799.655 406.353 799.38 419.72 794.447 432.26C789.513 444.801 780.13 455.987 767.414 464.486C754.698 472.985 739.187 478.437 722.727 480.195C728.169 493.813 728.359 508.433 723.275 522.205C718.191 535.978 708.061 548.284 694.166 557.566C680.27 566.849 663.235 572.692 645.214 574.355C627.193 576.018 608.996 573.427 592.925 566.909C590.35 576.557 584.828 585.579 576.841 593.188C568.854 600.798 558.644 606.762 547.105 610.561C535.566 614.359 523.048 615.876 510.644 614.979C498.241 614.083 486.328 610.799 475.949 605.416C469.248 617.733 457.677 628.03 442.978 634.753C428.28 641.477 411.252 644.264 394.46 642.693C377.669 641.123 362.023 635.28 349.883 626.047C337.742 616.813 329.764 604.689 327.151 591.501C307.668 598.15 285.92 599.27 265.625 594.667C245.33 590.065 227.747 580.026 215.882 566.267C211.933 567.197 207.888 567.844 203.798 568.2C190.451 569.338 177.01 567.311 165.193 562.376C153.377 557.441 143.722 549.824 137.462 540.497C131.202 531.171 128.622 520.559 130.051 510.018C131.481 499.478 136.855 489.487 145.487 481.324L145.385 481.33Z" fill="#EF0A26"/>
<path fill-rule="evenodd" clip-rule="evenodd" d="M145.385 481.33C137.891 475.488 132.161 468.386 128.615 460.543C125.07 452.7 123.8 444.315 124.896 436.003C125.993 427.692 129.43 419.664 134.955 412.509C140.479 405.354 147.952 399.252 156.824 394.652C153.095 387.718 151.49 380.175 152.138 372.632C152.786 365.089 155.669 357.758 160.554 351.229C165.44 344.7 172.191 339.156 180.262 335.046C188.334 330.935 197.501 328.372 207.023 327.564C210.743 327.249 214.49 327.199 218.216 327.414C218.131 326.268 217.816 325.134 217.678 323.97C216.154 311.916 218.605 299.729 224.792 288.593C230.98 277.457 240.695 267.749 252.994 260.411C265.293 253.074 279.759 248.355 294.988 246.713C310.218 245.072 325.693 246.563 339.914 251.043C339.878 250.56 339.842 250.077 339.678 249.601C338.637 241.352 340.133 233.009 344.039 225.281C347.945 217.552 354.146 210.666 362.117 205.207C370.087 199.748 379.591 195.876 389.822 193.92C400.054 191.964 410.712 191.982 420.893 193.972C428.694 186.023 438.66 179.559 450.042 175.063C461.423 170.568 473.926 168.159 486.61 168.017C499.294 167.875 511.831 170.003 523.278 174.243C534.726 178.482 544.787 184.722 552.706 192.494C559.934 189.567 567.777 187.72 575.835 187.048C591.419 185.721 607.048 188.796 619.945 195.727C632.842 202.659 642.17 212.997 646.272 224.905C649.993 224.078 653.791 223.491 657.627 223.152C666.67 222.383 675.801 223.028 684.498 225.048C693.196 227.069 701.29 230.426 708.318 234.928C715.346 239.431 721.17 244.989 725.458 251.288C729.746 257.586 732.414 264.499 733.309 271.634C733.34 272.056 733.372 272.479 733.405 272.921C744.127 275.872 753.826 280.737 761.751 287.139C769.676 293.542 775.614 301.31 779.107 309.843C782.6 318.376 783.554 327.446 781.895 336.35C780.236 345.255 776.008 353.755 769.539 361.195C781.902 369.852 790.822 381.153 795.239 393.753C799.655 406.353 799.38 419.72 794.447 432.26C789.513 444.801 780.13 455.987 767.414 464.486C754.698 472.985 739.187 478.437 722.727 480.195C728.169 493.813 728.359 508.433 723.275 522.205C718.191 535.978 708.061 548.284 694.166 557.566C680.27 566.849 663.235 572.692 645.214 574.355C627.193 576.018 608.996 573.427 592.925 566.909C590.35 576.557 584.828 585.579 576.841 593.188C568.854 600.798 558.644 606.762 547.105 610.561C535.566 614.359 523.048 615.876 510.644 614.979C498.241 614.083 486.328 610.799 475.949 605.416C469.248 617.733 457.677 628.03 442.978 634.753C428.28 641.477 411.252 644.264 394.46 642.693C377.669 641.123 362.023 635.28 349.883 626.047C337.742 616.813 329.764 604.689 327.151 591.501C307.668 598.15 285.92 599.27 265.625 594.667C245.33 590.065 227.747 580.026 215.882 566.267C211.933 567.197 207.888 567.844 203.798 568.2C190.451 569.338 177.01 567.311 165.193 562.376C153.377 557.441 143.722 549.824 137.462 540.497C131.202 531.171 128.622 520.559 130.051 510.018C131.481 499.478 136.855 489.487 145.487 481.324L145.385 481.33Z" fill="white"/>
<path fill-rule="evenodd" clip-rule="evenodd" d="M724.931 497.38L726.757 497.163C726.907 499.174 727.066 501.305 726.939 503.371C726.276 501.347 725.64 499.342 724.931 497.38Z" fill="#BC0044"/>
<path d="M252.491 596.126C263.579 599.855 275.547 601.717 287.635 601.594C299.723 601.471 311.668 599.366 322.711 595.411C329.209 593.074 335.298 590.076 340.822 586.495C342.822 585.217 344.727 583.849 346.528 582.397C346.528 582.397 344.182 583.531 339.809 585.257C333.689 587.648 327.282 589.544 320.687 590.915C311.161 592.897 301.326 593.745 291.507 593.431C279.722 593.068 268.14 590.999 257.335 587.328C237.35 580.602 220.838 568.779 210.419 553.736C207.166 549.048 204.526 544.108 202.539 538.991C201.112 535.291 200.596 533.178 200.545 533.181C200.494 533.184 200.373 535.33 200.689 539.23C201.173 544.827 202.574 550.345 204.856 555.646C208.348 563.675 213.709 571.107 220.664 577.562C229.322 585.597 240.208 591.947 252.491 596.126Z" fill="black"/>
<path d="M419.009 192.032C419.198 191.82 419.337 191.631 419.528 191.44C425.983 184 434.344 177.709 444.064 172.977C456.183 167.08 470.002 163.746 484.178 163.299C498.354 162.851 512.405 165.306 524.967 170.423C535.025 174.521 543.869 180.242 550.932 187.218C555.586 191.818 559.355 196.937 562.119 202.413C563.131 204.384 563.99 206.401 564.694 208.455C564.694 208.455 563.32 206.509 560.459 203.127C556.452 198.491 551.765 194.246 546.494 190.482C538.884 185.071 530.131 180.753 520.625 177.72C509.198 174.094 496.91 172.42 484.565 172.807C472.22 173.194 460.096 175.632 448.985 179.964C440.093 183.475 431.993 188.128 425.019 193.733C423.059 193.076 421.052 192.509 419.009 192.032Z" fill="black"/>
<path d="M216.564 294.309C219.697 285.399 225.031 277.054 232.258 269.755C239.484 262.457 248.46 256.35 258.666 251.789C268.872 247.228 280.105 244.303 291.715 243.183C303.326 242.062 315.083 242.769 326.308 245.263C329.702 246.052 333.035 246.994 336.29 248.085C336.518 249.426 336.794 250.723 337.117 251.958C333.138 251.077 329.088 250.401 324.994 249.936C312.914 248.616 300.603 249.201 288.771 251.655C268.547 255.905 250.745 265.53 238.378 278.901C226.011 292.271 219.838 308.567 220.903 325.031C221.294 331.684 222.817 338.259 225.432 344.577C227.33 349.1 228.816 351.525 228.765 351.527C226.909 349.494 225.213 347.372 223.686 345.174C219.469 339.081 216.499 332.493 214.887 325.653C212.383 315.262 212.957 304.535 216.564 294.309Z" fill="black"/>
<path d="M154.835 349.492C161.075 340.897 170.463 333.984 181.752 329.671C190.768 326.24 200.701 324.617 210.665 324.948C212.077 325.014 213.414 325.105 214.727 325.217C214.725 325.365 214.736 325.513 214.76 325.66C215.058 326.916 215.405 328.129 215.773 329.301C214.194 329.384 212.537 329.472 210.842 329.724C201.408 330.786 192.391 333.544 184.488 337.786C176.585 342.028 170.008 347.64 165.265 354.188C160.112 361.29 157.287 369.284 157.049 377.439C156.86 384.282 158.464 391.071 161.76 397.379C164.068 401.809 167.159 405.954 170.942 409.693C173.701 412.393 175.491 413.752 175.467 413.774C173.433 412.888 171.485 411.885 169.641 410.771C164.446 407.702 159.969 403.944 156.405 399.662C150.961 393.107 147.674 385.573 146.839 377.738C145.805 367.923 148.595 358.068 154.835 349.492Z" fill="black"/>
<path d="M118.849 435.633C120.008 426.879 123.869 418.466 130.093 411.132C135.075 405.257 141.483 400.216 148.94 396.302C150.22 395.629 151.404 395.041 152.695 394.508C153.48 395.779 154.314 397.007 155.165 398.133C154.365 398.72 153.567 399.348 152.746 399.997C147.163 404.481 142.481 409.612 138.865 415.21C134.549 421.879 131.844 429.117 130.89 436.55C129.937 443.971 130.704 451.456 133.152 458.639C135.245 464.658 138.511 470.376 142.833 475.59C145.842 479.232 149.327 482.613 153.23 485.679C155.954 487.897 157.802 489.01 157.778 489.032C155.835 488.399 153.937 487.684 152.093 486.89C146.987 484.657 142.297 481.883 138.15 478.645C131.831 473.69 126.849 467.775 123.498 461.25C119.344 453.151 117.749 444.361 118.849 435.633Z" fill="black"/>
<path d="M124.465 515.006C125.074 505.962 128.63 497.178 134.79 489.503C137.034 486.714 139.615 484.103 142.497 481.705C143.546 482.396 144.564 483.009 145.552 483.562C143.462 486.155 141.646 488.878 140.122 491.704C135.726 499.781 133.901 508.571 134.81 517.301C135.718 526.031 139.331 534.433 145.331 541.768C151.331 549.103 159.534 555.147 169.218 559.368C178.902 563.589 189.771 565.857 200.869 565.973C204.045 566.019 207.224 565.898 210.384 565.61C211.07 566.583 211.782 567.555 212.524 568.585C208.855 569.574 205.081 570.295 201.25 570.738C189.894 572.066 178.319 571.06 167.648 567.815C157.53 564.747 148.507 559.808 141.328 553.411C134.15 547.014 129.024 539.343 126.378 531.036C124.74 525.803 124.095 520.401 124.465 515.006Z" fill="black"/>
<path d="M326.508 588.022C326.508 588.022 327.102 590.494 328.824 594.723C331.215 600.617 334.673 606.2 339.092 611.3C345.485 618.655 353.794 624.842 363.469 629.451C375.071 634.948 388.298 637.975 401.871 638.239C415.443 638.503 428.9 635.994 440.94 630.956C450.963 626.718 459.751 620.857 466.723 613.76C468.925 611.514 470.946 609.162 472.771 606.716C473.873 607.425 475.051 608.129 476.281 608.831C475.002 611.426 473.48 613.943 471.726 616.362C465.518 625.088 456.696 632.49 446.039 637.914C436.765 642.648 426.346 645.791 415.464 647.135C404.581 648.48 393.481 647.996 382.889 645.715C372.298 643.435 362.455 639.409 354.004 633.902C345.553 628.395 338.686 621.531 333.852 613.759C330.24 607.9 327.919 601.593 326.985 595.104C326.635 592.755 326.476 590.389 326.508 588.022Z" fill="black"/>
<path d="M694.06 563.626C708.669 554.782 719.656 542.73 725.628 529.002C730.391 517.985 731.692 506.239 729.418 494.781C727.924 487.231 724.865 479.938 720.363 473.193C718.744 470.761 716.911 468.423 714.878 466.195C716.295 468.671 717.543 471.207 718.617 473.79C721.515 480.719 723.123 487.952 723.391 495.262C724.145 513.414 716.282 531.19 701.343 545.103C686.405 559.017 665.468 568.064 642.64 570.472C629.32 571.862 615.8 570.975 602.999 567.869C590.878 564.863 579.631 560.022 569.882 553.614C572.068 555.745 574.432 557.758 576.957 559.64C583.987 564.896 592.088 569.182 600.927 572.32C622.461 579.946 646.97 580.659 669.301 574.308C678.192 571.772 686.543 568.169 694.06 563.626Z" fill="black"/>
<path d="M457.696 590.837C462.623 594.978 468.225 598.585 474.357 601.563C484.053 606.297 494.968 609.28 506.326 610.3C517.684 611.321 529.209 610.353 540.081 607.467C551.928 604.329 562.666 598.988 571.382 591.896C578.68 585.984 584.428 578.994 588.292 571.334C588.94 570.068 589.488 568.848 589.986 567.63C591.476 568.399 593.117 569.14 594.784 569.879C594.595 570.778 594.36 571.739 594.099 572.702C591.187 582.779 585.026 592.111 576.216 599.789C567.406 607.467 556.247 613.23 543.826 616.515C530.032 620.168 515.235 620.637 501.18 617.868C489.915 615.644 479.491 611.355 470.751 605.348C464.996 601.425 460.074 596.799 456.17 591.645C454.77 589.789 453.516 587.867 452.415 585.888C452.415 585.888 454.172 587.834 457.696 590.837Z" fill="black"/>
<path d="M725.402 482.092C724.724 480.553 724.006 479.158 723.27 477.864C724.406 477.663 725.568 477.46 726.752 477.215C741.184 474.315 754.456 468.531 765.287 460.422C776.118 452.314 784.141 442.154 788.583 430.925C793.024 419.695 793.733 407.775 790.642 396.315C787.55 384.855 780.763 374.243 770.935 365.502C764.789 360.004 757.595 355.298 749.608 351.551C746.632 350.143 743.556 348.87 740.395 347.739C743.818 348.381 747.178 349.208 750.454 350.214C759.547 352.991 767.935 357.016 775.235 362.104C786.349 369.835 794.703 379.731 799.48 390.821C802.326 397.44 803.886 404.368 804.109 411.372C804.362 418.955 803.026 426.531 800.154 433.791C797.273 441.023 792.926 447.847 787.285 453.997C777.309 464.851 763.566 473.2 747.738 478.02C741.324 479.98 734.636 481.311 727.824 481.984L725.402 482.092Z" fill="black"/>
<path d="M737.987 271.244C746.68 273.473 754.752 276.977 761.781 281.572C772.791 288.753 780.897 298.322 785.113 309.117C789.329 319.911 789.474 331.466 785.53 342.378C783.079 349.146 779.09 355.515 773.758 361.173C771.82 359.883 769.891 358.713 768.022 357.661C772.704 350.692 775.604 343.072 776.556 335.24C777.508 327.407 776.493 319.516 773.569 312.02C767.807 297.288 755.021 284.94 737.896 277.569C738.087 275.463 738.118 273.351 737.987 271.244Z" fill="black"/>
<path d="M580.171 182.759C592.286 181.89 604.438 183.714 615.253 188.026C626.042 192.336 635.087 198.928 641.386 207.073C644.944 211.703 647.533 216.76 649.053 222.052C646.668 222.637 644.328 223.334 642.045 224.139C635.849 212.151 624.376 202.36 609.724 196.557C600.676 192.932 590.693 190.97 580.517 190.817C572.405 190.69 564.316 191.679 556.612 193.74C555.591 192.401 554.439 191.029 553.156 189.603C561.426 185.776 570.653 183.439 580.171 182.759Z" fill="black"/>
<path d="M720.04 237.125C710.603 228.986 698.249 223.307 684.596 220.834C673.654 218.88 662.249 219.082 651.384 221.424C644.278 222.941 637.54 225.401 631.462 228.699C629.276 229.881 627.194 231.179 625.228 232.583C625.228 232.583 627.704 231.482 632.327 230.005C638.793 227.963 645.585 226.651 652.501 226.109C663.357 225.217 674.305 226.333 684.478 229.368C694.651 232.404 703.769 237.275 711.109 243.595C719.08 250.468 724.695 258.84 727.43 267.927C729.702 275.534 729.926 283.446 728.088 291.152C726.847 296.519 724.652 301.726 721.568 306.62C719.272 310.134 717.695 311.974 717.722 311.993C719.649 310.563 721.457 309.037 723.137 307.425C727.808 302.932 731.494 297.857 734.04 292.411C740.212 278.973 739.496 264.205 732.044 251.268C729.016 246.078 724.965 241.305 720.04 237.125Z" fill="black"/>
<path d="M352.963 206.518C344.756 213.597 339.205 222.333 336.938 231.737C335.104 239.27 335.472 247.02 338.015 254.394C339.652 259.271 342.269 263.904 345.767 268.116C346.999 269.632 348.363 271.078 349.85 272.442C349.85 272.442 348.726 270.746 347.207 267.535C345.075 263.063 343.694 258.385 343.099 253.62C342.24 246.801 343.045 239.905 345.471 233.304C348.409 225.394 353.632 218.117 360.727 212.05C367.822 205.983 376.595 201.291 386.352 198.347C394.49 195.891 403.136 194.685 411.822 194.796C417.863 194.884 423.857 195.591 429.655 196.899C433.818 197.829 436.074 198.578 436.074 198.578C434.227 197.523 432.292 196.567 430.283 195.715C424.702 193.321 418.672 191.638 412.413 190.727C401.691 189.199 390.631 189.849 380.269 192.616C369.907 195.383 360.583 200.177 353.17 206.547L352.963 206.518Z" fill="black"/>
<path d="M228.656 352.589C225.071 358.804 223.744 365.672 224.826 372.419C225.691 377.838 228.116 383.018 231.916 387.563C234.365 390.525 237.394 393.159 240.893 395.368C242.162 396.168 243.492 396.905 244.877 397.575C244.877 397.575 243.63 396.614 241.704 394.712C235.098 388.273 231.31 380.309 230.901 371.998C230.654 366.151 232.135 360.328 235.226 354.989C238.317 349.651 242.934 344.944 248.71 341.241C253.547 338.166 259.07 335.839 264.987 334.382C269.097 333.38 273.35 332.804 277.639 332.667C280.733 332.503 282.468 332.693 282.467 332.676C280.917 332.291 279.338 331.982 277.739 331.751C273.283 331.123 268.725 331.051 264.229 331.54C256.529 332.382 249.212 334.757 242.966 338.441C236.721 342.125 231.753 346.996 228.53 352.596L228.656 352.589Z" fill="#181415"/>
<path d="M339.021 583.911C348.543 584.334 358.389 583.001 367.446 580.063C374.689 577.708 381.203 574.377 386.494 570.322C389.976 567.66 392.85 564.71 395.01 561.58C395.791 560.46 396.463 559.316 397.019 558.157C397.019 558.157 396.015 559.307 393.898 561.244C390.946 563.927 387.521 566.398 383.704 568.596C378.191 571.75 371.915 574.261 365.217 575.993C357.198 578.053 348.773 578.933 340.604 578.564C332.435 578.195 324.746 576.587 318.14 573.867C312.637 571.577 308.002 568.566 304.489 564.997C302.034 562.529 300.137 559.821 298.847 556.943C297.918 554.865 297.639 553.648 297.615 553.651C297.484 554.834 297.468 556.012 297.568 557.178C297.844 560.417 298.919 563.544 300.753 566.446C303.901 571.41 309.064 575.617 315.757 578.672C322.451 581.727 330.456 583.53 339.021 583.911Z" fill="#181415"/>
<path d="M739.259 337.321C736.078 331.098 730.76 325.71 723.9 321.761C718.39 318.626 712.041 316.526 705.33 315.618C700.928 315.011 696.426 314.957 691.99 315.457C690.388 315.642 688.801 315.908 687.241 316.254C688.832 316.219 690.423 316.256 692.007 316.365C696.24 316.612 700.41 317.294 704.412 318.393C710.178 319.991 715.494 322.451 720.071 325.638C725.526 329.45 729.779 334.216 732.495 339.561C735.21 344.906 736.315 350.686 735.724 356.447C735.196 361.256 733.515 365.95 730.77 370.277C728.878 373.278 726.508 376.077 723.717 378.606C721.677 380.41 720.388 381.306 720.389 381.326C725.728 378.949 730.355 375.686 733.95 371.764C738.458 366.837 741.318 361.098 742.26 355.083C743.203 349.069 742.199 342.976 739.34 337.377L739.259 337.321Z" fill="#181415"/>
<path d="M510.152 561.546C501.425 562.643 492.504 561.654 484.538 558.705C481.003 557.494 477.622 556.024 474.438 554.314C476.797 556.852 479.647 559.078 482.886 560.913C486.453 563.003 490.426 564.626 494.654 565.72C500.016 567.085 505.732 567.378 511.295 566.574C516.804 565.748 522.014 563.946 526.532 561.304C530.117 559.19 533.244 556.631 535.79 553.726C538.155 551.16 539.957 548.3 541.119 545.267C538.825 547.727 536.227 550.002 533.363 552.058C526.893 556.875 518.848 560.164 510.152 561.546Z" fill="#181415"/>
<path d="M692.406 524.663C696.047 520.46 698.305 515.613 698.975 510.564C699.47 506.567 699.169 502.538 698.084 498.624C697.215 495.071 695.696 491.641 693.577 488.44C694.517 491.879 695.044 495.384 695.151 498.907C695.304 502.619 694.898 506.335 693.941 509.978C692.819 514.294 690.613 518.395 687.454 522.039C680.72 529.819 670.836 534.51 663.472 537.232C659.423 538.757 655.218 540.003 650.903 540.956C655.48 540.94 660.037 540.425 664.446 539.427C669.38 538.413 674.116 536.86 678.516 534.813C684.021 532.265 688.762 528.801 692.406 524.663Z" fill="#181415"/>
<path d="M543.438 200.961C534.339 200.659 525.27 202.16 517.057 205.328C510.55 207.844 504.573 211.145 499.343 215.111C494.549 218.623 490.413 222.657 487.062 227.088C491.636 223.594 496.618 220.45 501.941 217.699C507.512 214.757 513.497 212.339 519.771 210.494C527.203 208.299 535.109 207.31 543.012 207.586C559.861 208.146 574.189 214.009 583.875 219.028C589.187 221.736 594.184 224.808 598.809 228.21C595.426 223.848 591.29 219.881 586.52 216.424C581.357 212.511 575.521 209.192 569.182 206.562C561.236 203.232 552.449 201.321 543.438 200.961Z" fill="#181415"/>
<path d="M735.974 405.394C738.28 410.067 739.649 415.001 740.033 420.019C740.531 426.334 739.146 432.666 735.989 438.505C732.648 444.329 727.59 449.444 721.241 453.421C716.321 456.551 710.932 459.19 705.199 461.277C702.386 462.315 699.861 463.095 697.705 463.694C697.651 462.97 697.6 462.286 697.326 461.695C699.048 460.775 701.014 459.702 703.123 458.48C707.903 455.716 712.397 452.656 716.561 449.328C721.486 445.486 725.484 440.97 728.358 436.003C733.161 426.6 734.429 416.324 732.008 406.412C731.119 402.084 729.696 397.839 727.762 393.736C731.23 397.268 733.999 401.199 735.974 405.394Z" fill="#181415"/>
<path d="M208.332 522.694C210.707 527.486 214.802 531.618 220.117 534.587C228.164 538.929 237.81 541.062 247.585 540.661C243.27 539.846 239.083 538.667 235.094 537.144C230.901 535.609 227.012 533.606 223.548 531.194C219.483 528.357 216.334 524.795 214.356 520.799C212.301 516.728 211.115 512.411 210.844 508.023C210.684 504.399 211.278 500.773 212.602 497.29C213.878 493.935 215.865 490.771 218.478 487.933C217.477 488.503 216.541 489.141 215.678 489.838C213.291 491.728 211.254 493.876 209.631 496.216C207.211 499.826 205.764 503.787 205.383 507.849C204.944 512.918 205.952 517.991 208.332 522.694Z" fill="#181415"/>
<path d="M180.596 466.056C180.973 462 182.421 458.044 184.846 454.443C186.461 452.071 188.495 449.889 190.886 447.965C191.743 447.269 192.681 446.638 193.687 446.08C191.073 448.91 189.085 452.068 187.809 455.417C186.472 458.904 185.878 462.539 186.054 466.17C186.275 470.548 187.409 474.86 189.411 478.934C191.388 482.93 194.538 486.492 198.603 489.329C202.067 491.741 205.955 493.744 210.149 495.279L210.491 495.402C210.282 495.696 210.073 495.97 209.866 496.283C209.659 496.597 209.269 497.203 208.973 497.684C204.024 496.704 199.348 495.023 195.172 492.722C189.857 489.749 185.755 485.619 183.361 480.83C181.072 476.135 180.128 471.09 180.596 466.056Z" fill="#181415"/>
<path d="M356.213 274.221C356.501 271.72 357.274 269.266 358.504 266.944C360.075 264.022 362.479 261.423 365.529 259.35C368.651 257.336 372.332 255.939 376.264 255.274C379.343 254.726 382.494 254.484 385.642 254.555C387.17 254.591 388.519 254.677 389.671 254.786C389.53 255.12 389.406 255.454 389.28 255.775C388.24 255.83 387.061 256.023 385.782 256.209C382.876 256.608 380.015 257.197 377.228 257.971C373.958 258.833 370.911 260.161 368.238 261.888C363.445 265.267 359.984 269.663 358.275 274.544C357.457 276.643 356.891 278.798 356.584 280.978C356.037 278.756 355.911 276.478 356.213 274.221Z" fill="#181415"/>
</svg>
