<svg width="104" height="19" viewBox="0 0 104 19" fill="none" xmlns="http://www.w3.org/2000/svg">
<path d="M1.46581 16.6172C1.42529 16.6285 1.38608 16.6025 1.3482 16.5392C1.30969 16.4676 1.26738 16.4005 1.22127 16.3378L1.35703 16.3275C1.28576 16.1508 1.25687 15.9875 1.27036 15.8375C1.29146 15.6787 1.3173 15.5278 1.34788 15.3848C1.37783 15.2336 1.40017 15.0912 1.41491 14.9577C1.43726 14.8154 1.41403 14.6723 1.34525 14.5285C1.38825 14.5501 1.41643 14.5397 1.42978 14.4973C1.45073 14.4461 1.46284 14.3872 1.46609 14.3208C1.47696 14.2455 1.47547 14.1711 1.46165 14.0977C1.45544 14.0154 1.44635 13.9499 1.43439 13.9012C1.52209 13.638 1.58448 13.3685 1.62156 13.0926C1.66687 12.8161 1.70426 12.5443 1.73374 12.2773C1.7626 12.002 1.7965 11.7388 1.83545 11.4876C1.882 11.2276 1.94626 10.9827 2.02821 10.7531C2.14216 10.728 2.26271 10.7354 2.38987 10.7754C2.52463 10.8066 2.61506 10.8536 2.66118 10.9163C2.90133 10.6996 3.10958 10.4438 3.28592 10.1492C3.46226 9.85449 3.63923 9.56804 3.81681 9.28982C4.002 9.00275 4.21436 8.74672 4.4539 8.52175C4.69343 8.29677 5.00089 8.14941 5.37628 8.07968C5.58433 8.20464 5.81799 8.34008 6.07727 8.48599C6.33592 8.62368 6.55243 8.80592 6.7268 9.03273C6.79573 9.0689 6.86086 9.10949 6.92219 9.15451C6.99112 9.19068 7.06006 9.22685 7.12899 9.26301L7.14298 9.44815C7.26625 9.54641 7.37051 9.6668 7.45576 9.80931C7.54861 9.94298 7.63005 10.0899 7.70008 10.2501C7.77771 10.4015 7.85155 10.5573 7.92158 10.7175C7.99161 10.8777 8.06893 11.025 8.15356 11.1592C8.14083 11.2098 8.13602 11.2557 8.13913 11.2969C8.14984 11.3292 8.16087 11.3656 8.1722 11.4061C8.19115 11.4378 8.2066 11.478 8.21856 11.5267C8.22989 11.5672 8.23805 11.6204 8.24302 11.6862C8.24305 12.1248 8.12579 12.4895 7.89123 12.7803C7.66428 13.0623 7.37631 13.3033 7.02732 13.5034C6.68594 13.6947 6.31832 13.8673 5.92446 14.0212C5.52998 14.1669 5.17347 14.3221 4.8549 14.4868C4.85739 14.5197 4.87509 14.5349 4.908 14.5325C4.94914 14.5293 4.96335 14.5531 4.95063 14.6037C5.20866 14.7332 5.40692 14.8382 5.54541 14.9187C5.69213 14.9987 5.82557 15.0672 5.94574 15.1243C6.07352 15.1726 6.2089 15.212 6.35188 15.2426C6.5031 15.2726 6.70842 15.3067 6.96785 15.345C7.22727 15.3834 7.42848 15.4178 7.57147 15.4484C7.72206 15.4701 7.85589 15.489 7.97295 15.5049C8.08939 15.5127 8.21405 15.5198 8.34695 15.5263C8.47984 15.5328 8.6583 15.54 8.88233 15.5479C8.97968 15.6316 9.06181 15.733 9.12873 15.8521C9.19566 15.9711 9.24612 16.0914 9.28013 16.213C9.31414 16.3346 9.32727 16.4536 9.31951 16.57C9.31937 16.6776 9.29298 16.7665 9.24036 16.8366C9.25107 16.8689 9.27289 16.8838 9.3058 16.8814C9.34632 16.87 9.38746 16.8669 9.42922 16.872C9.37473 16.9175 9.32909 16.9706 9.2923 17.0313C9.25551 17.092 9.21872 17.1527 9.18194 17.2134C9.14515 17.2741 9.09982 17.3314 9.04595 17.3851C9.00031 17.4382 8.93666 17.472 8.855 17.4864C8.56749 17.624 8.1893 17.6567 7.72044 17.5845C7.25158 17.5124 6.64896 17.3676 5.9126 17.1501C5.54884 17.0452 5.25184 16.9476 5.02159 16.8575C4.79135 16.7673 4.59022 16.679 4.41819 16.5927C4.24555 16.4982 4.08493 16.3986 3.93635 16.294C3.78715 16.1811 3.61582 16.0493 3.42237 15.8984C3.3983 15.9085 3.38309 15.9262 3.37673 15.9515C3.37859 15.9762 3.36749 15.9936 3.34343 16.0036C3.32715 16.3359 3.28153 16.6083 3.20656 16.8208C3.13982 17.0327 3.03225 17.2519 2.88385 17.4782C2.75033 17.4635 2.66075 17.4827 2.61512 17.5358C2.5777 17.5883 2.52764 17.6376 2.46492 17.6837C2.38388 17.7063 2.32186 17.7069 2.27886 17.6853C2.23647 17.672 2.19789 17.6542 2.16311 17.632C2.12833 17.6098 2.08944 17.5879 2.04644 17.5663C2.00343 17.5448 1.93698 17.5415 1.84709 17.5566C1.81682 17.4844 1.78685 17.4163 1.75719 17.3523C1.72691 17.2802 1.6586 17.2522 1.55225 17.2685C1.57134 17.1926 1.57491 17.1303 1.56295 17.0815C1.55037 17.0246 1.5343 16.9761 1.51473 16.9362C1.49455 16.8881 1.47436 16.84 1.45418 16.7918C1.44222 16.7431 1.44609 16.6849 1.46581 16.6172ZM5.162 10.6653C5.06685 10.8297 4.95842 10.9827 4.83671 11.1243C4.71439 11.2577 4.59268 11.3993 4.4716 11.5491C4.35812 11.6901 4.25823 11.8466 4.17192 12.0186C4.085 12.1824 4.02935 12.3769 4.005 12.6022C4.34747 12.535 4.70237 12.413 5.06967 12.2363C5.43636 12.0514 5.7831 11.8762 6.10989 11.7108C6.04574 11.4095 5.92044 11.1749 5.73397 11.0069C5.54688 10.8307 5.35623 10.7168 5.162 10.6653ZM12.3492 16.9121C11.9909 16.9888 11.6606 16.9972 11.3581 16.9373C11.0557 16.8774 10.7786 16.7701 10.527 16.6153C10.2835 16.4599 10.0664 16.2695 9.87558 16.0439C9.69299 15.8177 9.53795 15.5729 9.41047 15.3094C9.29415 14.7555 9.27649 14.2479 9.35749 13.7867C9.43787 13.3172 9.57454 12.8807 9.76748 12.4772C9.96043 12.0737 10.184 11.6927 10.4383 11.3342C10.7008 10.9751 10.9519 10.6292 11.1916 10.2967C11.251 10.317 11.2963 10.3136 11.3273 10.2864C11.3666 10.2586 11.397 10.2232 11.4186 10.1802C11.4484 10.1366 11.4782 10.093 11.508 10.0493C11.5461 10.0051 11.5891 9.97286 11.6373 9.95267C11.6646 9.87613 11.7011 9.81131 11.7467 9.75821C11.8006 9.70449 11.8548 9.65489 11.9092 9.60939C11.9713 9.55505 12.0252 9.50133 12.0708 9.44823C12.1247 9.39451 12.1694 9.32907 12.205 9.25191C12.286 9.22924 12.3538 9.19515 12.4083 9.14966C12.471 9.10355 12.5252 9.05394 12.5708 9.00084C12.6247 8.94712 12.6788 8.89751 12.7333 8.85202C12.7878 8.80653 12.8553 8.76833 12.9357 8.73743L12.9236 8.57698C13.0984 8.48102 13.2232 8.38057 13.298 8.27561C13.3728 8.17066 13.4619 8.03566 13.5653 7.87062C13.6552 7.85555 13.7248 7.84616 13.7742 7.84243C13.8318 7.83807 13.9176 7.82332 14.0315 7.79816C14.095 7.65269 14.1572 7.54455 14.218 7.47375C14.2789 7.40295 14.3679 7.32175 14.4851 7.23014C14.6135 7.28664 14.7483 7.31784 14.8894 7.32373C15.0299 7.32139 15.1621 7.37346 15.286 7.47996C15.3017 7.57807 15.3364 7.65406 15.3901 7.70793C15.4432 7.75357 15.5004 7.7989 15.5618 7.84392C15.6225 7.88071 15.6835 7.92161 15.7448 7.96663C15.8061 8.01165 15.8484 8.07879 15.8717 8.16806C15.9129 8.16495 15.9369 8.15485 15.9439 8.13778C15.9591 8.12008 15.9876 8.11379 16.0294 8.11891C16.0508 8.18349 16.0713 8.23573 16.0909 8.27563C16.1104 8.31553 16.1297 8.35131 16.1486 8.38298C16.1758 8.41403 16.1992 8.4495 16.2187 8.4894C16.2465 8.52867 16.2708 8.57649 16.2916 8.63284C16.258 8.73469 16.229 8.84445 16.2048 8.96213C16.18 9.07159 16.1197 9.15061 16.0241 9.19922C16.0291 9.26504 16.0566 9.3002 16.1066 9.3047C16.1559 9.30097 16.1869 9.32759 16.1995 9.38457C16.2133 9.458 16.2056 9.52065 16.1764 9.5725C16.4361 9.94182 16.6766 10.3333 16.8982 10.7468C17.1192 11.1522 17.3636 11.5392 17.6314 11.9079C17.6236 12.0243 17.6365 12.1392 17.6698 12.2525C17.7108 12.357 17.756 12.4612 17.8052 12.5651C17.8626 12.6683 17.916 12.7718 17.9652 12.8757C18.0144 12.9796 18.0513 13.0843 18.0758 13.1901C18.1028 13.3287 18.1143 13.4809 18.1103 13.6467C18.1057 13.8043 18.0843 13.959 18.0461 14.1109C18.0079 14.2627 17.9526 14.4075 17.8803 14.5454C17.8074 14.6751 17.7199 14.7768 17.6179 14.8507C17.4987 15.0252 17.3444 15.1734 17.155 15.2953C16.9649 15.409 16.7929 15.542 16.6389 15.6943C16.5287 15.7688 16.409 15.8275 16.2799 15.8704C16.1501 15.905 16.0165 15.9441 15.8791 15.9875C15.7771 16.0614 15.6545 16.1369 15.5114 16.2139C15.3676 16.2827 15.2195 16.3477 15.0669 16.4089C14.9143 16.47 14.761 16.523 14.6072 16.5677C14.4527 16.6042 14.3131 16.6189 14.1885 16.6118C13.9003 16.7411 13.6179 16.8369 13.3413 16.8992C13.0646 16.9615 12.734 16.9658 12.3492 16.9121ZM12.1703 12.4074C12.1023 12.6028 12.0166 12.7831 11.9132 12.9481C11.8175 13.1043 11.722 13.2646 11.6268 13.429C11.5317 13.5935 11.4498 13.7693 11.3812 13.9565C11.3202 14.1349 11.2946 14.3437 11.3044 14.583C11.4795 14.7104 11.6794 14.7822 11.9041 14.7983C12.1363 14.8056 12.3711 14.792 12.6085 14.7575C12.8453 14.7148 13.0814 14.6639 13.3169 14.6047C13.5524 14.5455 13.7648 14.5088 13.954 14.4945C13.9484 14.4204 13.9786 14.3809 14.0444 14.3759C14.3875 14.3169 14.7012 14.1981 14.9856 14.0193C15.2694 13.8324 15.5655 13.6445 15.874 13.4557C15.9077 13.3539 15.9546 13.2634 16.0149 13.1844C16.0751 13.1054 16.1041 12.9956 16.1017 12.8551C16.055 12.7842 16.0215 12.7246 16.0013 12.6765C15.9894 12.6278 15.9797 12.554 15.9722 12.4553C15.7359 12.1752 15.5265 11.8683 15.3441 11.5345C15.161 11.1925 14.9548 10.873 14.7255 10.5758C14.7121 10.6182 14.6823 10.6619 14.6361 10.7067C14.5898 10.7516 14.5357 10.7474 14.4737 10.6942C14.4553 10.7783 14.4226 10.8387 14.3757 10.8753C14.3282 10.9038 14.2716 10.9205 14.2057 10.9254C14.1481 10.9298 14.0855 10.9221 14.0178 10.9024C13.9583 10.8821 13.9024 10.8532 13.8499 10.8158C13.5793 11.0679 13.3081 11.3118 13.0363 11.5475C12.7727 11.7826 12.5366 12.0528 12.3279 12.3582C12.2887 12.386 12.2646 12.3961 12.2557 12.3885C12.2469 12.3809 12.2184 12.3872 12.1703 12.4074ZM19.8426 15.2164C19.5903 15.0534 19.3757 14.8421 19.1989 14.5823C19.0302 14.322 18.8892 14.043 18.7757 13.7454C18.6704 13.4472 18.5892 13.1389 18.532 12.8205C18.4824 12.4932 18.4506 12.1811 18.4364 11.8843C18.4937 11.6566 18.569 11.4481 18.6623 11.259C18.755 11.0617 18.8609 10.8758 18.9801 10.7013C19.0987 10.5185 19.2224 10.3478 19.351 10.1891C19.4873 10.0216 19.6195 9.8544 19.7476 9.6875C19.797 9.68377 19.8432 9.69269 19.8862 9.71427C19.9122 9.62127 19.9557 9.53937 20.0165 9.46857C20.0774 9.39778 20.143 9.33489 20.2133 9.27993C20.283 9.21674 20.353 9.15766 20.4234 9.1027C20.4931 9.0395 20.5498 8.96902 20.5936 8.89123C20.7955 8.82632 20.9713 8.74271 21.1208 8.64039C21.2785 8.53744 21.4274 8.42689 21.5674 8.30874C21.7074 8.19058 21.8522 8.08034 22.0017 7.97802C22.1512 7.8757 22.3269 7.79208 22.5289 7.72717C22.5967 7.6393 22.682 7.56252 22.7846 7.49684C22.8954 7.43054 23.0025 7.36866 23.1057 7.31121C23.2172 7.25314 23.3201 7.19158 23.4145 7.12652C23.5171 7.06084 23.5976 6.97615 23.656 6.87243C23.7103 6.93453 23.7821 6.95393 23.8714 6.93064C23.96 6.89911 24.0404 6.86821 24.1126 6.83793C24.1614 6.82598 24.2031 6.8311 24.2379 6.85329C24.2727 6.87549 24.3037 6.90211 24.3308 6.93316C24.3656 6.95536 24.3915 6.96995 24.4086 6.97694C24.4339 6.9833 24.4567 6.95675 24.4771 6.89729C24.5435 6.90054 24.5622 6.9281 24.533 6.97995C24.512 7.03119 24.498 7.06534 24.4911 7.08242C24.5721 7.05975 24.6392 7.07123 24.6923 7.11687C24.753 7.15366 24.8415 7.17593 24.958 7.18369C25.0022 7.22172 25.0171 7.2537 25.0025 7.27963C24.9879 7.30556 24.9786 7.34763 24.9748 7.40585C25.2778 7.47398 25.4779 7.60368 25.5751 7.79494C25.6717 7.97797 25.6952 8.17894 25.6455 8.39784C25.5952 8.60852 25.4864 8.81121 25.3191 9.00591C25.1593 9.19175 24.9747 9.32156 24.7651 9.39532C24.515 9.48041 24.2814 9.56427 24.0642 9.64688C23.8552 9.72886 23.651 9.81877 23.4515 9.91659C23.2602 10.0138 23.0784 10.1268 22.9061 10.2557C22.7414 10.3757 22.5988 10.5148 22.4784 10.6728C22.2529 10.756 22.05 10.8624 21.8694 10.9919C21.6971 11.1208 21.5339 11.2614 21.38 11.4137C21.2342 11.5654 21.0931 11.725 20.9569 11.8925C20.8199 12.0518 20.683 12.2111 20.5461 12.3704C20.5567 12.5103 20.5401 12.6191 20.4963 12.6969C20.4525 12.7747 20.4046 12.8528 20.3526 12.9312C20.3809 13.0863 20.4241 13.2195 20.4821 13.331C20.5478 13.4336 20.6138 13.5403 20.6801 13.6512C21.3533 13.7989 22.0579 13.8698 22.7939 13.8639C23.5376 13.8491 24.2717 13.8184 24.9965 13.772C25.078 13.8651 25.1674 13.9535 25.2647 14.0372C25.3697 14.112 25.4626 14.1919 25.5435 14.2768C25.6326 14.3611 25.7024 14.4634 25.7529 14.5837C25.811 14.6952 25.8339 14.8341 25.8216 15.0005C25.6923 15.151 25.5503 15.2983 25.3957 15.4423C25.2405 15.5782 25.0852 15.714 24.93 15.8499C24.8566 15.8637 24.7661 15.8706 24.6585 15.8704C24.5591 15.8696 24.4518 15.8736 24.3366 15.8823C24.2297 15.8904 24.1192 15.907 24.0053 15.9322C23.8989 15.9485 23.7979 15.9809 23.7023 16.0295C23.1827 16.0523 22.6473 16.0306 22.0962 15.9647C21.5444 15.8905 21.0322 15.7927 20.5596 15.6712C20.461 15.571 20.359 15.4794 20.2534 15.3964C20.1472 15.3051 20.0102 15.2451 19.8426 15.2164ZM26.5784 13.5159C26.5841 13.4824 26.5863 13.4574 26.5851 13.4409C26.5921 13.4238 26.5782 13.4042 26.5434 13.382C26.5226 13.3256 26.5321 13.2877 26.572 13.2681C26.6119 13.2486 26.6518 13.229 26.6917 13.2094C26.6956 12.7126 26.744 12.258 26.8369 11.8455C26.9375 11.4241 27.0472 11.0145 27.1661 10.6166C27.2933 10.218 27.4163 9.8198 27.5351 9.42188C27.6616 9.01512 27.7569 8.57762 27.8208 8.10938C27.9197 7.99433 27.9964 7.86026 28.0511 7.70718C28.1139 7.55348 28.1727 7.40009 28.2273 7.24701C28.2896 7.08508 28.3607 6.93075 28.4406 6.78404C28.5288 6.6367 28.6517 6.51156 28.8094 6.40861C28.8841 6.41125 28.9512 6.42273 29.0106 6.44306C29.0777 6.45455 29.141 6.47046 29.2004 6.49079C29.2599 6.51112 29.3232 6.52703 29.3902 6.53851C29.4573 6.55 29.5279 6.55294 29.6019 6.54735C29.6379 6.586 29.6705 6.63319 29.6995 6.68893C29.7279 6.73643 29.7643 6.7792 29.8085 6.81723L30.0279 6.76342C30.1417 6.84585 30.245 6.9539 30.3379 7.08756C30.4301 7.21299 30.4982 7.34852 30.5423 7.49414C30.5858 7.63154 30.5923 7.77173 30.5617 7.91471C30.5305 8.04947 30.4437 8.15947 30.3011 8.24472C30.3131 8.29347 30.3159 8.33049 30.3095 8.3558C30.3032 8.38111 30.2927 8.40672 30.2781 8.43265C30.2711 8.44973 30.2686 8.47061 30.2704 8.49529C30.2717 8.51175 30.29 8.53519 30.3254 8.56562C30.2405 8.64651 30.1653 8.74735 30.1 8.86814C30.034 8.9807 29.981 9.10056 29.941 9.22771C29.9009 9.35486 29.8691 9.4814 29.8455 9.60731C29.8302 9.73259 29.8224 9.84903 29.8223 9.95662C30.0422 9.69175 30.3046 9.44022 30.6093 9.20204C30.9141 8.96387 31.1786 8.74114 31.4029 8.53386C31.5822 8.38791 31.7374 8.25206 31.8686 8.1263C32.0074 7.99168 32.1471 7.86941 32.2878 7.75949C32.4278 7.64133 32.5726 7.53109 32.7221 7.42877C32.8792 7.3176 33.0356 7.1982 33.1915 7.07057C33.2713 7.03144 33.3324 7.01855 33.3748 7.0319C33.4254 7.04463 33.4722 7.06178 33.5152 7.08335C33.5191 7.02513 33.5042 6.99315 33.4707 6.98741C33.4366 6.97344 33.4211 6.93323 33.4244 6.86679C33.5611 6.81508 33.6808 6.75638 33.7834 6.69071C33.8943 6.62441 34.0096 6.56191 34.1292 6.50321C34.2184 6.58751 34.3081 6.68003 34.3985 6.78078C34.4882 6.8733 34.6033 6.91839 34.7438 6.91605C34.8013 7.01929 34.8651 7.09722 34.9353 7.14985C35.0131 7.19362 35.0867 7.23771 35.1563 7.2821C35.2341 7.32588 35.3004 7.38293 35.3554 7.45325C35.4098 7.51535 35.4466 7.62014 35.466 7.76762C35.4381 7.83593 35.4026 7.9131 35.3594 7.99911C35.3239 8.07627 35.294 8.17369 35.2698 8.29137C35.086 8.48731 34.8965 8.66299 34.7014 8.81841C34.5138 8.96498 34.3178 9.10806 34.1132 9.24765C33.9168 9.38661 33.7125 9.53031 33.5003 9.67875C33.2963 9.82656 33.0897 9.99526 32.8806 10.1848C32.8368 10.2626 32.7801 10.3331 32.7104 10.3963C32.6407 10.4595 32.5669 10.523 32.489 10.5868C32.4186 10.6418 32.3486 10.7008 32.2789 10.764C32.2174 10.8266 32.1692 10.9006 32.1343 10.986C32.1014 10.9885 32.0729 10.9948 32.0489 11.0049C32.0242 11.0067 31.9957 11.013 31.9634 11.0237C31.9355 11.092 31.8901 11.1492 31.8274 11.1954C31.7729 11.2409 31.7358 11.2974 31.7161 11.3651C31.8885 11.6748 32.1002 11.903 32.3512 12.0495C32.6023 12.196 32.8787 12.2951 33.1805 12.3468C33.4823 12.3985 33.8063 12.4154 34.1525 12.3975C34.4987 12.3796 34.857 12.3567 35.2272 12.3287C35.2678 12.3174 35.2827 12.2956 35.2719 12.2633C35.2688 12.2222 35.2923 12.2038 35.3423 12.2083C35.4688 12.2401 35.5754 12.2817 35.662 12.3331C35.7487 12.3845 35.8315 12.4403 35.9105 12.5005C35.9895 12.5608 36.0648 12.6254 36.1362 12.6945C36.2152 12.7547 36.3028 12.8185 36.3989 12.8857C36.4116 13.2736 36.3204 13.5991 36.1251 13.8621C35.9374 14.1163 35.6764 14.3305 35.342 14.5047C34.866 14.5572 34.4495 14.5763 34.0926 14.5619C33.7357 14.5474 33.3792 14.4834 33.023 14.3696C32.9977 14.3632 32.9711 14.3404 32.9434 14.3011C32.9238 14.2612 32.9052 14.2337 32.8875 14.2185C32.8185 14.1823 32.7432 14.1714 32.6616 14.1859C32.5799 14.2003 32.5093 14.1974 32.4499 14.177C32.3733 14.1497 32.2443 14.085 32.0628 13.9829C31.8896 13.8801 31.7293 13.7846 31.5819 13.6965C31.3986 13.5696 31.2196 13.4466 31.0451 13.3274C30.8782 13.1993 30.7268 13.0577 30.591 12.9024C30.5632 12.8632 30.5246 12.8454 30.4752 12.8491C30.4341 12.8522 30.392 12.843 30.349 12.8214C30.0747 13.0242 29.8491 13.2688 29.6721 13.5553C29.5027 13.8329 29.3381 14.1184 29.1782 14.4118C29.0177 14.697 28.8439 14.9708 28.6569 15.2332C28.4774 15.4867 28.2405 15.6908 27.946 15.8455C27.8555 15.8523 27.7761 15.8418 27.7077 15.8138C27.64 15.7941 27.5755 15.7617 27.5142 15.7167C27.4535 15.6799 27.3928 15.6432 27.3321 15.6064C27.2714 15.5696 27.2034 15.5457 27.1281 15.5349C27.1194 15.4197 27.0866 15.3146 27.0298 15.2196C26.9806 15.1157 26.9282 15.0245 26.8726 14.946C26.8246 14.8586 26.7852 14.7747 26.7543 14.6942C26.7316 14.6132 26.7501 14.5291 26.8097 14.4418C26.7136 14.3746 26.6225 14.3194 26.5365 14.2762C26.5897 14.2143 26.6104 14.1589 26.5984 14.1102C26.5947 14.0608 26.5786 14.0124 26.5502 13.9649C26.5218 13.9174 26.4975 13.8696 26.4773 13.8214C26.4647 13.7645 26.4765 13.7015 26.5127 13.6326C26.545 13.6219 26.5561 13.6045 26.546 13.5804C26.5441 13.5557 26.5549 13.5342 26.5784 13.5159ZM42.8618 14.9668C42.1302 14.9228 41.6611 14.5735 41.4544 13.9188L41.4565 13.7821C41.482 13.6809 41.5106 13.567 41.5424 13.4405C41.573 13.2975 41.608 13.1583 41.6474 13.0229C41.6862 12.8793 41.7592 12.7497 41.8663 12.634C41.8854 12.5581 41.9223 12.4436 41.9769 12.2905C42.0391 12.1286 42.141 11.8891 42.2826 11.5723C42.3962 11.3237 42.4848 11.1267 42.5483 10.9812C42.62 10.8351 42.6777 10.7232 42.7215 10.6454C42.628 10.5035 42.5019 10.3682 42.3433 10.2395C42.193 10.0026 42.0601 9.77682 41.9445 9.56212C41.8366 9.33857 41.7511 9.13815 41.6881 8.96086C41.6649 8.764 41.6168 8.5649 41.5437 8.36354C41.5109 8.25844 41.4781 8.15334 41.4454 8.04824C41.4126 7.94314 41.3919 7.83299 41.3832 7.71779C41.3459 7.66268 41.3115 7.59081 41.28 7.50216L41.2935 7.35219C41.3297 7.28325 41.3314 7.19624 41.2986 7.09113C41.2734 6.97718 41.24 6.86385 41.1984 6.75114C41.1657 6.64604 41.1326 6.53683 41.0992 6.4235C41.0734 6.30132 41.0603 6.18232 41.0598 6.0665C41.0593 5.95069 41.0797 5.83743 41.121 5.72673C41.1705 5.61541 41.2583 5.51776 41.3844 5.43376L41.5013 5.33803L41.6303 5.40276C41.7252 5.45352 41.8153 5.49637 41.9007 5.53129C41.9861 5.56621 42.0715 5.60114 42.1569 5.63606C42.2593 5.67797 42.3621 5.724 42.4652 5.77414C42.5677 5.81604 42.679 5.86556 42.7991 5.92268L42.9291 5.99976L42.927 6.13645C42.9283 6.15291 42.9339 6.17317 42.944 6.19723C42.9541 6.2213 42.968 6.24093 42.9857 6.25615L43.1243 6.28292L43.1497 6.45478L43.1608 6.60288C43.1664 6.67694 43.1746 6.73011 43.1853 6.7624C43.1954 6.78646 43.214 6.81402 43.2412 6.84507L43.315 7.00086C43.3262 7.14896 43.3485 7.27968 43.3819 7.39301C43.4153 7.50634 43.4528 7.61936 43.4944 7.73207C43.5443 7.84416 43.5862 7.96098 43.6202 8.08254C43.6536 8.19587 43.6673 8.32309 43.6614 8.46422C43.7089 8.4358 43.7555 8.39504 43.8012 8.34195C43.8164 8.32425 43.8316 8.30655 43.8468 8.28885C43.8702 8.27052 43.8937 8.2522 43.9171 8.23388L44.6925 6.99609L44.6566 6.84985L44.9428 6.53032C45.0201 6.45828 45.0933 6.38655 45.1624 6.31513C45.2308 6.23548 45.2863 6.14854 45.3289 6.05429L45.3945 5.93762C45.7275 5.41595 46.1817 5.07545 46.7572 4.91612L46.9633 4.8509L47.04 5.04372C47.0898 5.1558 47.1757 5.25275 47.2978 5.33456C47.4274 5.40752 47.5653 5.47985 47.7114 5.55157L47.8537 5.6277C47.9105 5.72271 47.9408 5.7949 47.9445 5.84427C47.9482 5.89364 47.9472 5.93509 47.9415 5.96863L48.0153 6.12442C47.9428 6.36987 47.8572 6.55012 47.7583 6.66517C47.6588 6.77199 47.5548 6.87501 47.4465 6.97422C47.3616 7.05511 47.2849 7.13538 47.2164 7.21503C47.148 7.29468 47.0966 7.38131 47.0623 7.47493L46.9729 7.60581C46.7752 7.72832 46.6554 7.8946 46.6133 8.10466L46.577 8.28118L46.3919 8.29517C46.3837 8.29579 46.3646 8.31792 46.3348 8.36154C46.3044 8.39694 46.2616 8.48707 46.2063 8.63192C46.1397 8.73625 46.0912 8.80612 46.0608 8.84152C46.038 8.86807 46.0189 8.89019 46.0037 8.90789C45.9904 8.95028 45.9767 8.98855 45.9628 9.0227C45.957 9.05624 45.9478 9.09831 45.9351 9.14893L45.8685 9.25326C45.7994 9.32468 45.7509 9.39454 45.7229 9.46286C45.6944 9.52294 45.6626 9.59568 45.6277 9.68107C45.6004 9.75761 45.5693 9.83857 45.5343 9.92396C45.4988 10.0011 45.4468 10.0795 45.3783 10.1592L45.4133 10.2931L45.3211 10.3869C45.2596 10.4495 45.2076 10.5279 45.1651 10.6222C45.1219 10.7082 45.0791 10.7983 45.0365 10.8925C44.9946 10.995 44.9486 11.0978 44.8985 11.2009C44.8483 11.304 44.7811 11.4001 44.6968 11.4892C44.6504 11.6416 44.6056 11.7609 44.5625 11.8469C44.5275 11.9323 44.4609 12.0366 44.3627 12.1599C44.2938 12.5623 44.0913 13.0038 43.7552 13.4843C43.7538 13.5754 43.7319 13.6681 43.6893 13.7624C43.6544 13.8477 43.6151 13.9293 43.5713 14.0071C43.5573 14.0413 43.5395 14.0799 43.518 14.1229C43.504 14.157 43.4935 14.1826 43.4865 14.1997L43.4598 14.3383C43.4172 14.4325 43.3693 14.5106 43.3161 14.5726C43.2711 14.6339 43.2257 14.6911 43.1801 14.7442C43.1567 14.7625 43.1335 14.785 43.1107 14.8115C43.0961 14.8374 43.0812 14.8592 43.066 14.8769L42.8618 14.9668ZM49.8205 14.0812C49.4622 14.1579 49.1318 14.1663 48.8294 14.1064C48.5269 14.0465 48.2499 13.9391 47.9982 13.7844C47.7548 13.629 47.5376 13.4385 47.3468 13.213C47.1642 12.9868 47.0092 12.7419 46.8817 12.4785C46.7654 11.9246 46.7477 11.417 46.8287 10.9557C46.9091 10.4863 47.0458 10.0498 47.2387 9.64625C47.4317 9.24274 47.6553 8.86173 47.9096 8.50324C48.1721 8.14413 48.4231 7.79829 48.6628 7.46573C48.7223 7.48606 48.7675 7.48264 48.7986 7.45547C48.8379 7.42768 48.8683 7.39228 48.8899 7.34927C48.9197 7.30564 48.9495 7.26202 48.9793 7.21839C49.0173 7.17414 49.0604 7.14192 49.1085 7.12173C49.1358 7.04519 49.1723 6.98037 49.218 6.92728C49.2718 6.87355 49.326 6.82395 49.3805 6.77846C49.4426 6.72411 49.4965 6.67039 49.5421 6.61729C49.596 6.56357 49.6407 6.49813 49.6762 6.42097C49.7573 6.3983 49.825 6.36421 49.8795 6.31872C49.9422 6.27261 49.9964 6.223 50.042 6.1699C50.0959 6.11618 50.1501 6.06657 50.2046 6.02108C50.2591 5.97559 50.3265 5.93739 50.4069 5.90649L50.3948 5.74604C50.5696 5.65008 50.6944 5.54963 50.7693 5.44467C50.8441 5.33972 50.9332 5.20472 51.0366 5.03968C51.1265 5.02462 51.1961 5.01522 51.2454 5.01149C51.303 5.00714 51.3888 4.99238 51.5028 4.96722C51.5663 4.82175 51.6284 4.71361 51.6893 4.64281C51.7501 4.57201 51.8392 4.49081 51.9564 4.3992C52.0848 4.45571 52.2195 4.4869 52.3606 4.49279C52.5011 4.49045 52.6333 4.54252 52.7572 4.64902C52.7729 4.74713 52.8076 4.82313 52.8614 4.87699C52.9145 4.92263 52.9717 4.96796 53.033 5.01298C53.0937 5.04977 53.1547 5.09067 53.216 5.13569C53.2774 5.18071 53.3197 5.24785 53.343 5.33712C53.3841 5.33401 53.4082 5.32392 53.4152 5.30684C53.4304 5.28914 53.4589 5.28285 53.5006 5.28797C53.5221 5.35255 53.5426 5.40479 53.5621 5.44469C53.5817 5.48459 53.6009 5.52037 53.6199 5.55204C53.6471 5.58309 53.6704 5.61856 53.69 5.65846C53.7178 5.69773 53.7421 5.74555 53.7629 5.8019C53.7292 5.90375 53.7003 6.01351 53.6761 6.1312C53.6512 6.24065 53.591 6.31968 53.4954 6.36828C53.5003 6.4341 53.5278 6.46926 53.5778 6.47376C53.6272 6.47003 53.6582 6.49666 53.6707 6.55363C53.6846 6.62706 53.6769 6.68971 53.6477 6.74156C53.9073 7.11088 54.1479 7.50233 54.3695 7.9159C54.5904 8.32124 54.8348 8.70826 55.1026 9.07696C55.0949 9.19339 55.1077 9.30828 55.1411 9.42161C55.1821 9.52609 55.2272 9.63026 55.2764 9.73412C55.3339 9.83735 55.3872 9.9409 55.4364 10.0448C55.4856 10.1486 55.5225 10.2534 55.5471 10.3591C55.5741 10.4978 55.5856 10.65 55.5816 10.8158C55.5769 10.9734 55.5555 11.1281 55.5173 11.2799C55.4792 11.4318 55.4239 11.5766 55.3516 11.7145C55.2786 11.8441 55.1911 11.9459 55.0891 12.0198C54.9699 12.1943 54.8156 12.3425 54.6262 12.4644C54.4362 12.5781 54.2642 12.711 54.1102 12.8633C54 12.9379 53.8803 12.9966 53.7511 13.0394C53.6213 13.0741 53.4877 13.1131 53.3503 13.1566C53.2483 13.2305 53.1258 13.306 52.9826 13.383C52.8389 13.4518 52.6907 13.5168 52.5381 13.5779C52.3855 13.6391 52.2323 13.6921 52.0784 13.7368C51.924 13.7733 51.7844 13.788 51.6597 13.7808C51.3716 13.9102 51.0892 14.006 50.8125 14.0683C50.5359 14.1305 50.2052 14.1348 49.8205 14.0812ZM49.6415 9.57643C49.5735 9.77189 49.4879 9.95215 49.3845 10.1172C49.2887 10.2734 49.1932 10.4337 49.0981 10.5981C49.0029 10.7625 48.921 10.9383 48.8524 11.1256C48.7914 11.304 48.7658 11.5128 48.7756 11.752C48.9508 11.8795 49.1507 11.9513 49.3753 11.9674C49.6076 11.9747 49.8424 11.9611 50.0797 11.9266C50.3165 11.8839 50.5526 11.8329 50.7881 11.7738C51.0237 11.7146 51.236 11.6778 51.4253 11.6636C51.4197 11.5895 51.4498 11.55 51.5156 11.545C51.8587 11.486 52.1725 11.3671 52.4569 11.1884C52.7407 11.0015 53.0368 10.8136 53.3453 10.6248C53.3789 10.5229 53.4259 10.4325 53.4861 10.3535C53.5464 10.2744 53.5753 10.1647 53.573 10.0242C53.5262 9.95323 53.4928 9.8937 53.4726 9.84557C53.4606 9.79682 53.4509 9.72308 53.4434 9.62434C53.2071 9.34429 52.9978 9.03737 52.8153 8.7036C52.6322 8.3616 52.4261 8.04203 52.1967 7.7449C52.1834 7.78729 52.1536 7.83091 52.1073 7.87578C52.061 7.92066 52.0069 7.91647 51.945 7.86322C51.9265 7.94737 51.8939 8.00776 51.847 8.04441C51.7995 8.07282 51.7428 8.08951 51.677 8.09449C51.6194 8.09884 51.5567 8.09116 51.489 8.07145C51.4296 8.05111 51.3736 8.02224 51.3211 7.98483C51.0505 8.23698 50.7793 8.4809 50.5075 8.71659C50.2439 8.95166 50.0078 9.22189 49.7992 9.52728C49.7599 9.55507 49.7358 9.56517 49.727 9.55756C49.7181 9.54995 49.6897 9.55624 49.6415 9.57643ZM56.4273 7.38804C56.4028 7.28232 56.3773 7.21805 56.3507 7.19523C56.3971 7.04277 56.4274 6.89567 56.4415 6.75392C56.4632 6.60333 56.4773 6.46158 56.4838 6.32869C56.4916 6.21225 56.5 6.10404 56.509 6.00406C56.5262 5.90346 56.5478 5.80666 56.5739 5.71366C56.7113 5.67018 56.8098 5.60481 56.8694 5.51756C56.9366 5.42145 56.9883 5.33893 57.0245 5.27C57.172 5.25058 57.2682 5.264 57.313 5.31026C57.3661 5.3559 57.4258 5.43414 57.4921 5.54499C57.5401 5.63239 57.6052 5.72678 57.6873 5.82815C57.7688 5.92129 57.8858 5.99107 58.0383 6.03747C58.0698 6.12612 58.1051 6.21034 58.1442 6.29014C58.1834 6.36993 58.2269 6.45353 58.2749 6.54093C58.362 6.70813 58.4456 6.88387 58.5258 7.06814C58.6053 7.24419 58.6553 7.41418 58.676 7.57813C58.5916 7.77484 58.5299 7.99879 58.4909 8.24999C58.4602 8.50056 58.4462 8.75401 58.4491 9.01033C58.4595 9.25779 58.4857 9.49579 58.5278 9.72432C58.5699 9.95284 58.6257 10.1431 58.6951 10.2951L58.784 10.487L59.0537 10.4418C59.3443 10.3453 59.6055 10.2428 59.8373 10.1343C60.0685 10.0175 60.2819 9.88556 60.4777 9.73837C60.6734 9.59118 60.8597 9.42815 61.0365 9.24929C61.2127 9.0622 61.395 8.84569 61.5833 8.59976C61.7634 8.35445 61.9207 8.08189 62.0553 7.7821C62.1892 7.47407 62.2938 7.15999 62.3689 6.83986C62.4522 6.51911 62.5109 6.20022 62.5449 5.88319C62.5788 5.56617 62.5938 5.27127 62.5897 4.9985C62.7405 4.91263 62.8179 4.7868 62.8219 4.62099L62.7727 4.46334C62.7449 4.42406 62.7298 4.38797 62.7273 4.35505C62.7324 4.31329 62.742 4.27533 62.7559 4.24118C62.8075 4.04695 62.9368 3.89651 63.1439 3.78983C63.2994 3.87738 63.4433 3.97409 63.5754 4.07996C63.7158 4.18521 63.8438 4.29139 63.9595 4.39851C63.9927 4.61942 64.0402 4.8103 64.102 4.97114C64.1632 5.12374 64.2282 5.27192 64.297 5.41568C64.3651 5.55121 64.4248 5.68324 64.4758 5.81179C64.5352 5.93971 64.5802 6.09767 64.611 6.28568C64.5473 6.53874 64.5033 6.7779 64.479 7.00317C64.4622 7.21959 64.4464 7.44836 64.4315 7.68946L64.4171 7.82709C64.2882 8.09335 64.16 8.36785 64.0324 8.65057C63.9125 8.92444 63.8147 9.16353 63.7391 9.36785C63.6934 9.42094 63.6525 9.48196 63.6164 9.55089C63.5884 9.61921 63.5605 9.68752 63.5325 9.75583C63.518 9.78176 63.4964 9.82477 63.4678 9.88485C63.4475 9.94431 63.4259 9.98732 63.4031 10.0139L63.0985 9.92517L63.0533 10.3134L62.8596 10.3777L62.7245 10.5616C62.5601 10.9051 62.3794 11.1959 62.1822 11.4343C61.9933 11.672 61.7737 11.8872 61.5235 12.0798C61.2815 12.2719 61.0018 12.4585 60.6845 12.6397C60.3748 12.8121 60.0166 13.0005 59.61 13.205C59.4436 13.1928 59.2987 13.1913 59.1753 13.2006C59.0594 13.2011 58.9436 13.2016 58.8278 13.202C58.7126 13.2108 58.6012 13.215 58.4936 13.2149C58.386 13.2147 58.2617 13.2117 58.1206 13.2058C58.0821 13.1343 58.0328 13.0842 57.9727 13.0556C57.9126 13.0271 57.8579 13.0147 57.8085 13.0184C57.6377 12.9485 57.5056 12.8427 57.4121 12.7008C57.3186 12.5589 57.2198 12.4008 57.1156 12.2267C57.067 12.131 57.0143 12.0357 56.9575 11.9407C56.9089 11.8451 56.8483 11.7545 56.7756 11.669L57.0168 11.5763L56.668 11.2302C56.6414 11.2074 56.6108 11.1849 56.576 11.1627C56.5494 11.1399 56.5226 11.1129 56.4954 11.0819L56.4777 10.8474C56.3938 10.1752 56.3304 9.55519 56.2875 8.98744C56.2522 8.41084 56.2922 7.8989 56.4073 7.45162L56.4273 7.38804ZM65.0534 11.8132C65.0129 11.8245 64.9737 11.7985 64.9358 11.7352C64.8973 11.6636 64.855 11.5965 64.8088 11.5337L64.9446 11.5235C64.8733 11.3468 64.8444 11.1835 64.8579 11.0335C64.879 10.8747 64.9049 10.7238 64.9354 10.5808C64.9654 10.4296 64.9877 10.2872 65.0025 10.1537C65.0248 10.0113 65.0016 9.86827 64.9328 9.72452C64.9758 9.74609 65.004 9.73569 65.0173 9.69331C65.0383 9.64207 65.0504 9.58323 65.0537 9.51678C65.0645 9.44149 65.063 9.36712 65.0492 9.29369C65.043 9.21141 65.0339 9.14589 65.022 9.09714C65.1097 8.83399 65.172 8.56447 65.2091 8.28859C65.2544 8.01208 65.2918 7.74032 65.3213 7.47328C65.3502 7.19802 65.3841 6.93479 65.423 6.6836C65.4696 6.42355 65.5338 6.17871 65.6158 5.94909C65.7297 5.92393 65.8503 5.93138 65.9774 5.97142C66.1122 6.00262 66.2026 6.04957 66.2487 6.11229C66.4889 5.89554 66.6972 5.63983 66.8735 5.34515C67.0498 5.05047 67.2268 4.76402 67.4044 4.4858C67.5896 4.19873 67.8019 3.94271 68.0415 3.71773C68.281 3.49275 68.5885 3.3454 68.9639 3.27566C69.1719 3.40062 69.4056 3.53606 69.6648 3.68197C69.9235 3.81966 70.14 4.00191 70.3144 4.22871C70.3833 4.26488 70.4484 4.30547 70.5098 4.35049C70.5787 4.38666 70.6476 4.42283 70.7166 4.459L70.7305 4.64413C70.8538 4.74239 70.9581 4.86278 71.0433 5.0053C71.1362 5.13896 71.2176 5.2859 71.2876 5.44611C71.3653 5.59747 71.4391 5.75326 71.5091 5.91347C71.5792 6.07369 71.6565 6.22093 71.7411 6.35522C71.7284 6.40583 71.7236 6.45171 71.7267 6.49285C71.7374 6.52514 71.7484 6.56155 71.7598 6.60206C71.7787 6.63373 71.7942 6.67394 71.8061 6.72269C71.8175 6.76321 71.8256 6.81638 71.8306 6.88221C71.8306 7.32079 71.7134 7.68548 71.4788 7.97628C71.2518 8.25823 70.9639 8.49928 70.6149 8.69943C70.2735 8.89072 69.9059 9.06331 69.512 9.21719C69.1176 9.36285 68.761 9.51805 68.4425 9.68279C68.445 9.71571 68.4627 9.73092 68.4956 9.72843C68.5367 9.72532 68.5509 9.74908 68.5382 9.79969C68.7962 9.92915 68.9945 10.0342 69.133 10.1147C69.2797 10.1947 69.4131 10.2632 69.5333 10.3203C69.6611 10.3686 69.7965 10.408 69.9395 10.4386C70.0907 10.4685 70.296 10.5027 70.5554 10.541C70.8148 10.5793 71.0161 10.6138 71.159 10.6444C71.3096 10.6661 71.4435 10.6849 71.5605 10.7009C71.677 10.7087 71.8016 10.7158 71.9345 10.7223C72.0674 10.7288 72.2459 10.736 72.4699 10.7439C72.5672 10.8276 72.6494 10.929 72.7163 11.048C72.7832 11.1671 72.8337 11.2874 72.8677 11.409C72.9017 11.5305 72.9148 11.6495 72.9071 11.766C72.9069 11.8736 72.8806 11.9625 72.8279 12.0326C72.8386 12.0649 72.8605 12.0798 72.8934 12.0773C72.9339 12.066 72.975 12.0629 73.0168 12.068C72.9623 12.1135 72.9167 12.1666 72.8799 12.2273C72.8431 12.288 72.8063 12.3487 72.7695 12.4094C72.7327 12.4701 72.6874 12.5273 72.6335 12.5811C72.5879 12.6342 72.5242 12.6679 72.4426 12.6824C72.1551 12.82 71.7769 12.8527 71.308 12.7805C70.8392 12.7084 70.2365 12.5636 69.5002 12.3461C69.1364 12.2412 68.8394 12.1436 68.6092 12.0534C68.3789 11.9633 68.1778 11.875 68.0058 11.7887C67.8331 11.6942 67.6725 11.5946 67.5239 11.49C67.3747 11.3771 67.2034 11.2452 67.0099 11.0944C66.9859 11.1045 66.9707 11.1222 66.9643 11.1475C66.9662 11.1721 66.9551 11.1895 66.931 11.1996C66.9147 11.5319 66.8691 11.8043 66.7941 12.0168C66.7274 12.2287 66.6198 12.4479 66.4714 12.6742C66.3379 12.6595 66.2483 12.6787 66.2027 12.7318C66.1653 12.7842 66.1152 12.8335 66.0525 12.8797C65.9715 12.9023 65.9094 12.9029 65.8664 12.8813C65.824 12.868 65.7855 12.8502 65.7507 12.828C65.7159 12.8058 65.677 12.7839 65.634 12.7623C65.591 12.7407 65.5246 12.7375 65.4347 12.7526C65.4044 12.6804 65.3744 12.6123 65.3448 12.5483C65.3145 12.4761 65.2462 12.4482 65.1398 12.4645C65.1589 12.3886 65.1625 12.3263 65.1505 12.2775C65.1379 12.2205 65.1219 12.1721 65.1023 12.1322C65.0821 12.0841 65.0619 12.0359 65.0417 11.9878C65.0298 11.9391 65.0337 11.8809 65.0534 11.8132ZM68.7496 5.86129C68.6544 6.02571 68.546 6.17871 68.4243 6.32031C68.302 6.45368 68.1803 6.59528 68.0592 6.7451C67.9457 6.88608 67.8458 7.04258 67.7595 7.2146C67.6726 7.3784 67.6169 7.57293 67.5926 7.7982C67.935 7.73095 68.2899 7.60898 68.6572 7.43227C69.0239 7.24734 69.3707 7.07219 69.6975 6.90683C69.6333 6.60549 69.508 6.37084 69.3215 6.20287C69.1345 6.02668 68.9438 5.91282 68.7496 5.86129ZM77.2268 10.7817L77.378 10.6462L77.3707 10.3861C77.5385 9.86862 77.712 9.37142 77.8911 8.89448C78.0784 8.41691 78.2731 7.92639 78.475 7.4229C78.5373 7.26096 78.5995 7.09903 78.6617 6.9371C78.7322 6.77455 78.7983 6.6082 78.8599 6.43804C78.8492 6.40575 78.8426 6.37314 78.8401 6.34023C78.837 6.29909 78.8418 6.25321 78.8545 6.2026C78.9573 6.02933 79.0366 5.87439 79.0925 5.73776C79.1566 5.60052 79.2163 5.45947 79.2715 5.31462C79.3331 5.14446 79.3989 4.97399 79.4687 4.80321C79.5468 4.6318 79.6458 4.46296 79.7656 4.29668L79.8427 4.16673L79.9794 4.16882C80.011 4.14987 80.043 4.13504 80.0753 4.12433C80.1152 4.10476 80.164 4.09281 80.2216 4.08845L80.4465 4.1087C80.7087 3.96476 80.934 3.76983 81.1223 3.5239C81.3182 3.26911 81.5107 2.96908 81.6997 2.62379L81.832 2.40278L82.0388 2.51128C82.0818 2.53286 82.1495 2.55257 82.2419 2.57042C82.3342 2.58826 82.431 2.60991 82.5323 2.63537C82.7082 2.66345 82.8806 2.70008 83.0495 2.74524C83.2178 2.78218 83.3506 2.84249 83.448 2.92616L83.5181 3.03258C83.5414 3.12184 83.5599 3.20319 83.5737 3.27662C83.5958 3.34944 83.6178 3.42225 83.6399 3.49506C83.6859 3.66536 83.7277 3.83598 83.7654 4.00691C83.8026 4.16961 83.833 4.3535 83.8568 4.55858C83.9103 4.72004 83.9601 4.88592 84.0061 5.05622C84.0597 5.21768 84.1091 5.37945 84.1545 5.54152C84.2136 5.77703 84.2763 6.004 84.3424 6.22244C84.408 6.43264 84.4893 6.63337 84.5865 6.82463C84.6688 6.81842 84.7185 6.8188 84.7356 6.82578C84.8312 6.77718 84.9445 6.7438 85.0756 6.72562L85.2351 6.70116L85.2957 6.84554C85.314 6.86898 85.3364 6.89211 85.363 6.91493C85.3895 6.93775 85.4202 6.96026 85.455 6.98245C85.5872 6.98074 85.684 7.00239 85.7454 7.0474C85.8143 7.08357 85.8709 7.12067 85.9151 7.1587C85.9328 7.17392 85.955 7.19293 85.9815 7.21575C86.0074 7.23035 86.0289 7.24113 86.046 7.24812L86.2747 7.31773L86.169 7.56156C86.0915 7.74119 85.9644 7.92043 85.7876 8.0993C85.619 8.27754 85.4235 8.42884 85.2012 8.55322C85.222 8.60957 85.2343 8.66243 85.238 8.7118C85.25 8.76055 85.2667 8.81721 85.2881 8.8818C85.3335 9.04387 85.3712 9.2148 85.4013 9.39458C85.4391 9.56551 85.4528 9.74653 85.4424 9.93764C85.3763 10.1578 85.2921 10.3586 85.19 10.5401C85.0954 10.7128 84.9753 10.8749 84.8295 11.0266C84.6914 11.1695 84.5311 11.2933 84.3487 11.3981C84.1656 11.4947 83.9716 11.5548 83.7665 11.5786C83.6494 11.5626 83.5609 11.5404 83.5008 11.5118C83.4489 11.4826 83.4012 11.4531 83.3576 11.4233C83.288 11.3789 83.232 11.35 83.1896 11.3367L83.0236 11.2748L83.059 11.0859C83.0787 11.0182 83.0702 10.9609 83.0336 10.914C83.0052 10.8665 82.9426 10.8051 82.8459 10.7296C82.8111 10.7074 82.7804 10.6849 82.7539 10.6621C82.7267 10.631 82.6954 10.6003 82.66 10.5699L82.3917 10.3047L82.7906 10.1628C83.0325 10.0783 83.1909 9.98361 83.2657 9.87866C83.3399 9.76547 83.3588 9.57785 83.3225 9.31579C83.1136 9.29019 82.9447 9.29882 82.8155 9.34168C82.6857 9.37631 82.5562 9.41506 82.4271 9.45792C82.2415 9.52158 82.0598 9.58083 81.8819 9.63564C81.7034 9.68223 81.5072 9.71361 81.2932 9.72977C81.1533 9.74034 81.0043 9.73919 80.8461 9.72631L80.7094 9.72423L80.6621 9.59126C80.6609 9.5748 80.6473 9.55928 80.6214 9.54469C80.603 9.52125 80.585 9.50192 80.5673 9.48671C80.5225 9.44044 80.4681 9.37835 80.4043 9.30042C80.3405 9.22249 80.3204 9.12057 80.344 8.99466C80.2795 8.9085 80.2395 8.81636 80.2238 8.71824C80.1958 8.78656 80.172 8.85456 80.1523 8.92225C80.1402 8.98109 80.1281 9.03993 80.116 9.09877L80.0787 9.26295L79.9202 9.29976C79.9049 9.31746 79.8904 9.34338 79.8764 9.37754C79.8706 9.41107 79.8725 9.43576 79.882 9.45159L79.9416 9.58363L79.8266 9.70404C79.812 9.72996 79.793 9.75209 79.7695 9.77041C79.7461 9.78873 79.7268 9.80674 79.7115 9.82444C79.7019 9.91619 79.6838 10.0045 79.6571 10.0892C79.6386 10.1734 79.616 10.2578 79.5893 10.3426C79.5581 10.4774 79.5266 10.608 79.4948 10.7345C79.4712 10.8604 79.4641 10.9851 79.4734 11.1085L79.4362 11.2727C79.4 11.3416 79.3502 11.3951 79.2869 11.4329C79.2318 11.4702 79.1764 11.5034 79.1206 11.5324C79.0408 11.5715 78.9857 11.6088 78.9553 11.6442L78.9304 11.8074L78.7471 11.8461C78.642 11.8789 78.5651 11.9012 78.5164 11.9132C78.4758 11.9245 78.4268 11.9324 78.3692 11.9367L78.2078 11.9365C78.1016 11.8452 78.0137 11.7774 77.9442 11.733C77.8822 11.6797 77.8085 11.6357 77.7232 11.6007L77.6416 11.5076C77.6038 11.4443 77.5788 11.3882 77.5669 11.3395C77.5543 11.2825 77.5376 11.2258 77.5168 11.1695C77.4923 11.0637 77.462 10.9916 77.426 10.9529L77.2268 10.7817ZM80.9216 7.2753C80.8188 7.44856 80.7208 7.62975 80.6275 7.81885C80.6845 7.80627 80.7377 7.79811 80.787 7.79438C80.8446 7.79003 80.9019 7.78157 80.9589 7.76899C81.2456 7.73077 81.5115 7.69 81.7565 7.64667C82.0015 7.60333 82.2658 7.54199 82.5494 7.46263C82.4606 7.16316 82.3632 6.8602 82.2573 6.55375C82.159 6.23844 82.0525 5.92376 81.9377 5.60969L81.8853 5.73778C81.6964 5.97548 81.517 6.22902 81.347 6.49839C81.177 6.76776 81.039 7.02231 80.933 7.26202L80.9216 7.2753ZM86.8029 7.7371C86.8086 7.70356 86.8242 7.68998 86.8495 7.69634C86.8824 7.69385 86.9109 7.68756 86.9349 7.67747C86.8641 7.61662 86.8165 7.53333 86.7919 7.42761C86.7668 7.31366 86.7185 7.22214 86.6471 7.15306C86.6604 7.11067 86.6696 7.0686 86.6748 7.02684C86.6881 6.98445 86.7239 6.9652 86.7821 6.96908C86.7438 6.78992 86.7351 6.62093 86.7562 6.46211C86.7773 6.30329 86.8155 6.15145 86.8708 6.0066C86.9342 5.86112 87.0063 5.71914 87.0868 5.58065C87.175 5.43331 87.2591 5.28628 87.339 5.13957C87.4118 5.11752 87.4577 5.12232 87.4766 5.15399C87.495 5.17744 87.5231 5.16703 87.5612 5.12278C87.686 5.02233 87.769 4.91675 87.8103 4.80605C87.851 4.68713 87.8663 4.56184 87.8564 4.43019C87.9143 4.21066 87.9807 3.99463 88.0557 3.78208C88.1383 3.56069 88.2344 3.35482 88.3442 3.16447C88.4539 2.97413 88.5738 2.80785 88.7037 2.66563C88.833 2.51518 88.9771 2.39671 89.1361 2.31023C89.2439 2.20279 89.381 2.1014 89.5476 2.00606C89.7224 1.9101 89.907 1.83409 90.1013 1.77803C90.3033 1.71312 90.5113 1.67259 90.7252 1.65642C90.9385 1.63203 91.1375 1.63768 91.3223 1.67338C91.3647 1.68673 91.3887 1.67663 91.3945 1.6431C91.3996 1.60134 91.4186 1.57921 91.4515 1.57672C91.8667 1.59501 92.239 1.64963 92.5687 1.74058C92.9065 1.83091 93.1984 1.97023 93.4443 2.15853C93.6193 2.39356 93.7876 2.64979 93.9492 2.92721C94.1102 3.1964 94.2396 3.48453 94.3373 3.79161C94.4425 4.08984 94.5035 4.40382 94.5201 4.73357C94.5368 5.06332 94.4917 5.39774 94.3849 5.73681C94.1243 6.12061 93.7967 6.43913 93.402 6.69237C93.0068 6.93739 92.5761 7.15198 92.1101 7.33614C91.6516 7.51145 91.1708 7.66364 90.6675 7.79269C90.1724 7.92112 89.6903 8.05684 89.2211 8.19987C89.2461 8.42141 89.2641 8.66002 89.2752 8.91572C89.2856 9.16319 89.2758 9.41632 89.2457 9.67513C89.2232 9.92508 89.1757 10.1728 89.1032 10.4182C89.039 10.6631 88.9405 10.8939 88.808 11.1108C88.6428 11.115 88.4712 11.1446 88.2933 11.1994C88.1236 11.2536 87.9704 11.3065 87.8336 11.3582C87.7647 11.3221 87.6958 11.2859 87.6268 11.2497C87.5668 11.2212 87.4912 11.2062 87.4 11.2048C87.4172 11.1042 87.3848 11.0032 87.3027 10.9018C87.2288 10.7998 87.151 10.7023 87.0695 10.6091C86.9956 10.5071 86.9426 10.4077 86.9105 10.3108C86.8859 10.2051 86.9281 10.1067 87.0371 10.0158C86.9669 9.96314 86.9272 9.87511 86.9179 9.75169C86.9533 9.78212 86.9956 9.79546 87.045 9.79174C87.0174 9.64487 87.0205 9.46672 87.0543 9.25729C87.0963 9.04723 87.1264 8.84222 87.1444 8.64226C87.17 8.43344 87.1642 8.24769 87.1271 8.08499C87.0893 7.91406 86.9813 7.7981 86.8029 7.7371ZM89.7937 4.60656C89.7676 4.69955 89.745 4.78401 89.726 4.85993C89.7145 4.927 89.6986 4.99027 89.6782 5.04973C89.6579 5.10919 89.6334 5.16896 89.6049 5.22905C89.5846 5.28851 89.5607 5.35651 89.5334 5.43305C89.5536 5.48118 89.5893 5.51572 89.6405 5.53667C89.6918 5.55763 89.7275 5.59217 89.7477 5.64029C89.8585 5.57399 89.9706 5.52415 90.0839 5.49076C90.1966 5.44915 90.31 5.41576 90.4239 5.3906C90.5379 5.36544 90.6515 5.33617 90.7648 5.30278C90.8782 5.26939 90.9944 5.21924 91.1134 5.15231C91.2325 5.08539 91.3566 5.0305 91.4858 4.98764C91.6226 4.93593 91.7552 4.88454 91.8838 4.83345C92.0123 4.78236 92.1364 4.72747 92.2561 4.66878C92.3752 4.60186 92.4766 4.51972 92.5602 4.42237C92.437 4.32411 92.257 4.24254 92.0204 4.17766C91.7838 4.11279 91.5291 4.08238 91.2563 4.08643C90.9912 4.08164 90.725 4.1183 90.4578 4.19641C90.1989 4.2739 89.9775 4.41062 89.7937 4.60656ZM94.8871 7.12634C94.8929 7.0928 94.9084 7.07922 94.9337 7.08558C94.9666 7.08309 94.9951 7.0768 95.0191 7.06671C94.9483 7.00586 94.9007 6.92257 94.8761 6.81685C94.851 6.7029 94.8027 6.61138 94.7313 6.5423C94.7446 6.49991 94.7539 6.45784 94.759 6.41608C94.7723 6.37369 94.8081 6.35444 94.8663 6.35832C94.828 6.17916 94.8193 6.01017 94.8404 5.85135C94.8615 5.69253 94.8997 5.54069 94.955 5.39584C95.0185 5.25036 95.0905 5.10838 95.1711 4.96989C95.2592 4.82255 95.3433 4.67552 95.4232 4.52881C95.496 4.50676 95.5419 4.51157 95.5609 4.54323C95.5792 4.56668 95.6074 4.55627 95.6454 4.51202C95.7702 4.41157 95.8532 4.30599 95.8945 4.19529C95.9352 4.07637 95.9506 3.95108 95.9406 3.81943C95.9985 3.5999 96.0649 3.38387 96.1399 3.17132C96.2225 2.94993 96.3186 2.74406 96.4284 2.55372C96.5381 2.36337 96.658 2.19709 96.7879 2.05487C96.9172 1.90442 97.0614 1.78595 97.2203 1.69947C97.3281 1.59203 97.4652 1.49064 97.6318 1.3953C97.8066 1.29934 97.9912 1.22333 98.1856 1.16727C98.3875 1.10236 98.5955 1.06183 98.8094 1.04566C99.0227 1.02127 99.2218 1.02693 99.4065 1.06262C99.4489 1.07597 99.473 1.06587 99.4787 1.03234C99.4838 0.990576 99.5028 0.968452 99.5358 0.965965C99.9509 0.984252 100.323 1.03887 100.653 1.12982C100.991 1.22015 101.283 1.35947 101.529 1.54777C101.703 1.7828 101.872 2.03903 102.033 2.31645C102.194 2.58564 102.324 2.87377 102.421 3.18085C102.527 3.47908 102.588 3.79307 102.604 4.12282C102.621 4.45256 102.576 4.78698 102.469 5.12605C102.209 5.50985 101.881 5.82837 101.486 6.08161C101.091 6.32663 100.66 6.54122 100.194 6.72538C99.7359 6.90069 99.255 7.05288 98.7517 7.18193C98.2566 7.31036 97.7745 7.44608 97.3053 7.58911C97.3303 7.81065 97.3484 8.04926 97.3594 8.30496C97.3698 8.55243 97.36 8.80556 97.3299 9.06437C97.3074 9.31432 97.2599 9.56203 97.1874 9.80748C97.1232 10.0523 97.0248 10.2832 96.8922 10.5001C96.727 10.5043 96.5555 10.5338 96.3775 10.5886C96.2079 10.6428 96.0546 10.6958 95.9179 10.7475C95.8489 10.7113 95.78 10.6751 95.7111 10.639C95.651 10.6104 95.5754 10.5954 95.4842 10.594C95.5015 10.4934 95.469 10.3924 95.3869 10.2911C95.313 10.1891 95.2353 10.0915 95.1537 9.99837C95.0798 9.89637 95.0268 9.79694 94.9947 9.70006C94.9701 9.59434 95.0123 9.49599 95.1213 9.405C95.0512 9.35238 95.0114 9.26435 95.0021 9.14093C95.0375 9.17136 95.0799 9.18471 95.1292 9.18098C95.1016 9.03411 95.1047 8.85596 95.1385 8.64653C95.1806 8.43647 95.2106 8.23146 95.2286 8.0315C95.2542 7.82268 95.2484 7.63693 95.2113 7.47423C95.1736 7.3033 95.0655 7.18734 94.8871 7.12634ZM97.8779 3.9958C97.8518 4.0888 97.8293 4.17325 97.8102 4.24917C97.7987 4.31624 97.7828 4.37951 97.7624 4.43897C97.7421 4.49843 97.7177 4.5582 97.6891 4.61829C97.6688 4.67775 97.6449 4.74575 97.6176 4.82229C97.6378 4.87042 97.6735 4.90496 97.7248 4.92591C97.776 4.94687 97.8117 4.98141 97.8319 5.02953C97.9427 4.96323 98.0548 4.91339 98.1681 4.88C98.2809 4.83839 98.3942 4.805 98.5081 4.77984C98.6221 4.75468 98.7357 4.72541 98.8491 4.69202C98.9624 4.65863 99.0786 4.60848 99.1977 4.54156C99.3167 4.47463 99.4409 4.41974 99.57 4.37688C99.7068 4.32518 99.8394 4.27378 99.968 4.22269C100.097 4.1716 100.221 4.11671 100.34 4.05802C100.459 3.9911 100.561 3.90896 100.644 3.81161C100.521 3.71335 100.341 3.63178 100.105 3.5669C99.868 3.50203 99.6133 3.47162 99.3406 3.47568C99.0754 3.47088 98.8092 3.50754 98.542 3.58565C98.2831 3.66314 98.0617 3.79986 97.8779 3.9958Z" fill="url(#paint0_linear_1175_6988)"/>
<defs>
<linearGradient id="paint0_linear_1175_6988" x1="86.7701" y1="-16.5732" x2="27.4958" y2="38.6486" gradientUnits="userSpaceOnUse">
<stop stop-color="#FF8200"/>
<stop offset="1" stop-color="#FFF02E"/>
</linearGradient>
</defs>
</svg>
