<svg width="401" height="155" viewBox="0 0 401 155" fill="none" xmlns="http://www.w3.org/2000/svg">
<path fill-rule="evenodd" clip-rule="evenodd" d="M136.603 152.585L139.062 152.46L175.083 148.798L177.528 148.614L185.755 148.04L186.636 148.082L220.914 143.799L223.367 143.532C243.808 141.302 265.358 136.386 286.032 131.553C300.634 128.142 331.616 118.656 343.56 113.803C431.695 77.9929 414.307 11.8624 314.898 2.14453C254.732 -3.73473 169.697 5.41535 113.074 23.7271C105.939 26.034 96.6319 29.6448 89.393 32.2785C79.9349 35.7156 77.0077 37.5896 67.9828 41.2991C64.3731 42.7854 50.4078 49.694 47.2375 51.5902C40.6495 55.5262 33.8333 59.3014 26.2399 64.0725C12.6454 72.612 5.48161 81.8839 1.88092 93.5051C-0.885957 102.397 2.28601 110.006 6.07443 118.199C10.2626 127.244 18.286 135.662 29.6459 142.261C46.9987 152.335 64.5282 154.781 91.7272 154.924C96.5627 154.945 103.224 154.576 107.709 154.683C114.64 154.851 129.855 153.373 136.652 152.632L136.603 152.585ZM23.0365 76.4407C15.6146 82.8645 13.705 87.3914 7.83196 94.9073C4.87143 95.0273 9.89348 85.0173 11.1679 83.0299C14.3666 78.0169 17.8923 74.795 23.9056 70.1746C34.6376 61.9301 45.0136 55.97 58.1665 49.4135C73.1423 41.9584 81.1823 37.7432 96.805 32.2776C105.752 29.1423 131.091 19.4686 140.119 18.121C137.316 20.4825 116.054 26.3603 104.561 30.6887C82.921 38.8059 60.6213 50.3679 43.8547 61.1881C36.2068 66.0418 29.2447 71.1334 23.0337 76.4151L23.0365 76.4407ZM347.966 19.496C353.721 17.5727 378.442 34.2495 381.135 36.737C389.474 44.4301 391.396 52.5684 388.798 62.7588C387.926 66.1836 372.732 83.3836 366.81 87.8732C356.868 95.401 346.904 102.24 329.585 107.593C275.021 124.449 208.493 137.121 141.886 141.679C125.57 142.798 106.42 143.181 93.6149 143.601C89.3498 143.743 76.1708 142.179 72.7504 141.701C63.8964 140.464 59.4976 138.737 51.3426 136.591C37.9942 133.072 24.5796 127.418 15.5571 121.017C12.3619 118.744 12.3169 116.322 16.4181 119.744C18.3436 121.314 21.5584 122.479 24.3191 124.065C29.5196 127.03 36.3366 128.973 42.8571 130.369C75.1092 137.272 95.5141 138.013 136.212 135.733C147.921 135.078 151.085 134.975 159.636 134.405C167.38 133.906 176.268 132.725 180.967 132.778C187.992 132.849 210.942 128.213 221.509 127.06L222.376 126.965C239.462 125.102 271.285 116.979 288.946 110.976C319.227 100.694 324.238 99.1113 348.232 86.518C358.893 80.9199 364.823 75.2074 370.405 69.4507C382.244 57.3627 381.728 46.5145 369.439 32.6016C365.599 29.5655 363.134 28.0378 359.747 25.4533C358.263 24.3195 347.628 20.1764 348.01 19.4998L347.966 19.496ZM328.566 7.30442C342.244 10.062 348.688 11.0822 361.711 16.3599C425.469 42.227 398.891 96.9886 316.482 120.16C293.791 126.522 265.666 134.858 242.811 137.956C226.153 140.205 220.678 141.799 197.741 144.297C179.736 146.261 154.579 148.353 141.432 149.821C99.3058 154.52 62.8814 155.125 34.2094 141.88C30.1083 139.987 13.6161 127.992 15.2978 125.477C24.1603 130.249 32.802 133.159 43.2387 137.004C48.4014 138.898 52.7331 139.367 58.953 141.224C65.1729 143.081 86.6307 146.639 95.5032 145.874C101.187 145.388 108.447 146.086 114.472 145.429C118.399 145.001 132.266 144.352 133.827 144.346C144.022 144.206 157.666 142.959 170.14 141.598L172.593 141.331C181.539 140.355 194.356 138.676 205.874 137.075C211.576 136.28 212.059 136.521 222.138 135.002C229.612 133.876 231.647 133.149 241.413 131.656C249.955 130.349 269.751 125.508 275.694 124.268C288.843 121.538 294.506 119.815 305.825 117.034C333.556 110.226 349.423 104.591 366.473 91.9435C408.848 60.4939 402.292 38.5881 353.393 17.7034C347.596 15.2263 331.109 11.3197 319.398 9.21997C310.103 7.55632 304.149 6.13275 281.443 4.07492C298.393 0.805241 313.425 4.23571 328.6 7.29636L328.566 7.30442ZM179.714 130.777C134.481 135.711 81.667 136.436 53.9985 130.622C35.4684 126.723 20.214 122.699 12.56 112.038C5.40411 102.082 13.0197 94.0564 22.3168 82.3883C29.5687 73.2796 48.8217 63.38 62.1 55.4797C74.201 48.2864 100.453 40.0678 112.057 35.8783C115.838 34.5115 121.186 33.682 125.381 32.3348C128.11 31.4627 138.039 28.8811 140.568 28.2641C150.599 25.8139 159.643 23.005 167.986 21.3262C180.363 18.8403 211.654 11.5405 226.937 9.87349L232.658 9.24943C250.134 7.34322 280.98 8.11581 298.087 9.33771C318.658 10.7993 337.288 17.9486 350.681 23.7992C377.91 38.6911 374.968 53.462 366.266 68.7404C358.053 80.7741 330.434 92.7046 311.432 100.564C301.21 104.793 286.684 108.977 274.66 112.781C251.957 119.917 218.168 126.587 185.444 130.156L179.714 130.777ZM142.347 30.9031C142.347 30.9031 140.775 30.6427 140.662 30.655C137.853 30.9614 130.448 34.3992 130.087 34.4731C126.998 35.0994 123.468 36.4345 119.525 37.3527C115.303 38.3828 111.192 39.5617 107.225 40.8794C105.734 41.3617 97.4208 44.6783 95.8351 44.5359L96.0549 46.5504C102.371 45.5937 112.657 40.3302 120.244 38.7987C127.419 37.3467 138.48 34.4516 142.347 30.9031ZM54.7769 70.5299C61.1161 65.6796 68.0055 60.1647 78.2315 56.2076L77.1317 55.1313C69.077 56.96 50.5492 67.7176 50.7918 71.4699L54.7769 70.5299ZM140.439 22.4998C147.361 20.8249 197.061 10.8434 202.271 11.3245C201.525 11.9587 177.692 16.7089 173.352 17.5278C163.898 19.3105 156.081 21.476 146.703 23.7945C138.572 25.8086 131.309 28.2981 121.525 30.6824C115.545 32.1466 113.029 33.2071 107.897 34.4103C103.491 35.4307 98.4007 38.3828 95.1409 38.0905C97.0586 36.4519 113.326 31.188 118.757 28.8639C125.125 26.1309 131.996 24.5437 140.448 22.4989L140.439 22.4998ZM127.876 125.816C124.674 123.963 108.28 125.099 103.851 125.582C90.7007 127.016 67.2666 123.353 54.6789 122.386C55.7048 126.001 86.6162 125.678 90.5057 126.355C94.0806 126.963 123.917 127.077 127.876 125.816ZM31.0434 96.9317C31.5126 96.5695 31.9905 96.2065 32.4689 95.8476C32.9596 93.3498 36.2683 90.4711 35.2936 88.7722L32.8255 88.9033C32.6428 90.5254 29.2926 93.8275 28.458 95.9871L31.0434 96.9317ZM39.0544 85.3735L44.1447 80.4133C43.6236 80.2196 43.1107 80.0208 42.5891 79.8229L40.4871 80.0133C38.1617 82.8193 37.1999 82.0432 35.784 85.7087L39.0544 85.3735ZM346.746 47.3978L343.46 46.4607C344.989 54.2877 343.097 63.3991 339.286 69.2304C336.277 73.8167 320.4 87.6451 310.967 89.948C314.07 93.6259 332.473 79.8719 335.309 76.7597C338.622 73.1205 340.839 71.8077 343.61 67.787C348.398 60.8516 347.079 54.3965 346.746 47.3978ZM342.888 41.2241C343.734 40.1299 337.367 33.4697 336.499 32.4201C334.477 29.9674 332.921 28.4139 327.351 25.6788C320.569 22.3635 321.254 20.3626 312.473 18.9106C304.862 17.6548 293.805 13.3418 283.125 16.7567C283.668 17.0732 288.751 16.7908 293.728 17.4658C300.591 18.3842 308.072 20.3018 310.838 20.6522C316.552 21.4024 316.206 22.252 319.693 24.0698C324.345 26.512 330.199 27.8255 333.284 32.2265C334.708 34.2565 340.407 42.0389 342.852 41.2151L342.888 41.2241ZM148.267 30.4949C149.954 29.879 164.839 25.6124 169 25.1585C177.669 24.213 175.705 23.7405 180.878 22.1958C182.789 21.6203 191.722 20.7668 193.376 20.5649L206.332 18.2361C208.671 17.8082 208.821 17.658 210.443 17.5675L227.42 14.3078C224.977 12.8944 220.379 14.0911 215.895 14.8005L212.613 15.1067C208.927 15.647 210.282 15.7712 206.927 16.1371C203.035 16.5617 182.608 20.6771 177.569 21.9306C173.946 22.8138 165.237 23.7854 161.821 24.8835C156.898 26.4656 149.606 28.1376 144.555 30.0792L148.272 30.5375L148.267 30.4949ZM262.294 106.68C264.027 106.491 271.473 103.584 276.722 102.251C280.897 101.196 287.652 100.321 287.796 97.783C280.305 100.44 262.258 103.622 258.938 106.636C259.204 106.659 262.244 106.707 262.261 106.705L262.294 106.68Z" fill="url(#paint0_linear_1175_6220)"/>
<defs>
<linearGradient id="paint0_linear_1175_6220" x1="187.023" y1="6.6592" x2="204.569" y2="167.527" gradientUnits="userSpaceOnUse">
<stop stop-color="#FF9323"/>
<stop offset="1" stop-color="#FFF02E"/>
</linearGradient>
</defs>
</svg>
