<svg width="400" height="155" viewBox="0 0 400 155" fill="none" xmlns="http://www.w3.org/2000/svg">
<path fill-rule="evenodd" clip-rule="evenodd" d="M135.815 152.386L138.275 152.26L174.295 148.599L176.74 148.414L184.967 147.84L185.848 147.883L220.126 143.599L222.579 143.332C243.02 141.102 264.571 136.186 285.245 131.353C299.846 127.942 330.828 118.456 342.772 113.604C430.907 77.7932 413.519 11.6627 314.11 1.94482C253.944 -3.93444 168.91 5.21564 112.286 23.5274C105.152 25.8343 95.844 29.4451 88.6052 32.0788C79.147 35.5159 76.2199 37.3899 67.1949 41.0993C63.5852 42.5857 49.62 49.4943 46.4497 51.3905C39.8617 55.3265 33.0455 59.1017 25.4521 63.8728C11.8576 72.4123 4.69377 81.6842 1.09308 93.3054C-1.6738 102.197 1.49817 109.806 5.28659 118C9.47477 127.044 17.4981 135.462 28.858 142.062C46.2108 152.136 63.7403 154.581 90.9394 154.724C95.7749 154.745 102.436 154.377 106.922 154.483C113.852 154.652 129.068 153.173 135.864 152.432L135.815 152.386ZM22.2487 76.241C14.8268 82.6648 12.9171 87.1917 7.04411 94.7076C4.08359 94.8276 9.10564 84.8176 10.38 82.8302C13.5788 77.8172 17.1044 74.5953 23.1178 69.9749C33.8498 61.7304 44.2257 55.7703 57.3786 49.2138C72.3545 41.7587 80.3944 37.5435 96.0171 32.0779C104.964 28.9426 130.303 19.2689 139.331 17.9213C136.528 20.2828 115.266 26.1605 103.773 30.489C82.1331 38.6062 59.8335 50.1682 43.0668 60.9884C35.419 65.8421 28.4569 70.9337 22.2459 76.2154L22.2487 76.241ZM347.178 19.2963C352.933 17.373 377.655 34.0498 380.347 36.5373C388.686 44.2304 390.609 52.3686 388.01 62.5591C387.138 65.9839 371.944 83.1839 366.022 87.6735C356.08 95.2013 346.116 102.041 328.797 107.393C274.233 124.249 207.705 136.922 141.099 141.479C124.782 142.598 105.632 142.981 92.8271 143.402C88.5619 143.543 75.383 141.979 71.9625 141.501C63.1085 140.265 58.7097 138.538 50.5548 136.391C37.2063 132.872 23.7917 127.218 14.7692 120.818C11.574 118.545 11.529 116.123 15.6303 119.545C17.5558 121.114 20.7706 122.279 23.5312 123.865C28.7318 126.831 35.5487 128.773 42.0693 130.169C74.3214 137.072 94.7263 137.814 135.424 135.534C147.133 134.878 150.297 134.775 158.849 134.205C166.592 133.706 175.481 132.525 180.179 132.578C187.204 132.65 210.154 128.013 220.721 126.86L221.588 126.766C238.674 124.902 270.497 116.78 288.158 110.777C318.439 100.495 323.45 98.9116 347.445 86.3183C358.106 80.7202 364.035 75.0077 369.617 69.251C381.456 57.163 380.94 46.3148 368.651 32.4019C364.811 29.3658 362.346 27.8381 358.959 25.2536C357.476 24.1198 346.84 19.9767 347.222 19.3001L347.178 19.2963ZM327.778 7.10471C341.456 9.86233 347.9 10.8825 360.923 16.1602C424.682 42.0273 398.103 96.7889 315.694 119.96C293.003 126.322 264.878 134.659 242.023 137.756C225.365 140.005 219.89 141.6 196.953 144.097C178.948 146.061 153.791 148.153 140.645 149.622C98.5179 154.32 62.0936 154.925 33.4216 141.68C29.3204 139.787 12.8282 127.792 14.5099 125.277C23.3724 130.05 32.0142 132.959 42.4509 136.804C47.6135 138.699 51.9453 139.168 58.1652 141.024C64.3851 142.881 85.8428 146.44 94.7153 145.675C100.399 145.189 107.659 145.887 113.684 145.229C117.611 144.801 131.478 144.152 133.039 144.146C143.234 144.006 156.878 142.759 169.352 141.399L171.805 141.131C180.751 140.155 193.568 138.477 205.086 136.875C210.789 136.08 211.271 136.321 221.351 134.803C228.824 133.677 230.859 132.949 240.625 131.456C249.167 130.149 268.963 125.308 274.906 124.068C288.056 121.338 293.718 119.615 305.038 116.834C332.768 110.026 348.635 104.391 365.685 91.7438C408.061 60.2942 401.504 38.3884 352.605 17.5037C346.808 15.0266 330.321 11.12 318.61 9.02026C309.315 7.35661 303.362 5.93304 280.655 3.87521C297.605 0.60553 312.637 4.036 327.812 7.09665L327.778 7.10471ZM178.926 130.577C133.693 135.511 80.8792 136.236 53.2107 130.423C34.6805 126.523 19.4262 122.499 11.7722 111.838C4.61626 101.882 12.2318 93.8567 21.529 82.1886C28.7808 73.0799 48.0339 63.1803 61.3121 55.2799C73.4131 48.0867 99.6651 39.8681 111.269 35.6786C115.05 34.3118 120.398 33.4823 124.593 32.1351C127.322 31.263 137.251 28.6814 139.78 28.0644C149.811 25.6142 158.855 22.8053 167.198 21.1265C179.576 18.6406 210.866 11.3408 226.149 9.67378L231.87 9.04972C249.346 7.14351 280.193 7.9161 297.299 9.138C317.87 10.5996 336.5 17.7489 349.893 23.5995C377.122 38.4913 374.18 53.2623 365.479 68.5407C357.265 80.5744 329.646 92.5049 310.644 100.365C300.422 104.593 285.896 108.778 273.873 112.581C251.169 119.717 217.38 126.387 184.656 129.956L178.926 130.577ZM141.559 30.7034C141.559 30.7034 139.987 30.443 139.874 30.4553C137.066 30.7616 129.66 34.1995 129.3 34.2733C126.21 34.8997 122.68 36.2348 118.737 37.153C114.515 38.1831 110.404 39.362 106.438 40.6797C104.946 41.162 96.6329 44.4785 95.0473 44.3362L95.267 46.3507C101.584 45.394 111.869 40.1305 119.456 38.599C126.631 37.147 137.692 34.2519 141.559 30.7034ZM53.9891 70.3302C60.3283 65.4799 67.2177 59.965 77.4437 56.0079L76.3438 54.9316C68.2891 56.7603 49.7614 67.5179 50.004 71.2702L53.9891 70.3302ZM139.651 22.3001C146.574 20.6252 196.273 10.6437 201.483 11.1248C200.737 11.759 176.904 16.5092 172.564 17.3281C163.11 19.1108 155.294 21.2763 145.915 23.5948C137.784 25.6089 130.521 28.0984 120.737 30.4827C114.757 31.9469 112.241 33.0074 107.109 34.2106C102.703 35.231 97.6129 38.1831 94.353 37.8908C96.2707 36.2522 112.538 30.9883 117.969 28.6642C124.337 25.9312 131.208 24.344 139.66 22.2992L139.651 22.3001ZM127.088 125.616C123.886 123.763 107.493 124.899 103.063 125.382C89.9128 126.817 66.4788 123.154 53.8911 122.186C54.917 125.801 85.8283 125.478 89.7178 126.155C93.2928 126.763 123.129 126.877 127.088 125.616ZM30.2555 96.732C30.7248 96.3698 31.2027 96.0068 31.6811 95.6479C32.1718 93.1501 35.4805 90.2714 34.5057 88.5725L32.0377 88.7036C31.8549 90.3257 28.5047 93.6278 27.6701 95.7874L30.2555 96.732ZM38.2665 85.1738L43.3568 80.2136C42.8357 80.0199 42.3229 79.8211 41.8013 79.6232L39.6993 79.8136C37.3738 82.6196 36.4121 81.8435 34.9961 85.509L38.2665 85.1738ZM345.958 47.1981L342.672 46.261C344.201 54.088 342.309 63.1994 338.498 69.0307C335.489 73.617 319.612 87.4454 310.179 89.7483C313.282 93.4262 331.685 79.6722 334.521 76.56C337.834 72.9208 340.051 71.608 342.823 67.5873C347.61 60.6519 346.292 54.1968 345.958 47.1981ZM342.101 41.0244C342.946 39.9302 336.58 33.27 335.711 32.2204C333.689 29.7677 332.133 28.2142 326.563 25.4791C319.781 22.1638 320.466 20.1629 311.685 18.7109C304.075 17.4551 293.017 13.1421 282.337 16.557C282.88 16.8735 287.963 16.5911 292.94 17.2661C299.803 18.1844 307.284 20.1021 310.05 20.4525C315.764 21.2027 315.418 22.0523 318.905 23.8701C323.558 26.3122 329.411 27.6258 332.497 32.0268C333.92 34.0568 339.619 41.8392 342.064 41.0154L342.101 41.0244ZM147.479 30.2952C149.166 29.6793 164.052 25.4126 168.212 24.9588C176.881 24.0132 174.917 23.5407 180.091 21.9961C182.001 21.4206 190.935 20.5671 192.588 20.3652L205.544 18.0364C207.883 17.6085 208.034 17.4583 209.655 17.3677L226.632 14.1081C224.189 12.6947 219.592 13.8914 215.108 14.6008L211.825 14.907C208.139 15.4473 209.494 15.5715 206.14 15.9374C202.247 16.362 181.82 20.4774 176.781 21.7309C173.158 22.6141 164.449 23.5857 161.033 24.6837C156.11 26.2659 148.819 27.9379 143.767 29.8795L147.484 30.3378L147.479 30.2952ZM261.506 106.48C263.239 106.291 270.685 103.384 275.935 102.052C280.109 100.996 286.864 100.121 287.008 97.5833C279.518 100.24 261.47 103.422 258.15 106.436C258.416 106.459 261.456 106.507 261.473 106.505L261.506 106.48Z" fill="url(#paint0_linear_1067_19943)"/>
<defs>
<linearGradient id="paint0_linear_1067_19943" x1="186.235" y1="6.45949" x2="203.782" y2="167.327" gradientUnits="userSpaceOnUse">
<stop stop-color="#FF9323"/>
<stop offset="1" stop-color="#FFF02E"/>
</linearGradient>
</defs>
</svg>
